<?xml version="1.0" standalone="no"?>
<!DOCTYPE svg PUBLIC "-//W3C//DTD SVG 1.1//EN" "http://www.w3.org/Graphics/SVG/1.1/DTD/svg11.dtd" >
<svg xmlns="http://www.w3.org/2000/svg">
<metadata></metadata>
<defs>
<font id="amatic_scregular" horiz-adv-x="696" >
<font-face units-per-em="2048" ascent="1638" descent="-410" />
<missing-glyph horiz-adv-x="290" />
<glyph unicode="ee" horiz-adv-x="905" d="M115 10l-2 420h-4l8 617l-8 245q0 29 18.5 38.5t49.5 8t79 -4.5q117 -6 127 -9q8 -4 10 -15.5t-8 -21.5t-31 -10h-166l-10 -12q2 -29 2 -88l-8 -318q0 -57 8 -57h131q37 0 37 -33q0 -25 -40 -25t-48 -2h-78q-8 0 -6 -34.5t2 -143.5l-4 -291q0 -80 6 -163q0 -78 8 -78 l158 4q60 0 60 -27q0 -37 -89 -37l-161 -6q-38 0 -41 43zM682 35l76 4q59 0 59 -27q0 -37 -88 -37h-170q-32 0 -35.5 52t-3.5 204t-2 199l14 617l-8 245q0 58 60 58q22 0 32 -13q7 -2 60 -8q126 -14 129 -51q0 -16 -39 -39q-113 37 -166 39l-10 -12q2 -29 2 -88l-8 -420 q0 -58 28 -58l70 5q78 0 80 -37q0 -14 -10.5 -24.5t-40 -10.5t-37.5 -2l-68 10h-8l-10 -10v-6q4 -33 4 -101l-4 -248q0 -204 28 -226q18 -15 66 -15z" />
<glyph unicode="ll" horiz-adv-x="913" d="M424 10q0 -26 -35 -26q-123 -13 -182 -13l-4 -4h-64q-29 0 -35 47q5 23 5 62l8 882q0 173 2 202.5t3 64.5t2 65l1 31q-1 8 11.5 14.5t26.5 2t17 -22.5l-4 -776v-291q-2 -68 -2 -215q53 0 207 10q13 2 28 -5.5t15 -27.5zM569 41l207 -2q26 3 39.5 -10.5t13.5 -30.5 t-38 -23q-59 2 -189 2l-4 -4q-23 2 -50 2q-42 0 -48 48q-2 18 -2 61l8 870q0 173 4 220l4 145q0 12 14.5 12t44.5 -12q0 -93 5 -162l-7 -622l4 -175l-6 -16l2 2l-2 -16q0 -17 6 -29z" />
<glyph unicode="mm" horiz-adv-x="1804" d="M139 1284l-12 39q0 31 55 31q47 0 53 -67q3 -34 35.5 -168t42.5 -199l23 -80q36 -125 45 -176l33 -142q17 -77 38 -178l21 -96q53 298 114.5 629t66.5 360t9 44t13 33q16 34 55 34q24 0 36.5 -31t12.5 -114t15.5 -489t15.5 -494.5t6.5 -131.5t7.5 -55t-1 -26 q-5 -32 -40 -32v2q-36 0 -36 68q0 399 -17 578l-2 165q0 170 -4 254q0 109 -8 146l-191 -963q0 -1 -6 -35q-14 -73 -49 -73q-43 0 -43 90q-19 122 -110.5 507t-116.5 455q-2 -94 -9 -339q-12 -471 -12 -642t2 -198q-9 -27 -43 -27q-7 0 -21 11t-14 18q0 216 17.5 646 t17.5 646zM993 6l15 1256q0 45 27 56q29 10 47.5 -22.5t25 -62.5t40 -142t44.5 -171l145 -635q7 44 87 461.5t86.5 447.5t11.5 50t9 31t12 23q16 25 56 25q50 0 50 -111.5t15 -507.5t15 -480t7 -130.5t8 -58.5t-1 -26q-5 -32 -40 -32l-2 -4q-37 0 -37 68q0 398 -17 577 l-2 166q0 183 -4 273q0 108 -8 145q-9 -50 -94.5 -445.5t-91.5 -427t-10 -53t-8 -37.5q-11 -44 -42 -44q-29 0 -36.5 19.5t-10.5 31.5t-7.5 37t-20 79.5t-93.5 385.5t-100 438v-1100q0 -55 2 -82q-9 -27 -43 -27q-7 0 -21 11t-14 18z" />
<glyph horiz-adv-x="682" />
<glyph unicode=" "  horiz-adv-x="290" />
<glyph unicode="&#x09;" horiz-adv-x="290" />
<glyph unicode="&#xa0;" horiz-adv-x="290" />
<glyph unicode="!" horiz-adv-x="329" d="M88 39q0 20 21 41.5t46 21.5t40.5 -21.5t15.5 -53.5q0 -51 -51 -54q-3 9 -13 11q-34 5 -59 55zM147 322l-2 8v491l5 350l-15 322q0 21 21.5 38t45 17t23.5 -26q0 -164 -21.5 -489.5t-21.5 -489.5l2 -90q0 -82 -16 -121l6 -10h-27z" />
<glyph unicode="&#x22;" horiz-adv-x="636" d="M207 1262q4 29 4 122v17q0 174 21.5 174t35 -23.5t13.5 -66.5t-23.5 -135.5t-42.5 -92.5q-3 0 -8 5zM418 1455q0 120 41 120q11 0 18.5 -23.5t7.5 -65t-12 -136.5t-19.5 -95t-9.5 2q-26 40 -26 152v46z" />
<glyph unicode="#" horiz-adv-x="790" d="M578 674l38 2q58 0 58 -39q0 -14 -33 -27h-80q-4 -55 -30.5 -285.5t-26.5 -355.5l-23 -26q-37 0 -37 20q0 43 13.5 128t13.5 139t19.5 180.5t19.5 191.5q-55 6 -135 6t-103 -8q-10 -71 -26 -252q-36 -405 -62 -405q-10 0 -22 5.5t-12 14.5q0 79 25 300t50 337l-88 -8 q-61 0 -61 43q0 20 69 20h43q31 0 41 2q6 13 21.5 149.5t15.5 164.5l-69 -4q-78 0 -80 37l16 18q118 0 137 6q5 45 18 134q29 186 29 294l-2 41q0 45 31 45l14 -29q0 -80 -18 -237.5t-18 -237.5q29 -8 107 -8t116 14q63 305 76 482q13 16 30 16t25 -20q-1 -79 -37.5 -232.5 t-36.5 -234.5l4 -11h76l27 -28q-13 -33 -27 -33l-86 4q-31 -122 -31 -309zM281 674l2 -8q24 -4 93 -4t130 8q37 197 37 293q0 20 -158 20q-46 0 -68 -12q-11 -25 -23.5 -139t-12.5 -158z" />
<glyph unicode="$" horiz-adv-x="538" d="M319 184l9 -116q0 -86 -35 -86q-9 0 -14 15t-5 26l9 6v135l-7 6q-69 0 -102 -4q-72 50 -72 102q0 21 19 21h4q20 -12 26.5 -34.5t18.5 -36t48.5 -13.5t60.5 8q0 165 -54 668q-1 10 -23 57.5t-47 101.5q-67 147 -67 260q0 55 15 112q29 110 83 110l-8 88q0 53 29 53 l16 -18q-2 -14 -2 -46q0 -75 33 -75q39 0 78 -45q51 -51 51 -62.5t-8.5 -22.5t-18.5 -1t-27 37t-36 40t-55 17l-7 -17l7 -161q0 -61 16.5 -234t28 -201.5t57.5 -120.5q109 -221 119 -350q0 -85 -29.5 -121.5t-49.5 -52.5t-61 -45zM315 240l2 -4q40 19 68.5 63t28.5 93 t-47 188.5t-86 195.5q0 -90 17 -268t17 -268zM135 1288q0 -128 78 -299q0 -5 6 -8q-2 89 -18 255t-19 237q-20 -4 -33.5 -75.5t-13.5 -109.5z" />
<glyph unicode="%" horiz-adv-x="1120" d="M436 1153l4 -94q0 -236 -95 -309q-35 -27 -83 -27q-172 0 -172 457v8q0 71 24 171q45 193 122 193q104 0 141 -75q63 -108 63 -318zM141 1178l4 -113q0 -62 15 -138q28 -151 98 -151q44 0 74 34t42 89q19 93 19 172l-16 256l-4 19q0 61 -37.5 106t-93.5 45q-43 0 -63 -83 q-15 -63 -21.5 -119.5t-7.5 -63.5zM1036 479l-4 -94l4 -6q0 -118 -28 -199q-51 -153 -177 -153q-39 0 -69 41.5t-46 99.5q-30 116 -30 182v8q0 457 172 457q48 0 83 -27t52.5 -63.5t28.5 -88.5q14 -72 14 -157zM983 369q2 38 1 62.5t-1 45.5t-1.5 49.5t-9.5 73.5t-21 77.5 t-38.5 56.5t-60 24t-58.5 -36.5t-34 -89.5q-19 -95 -19 -157l-4 -108l8 -54q1 -4 7.5 -47t13.5 -76.5t25.5 -64.5t49.5 -31t58 16.5t42 44t25 63.5t12.5 74.5t4.5 76.5zM735 1532q31 0 31 -27q0 -17 -20 -99.5t-33 -142t-219 -964.5l-41 -178q-2 -7 -6 -28.5t-7.5 -34.5 t-9.5 -30q-12 -32 -37 -34q-20 13 -20 47t10 89t32.5 143.5t93.5 402t131.5 544t63 241.5t6 22t7.5 23q9 26 18 26z" />
<glyph unicode="&#x26;" horiz-adv-x="942" d="M862 254q0 -33 -85.5 -33t-192.5 82q-67 -46 -114.5 -65t-118.5 -19t-132.5 50t-94 121.5t-32.5 128t1.5 93t9 75t11 62t18 63.5t19 55t27 60.5t27.5 56t34 66.5t35 68l-14 287v170q0 62 21.5 95.5t44.5 33.5q47 0 101 -31t54 -74l-6 -122q0 -17 2 -25q-15 -42 -35 -100 q-45 -133 -74 -173q-46 -64 -46 -94q0 -61 39.5 -221.5t100 -313.5t107.5 -167q78 157 78 397q0 35 -18 32q-20 -3 -31 13l2 4l-4 13l6 10q35 0 117.5 8.5t103.5 16.5q35 -5 35 -31q0 -15 -34.5 -24t-67.5 -9l-49 2h-13q0 -158 -17.5 -261t-70.5 -206q71 -82 158 -82l76 6z M174 813.5q-37 -121.5 -37 -211.5t13 -142.5t39 -99.5q57 -102 178 -102q41 0 107 24.5t69 57.5q-9 15 -41 47q-65 66 -116.5 202t-66 209t-21.5 134.5t-17 93.5q-70 -91 -107 -212.5zM764 629q2 0 2 -2zM313 1315q-4 -12 -4 -31.5t3 -48.5t3 -45q35 32 78 158t43 182 q0 123 -76 123q-14 0 -33.5 -29.5t-19.5 -44.5l2 -254z" />
<glyph unicode="'" horiz-adv-x="636" d="M207 1262q4 29 4 122v17q0 174 21.5 174t35 -23.5t13.5 -66.5t-23.5 -135.5t-42.5 -92.5q-3 0 -8 5z" />
<glyph unicode="(" horiz-adv-x="460" d="M94 879q0 68 25.5 239t74.5 338.5t99 169.5l20 -16q-2 -49 -32 -108q-131 -251 -131 -623q0 -649 155 -1018q8 -19 41.5 -79.5t42.5 -96.5q-15 -25 -28.5 -25t-22.5 4.5t-16.5 17t-11.5 18.5q-17 30 -17 42q-94 210 -146.5 529t-52.5 608z" />
<glyph unicode=")" horiz-adv-x="477" d="M387 817q0 -233 -63 -498q-138 -598 -222 -598q-11 0 -20.5 7t-9.5 16.5t15 39t37 70.5q87 165 147.5 462.5t60.5 500.5q0 350 -92 606q-8 22 -28 57q-44 82 -44 130l20 16q42 -1 81.5 -110t64.5 -253q53 -314 53 -446z" />
<glyph unicode="*" horiz-adv-x="905" d="M537 1120q-55 0 -64 -6q1 -26 79.5 -181.5t78.5 -173t-9 -26t-25 -8.5t-27 17.5t-17.5 51t-7.5 37.5q-55 131 -111 234q-9 -12 -24 -53l-80 -189q-4 -10 -12 -33q-17 -47 -31 -71l-27 -4l-29 30q0 23 77 174.5t85 198.5q-12 4 -22 4h-232l-33 -2q-22 0 -22 33 q0 10 6.5 17.5t15.5 7.5l277 -2l4 4q-22 40 -85.5 175t-63.5 148q0 23 32 23q14 0 43.5 -71.5t62 -150.5t52.5 -92q9 16 38 104q74 228 109 228q11 0 22 -10.5t11 -22t-26 -53.5q-24 -48 -55.5 -144t-49.5 -136q11 -11 125 -11l176 11q15 0 27 -12.5t12 -26.5q0 -29 -47 -29 zM471 1120q-2 0 -2 -2h2v2z" />
<glyph unicode="+" horiz-adv-x="727" d="M401 389q0 -33 -43 -33q-12 0 -27.5 9t-15.5 20v64l4 106q0 60 -29 65q-14 3 -40 3l-90 -11q-60 0 -60 43q0 29 23 29l108 -6q84 0 84 16l-10 205q0 24 8.5 34.5t32.5 10.5q37 0 37 -35l-8 -20l8 -162q0 -29 13.5 -39t43.5 -10l123 6q64 0 64 -35t-35 -35l-125 7 q-65 0 -71 -11q-13 -22 -13 -58t9 -86t9 -77z" />
<glyph unicode="," horiz-adv-x="407" d="M100 -162l4 19q107 89 107 149q-25 14 -42 39t-17 52t24.5 45t52.5 18q46 0 68 -60l-4 -6q4 -8 4 -33t-25 -83t-65 -106.5t-74 -49.5z" />
<glyph unicode="-" horiz-adv-x="620" d="M508 739q0 -21 -133.5 -40t-183.5 -19t-64 9.5t-14 25.5q0 21 135 40t182 19q78 0 78 -35z" />
<glyph unicode="." horiz-adv-x="327" d="M126.5 7.5q-13.5 15.5 -13.5 34.5t16.5 36.5t35.5 17.5t34.5 -17.5t15.5 -35.5q0 -51 -57 -51q-18 0 -31.5 15.5z" />
<glyph unicode="/" horiz-adv-x="559" d="M479 1505q0 -17 -20 -99.5t-33 -142t-219 -964.5l-41 -178q-2 -7 -6 -28.5t-7.5 -34.5t-9.5 -30q-12 -32 -37 -34q-20 13 -20 47t10.5 90t33 142t93.5 401t131.5 545.5t63 241.5t6 22t7.5 23q9 26 18 26q30 0 30 -27z" />
<glyph unicode="0" horiz-adv-x="606" d="M100 1036l2 328q12 20 22.5 68.5t21.5 68.5q23 41 102 41q20 0 56 -20.5t55.5 -39t33 -44t22.5 -43.5t15.5 -52.5t9.5 -49.5q7 -47 10.5 -81.5t11.5 -94.5t9.5 -72t9 -66.5t9 -72t7 -66t7.5 -72.5t5.5 -66.5t4.5 -71.5q4 -69 4 -125t-2 -96.5t-7.5 -104t-19 -115 t-33.5 -99.5q-44 -104 -134 -104q-19 0 -66 26q-97 60 -150 762l9 8l-2 146q-13 17 -13 108zM156 946l20 -180q0 -733 164 -733q58 0 88 109q28 106 33 192q8 138 8 229t-16 260.5t-47 247.5v88q-22 56 -24 116t-9.5 94.5t-21.5 59.5q-31 56 -134 68q-48 -39 -59 -69 t-11 -99z" />
<glyph unicode="1" horiz-adv-x="606" d="M481 14l-252 -8q-14 0 -23 9t-9 22l10 20l55 -2q29 0 40 13t11 43q0 258 -13 470q-15 240 -46 703l2 70q0 60 -19 94.5t-75 34.5l-47 -4q-35 0 -35 22q0 29 180 29q14 0 23.5 -10t9.5 -23h4q-6 -30 -6 -78.5t15.5 -177.5t15.5 -219t17 -318.5t17 -291t-4 -78.5 q13 -52 13 -232l-3 -30l9 -6l92 6q63 0 63 -29t-45 -29z" />
<glyph unicode="2" horiz-adv-x="571" d="M428 2l-299 -18q-20 0 -35.5 11t-15.5 30q35 44 69 139.5t41 109.5q117 256 175.5 488t58.5 487q0 295 -127 295q-28 -12 -44.5 -42.5t-20.5 -59.5q-8 -76 -35 -76t-27 37t11 76.5t37 72.5t60 33q86 0 139 -65t56 -154l-4 -4l6 -150q0 -167 -46 -408t-110 -384 q-5 -12 -52 -109q-109 -225 -111 -270l16 -2q71 13 246 22l30 -32z" />
<glyph unicode="3" horiz-adv-x="589" d="M315 844l-20 -2q-23 0 -39 8v8l-10 10q1 7 21.5 31t45 53.5t44.5 78.5t20 91t-2 78.5t-9.5 92t-20.5 96.5t-39 71.5t-60 30.5t-56.5 -18.5t-30.5 -40.5q-22 -58 -48 -58q-12 0 -23 8.5t-12 20.5q32 65 72 101t85 36q74 0 111 -49l6 -2q82 -119 82 -387q0 -50 -37 -115 q-9 -6 -33.5 -47t-33.5 -51q80 -32 112 -124q22 -65 35 -148t22 -123q13 -57 13 -110t-1 -79.5t-5 -67.5t-11 -71t-21 -63.5t-33 -54.5q-44 -50 -101 -50t-100 20t-43 56l16 10q25 -2 52 -22t36 -25q156 0 156 260q0 233 -32 347q-34 121 -108 200z" />
<glyph unicode="4" horiz-adv-x="526" d="M455 567q0 -30 -57 -25q-22 2 -40 -8t-18 -51t5.5 -178t12.5 -153q-2 -8 -2 -38.5t9 -45.5l-7 -25l7 -14v-29l-33 -25l-31 13v73l-2 5q8 33 8 73l-14 209l4 92q0 80 -21 90l-120 -12q-27 0 -39 9.5t-17 13.5v6q0 10 11 65l-19 41l19 101l20 401v326l-8 51q0 27 30.5 27 t30.5 -29l-8 -164q0 -36 6 -70l-4 -6q4 -36 4 -57l-24 -516l14 -60l-14 -55q0 -39 19.5 -39t55 6t48.5 13q0 74 -8 270.5t-15.5 251.5t-7.5 76q0 32 39 32l18 -22l12 -289q0 -60 6 -185t15 -134l76 8q39 0 39 -23z" />
<glyph unicode="5" horiz-adv-x="569" d="M152 1544q0 -57 41 -538l-3 -2q0 -1 36 -5q115 -13 148 -37.5t62 -137.5q49 -190 49 -386q0 -149 -9 -199.5t-20.5 -91t-27.5 -68.5q-39 -67 -98 -99h-11q-106 0 -106 32q0 23 39 23l53 -17q31 0 57.5 38t41.5 92q30 114 30 178.5t-4.5 146.5t-18 201.5t-46 198.5 t-80.5 79h-47l-9 -6l-6 2l-45 -18q-38 0 -46 32q-2 11 -3 33.5t-2 30.5q10 58 10 119t-23.5 206t-25.5 214l21 20l157 2q62 0 62 -28l-23 -19h-43l-6 -4l-82 10l-14 -4zM152 1337q-2 0 -2 -2z" />
<glyph unicode="6" horiz-adv-x="516" d="M353.5 -17.5q-26.5 -11.5 -64.5 -11.5t-67 22.5t-43.5 55.5t-24 80t-12.5 87q-8 131 -11 153q-31 225 -31 438q0 195 7.5 275.5t16 155.5t23.5 127.5t35 102.5q41 101 115 101q7 0 16 -6t9 -16t-13 -19.5t-32 -17.5t-25 -13q-33 -27 -57 -161q-35 -197 -41 -439 q24 16 51.5 16t56.5 -16t50 -46.5t39 -66.5t30 -86t21 -94.5t14.5 -101.5t9 -98.5t4.5 -94t1.5 -78.5t0.5 -60.5t-2.5 -60t-11 -53t-23.5 -45.5t-41.5 -29.5zM154 758q-3 -289 51 -592q1 -8 3.5 -28.5t4.5 -31.5t6 -28t10.5 -26.5t16.5 -19.5q19 -20 61 -20q76 0 76 162 q0 234 -18 350.5t-35 188t-47 113.5t-68 42q-61 -40 -61 -110z" />
<glyph unicode="7" horiz-adv-x="450" d="M102 1561l217 6q14 0 27.5 -11.5t18.5 -25.5q-13 -34 -13.5 -78t-7 -122.5t-86 -646t-100.5 -597.5q2 -6 2 -25.5t-13 -53t-36 -34.5l-25 23q0 34 16.5 82t37 135t45 257t50.5 411t33.5 302t17.5 124q21 132 21 209q0 12 -71 12l-121 -6l-31 20z" />
<glyph unicode="8" horiz-adv-x="524" d="M444 104l-6 -49q0 -6 2 -10q-33 -64 -68.5 -93.5t-86.5 -29.5t-80 29t-43 73q-29 86 -29 162q0 312 66 570q3 12 11 34q19 49 19 68.5t-9.5 52.5t-23.5 73q-108 326 -108 458q0 114 62 153q24 15 57 15h37q6 -3 20 -9t21 -10q21 -12 30 -32q39 -88 39 -211t-41 -340 q-30 -135 -30 -141t5 -20t12 -30t9 -22q135 -407 135 -691zM205 53q2 -32 20 -62t47 -30q65 0 94 45t29 113q0 194 -78 479q-6 21 -15 64q-22 94 -40 126q-41 -57 -61.5 -265.5t-20.5 -354.5q0 -42 27 -109zM233 1565l-22 -2q-16 0 -25 6q-47 -38 -47 -116.5t39 -272 t68 -211.5q61 196 61 366q0 104 -22 167t-52 63z" />
<glyph unicode="9" horiz-adv-x="509" d="M369 57l2 -47q0 -57 -35 -57l-17 20q19 54 19 183l10 571q0 37 -2 110.5t-2 110.5l-14 -4q-110 25 -178 107t-68 192q0 157 49 265q18 39 50.5 66.5t69.5 27.5t80.5 -15.5t58 -38.5t14.5 -325l-3 -242l-14 -82l-6 -690zM154 1171q6 -73 30 -95t38.5 -30.5t44 -22.5 t50.5 -26l29 4q10 181 10 439q0 58 -21 90.5t-66.5 32.5t-72 -35t-38.5 -89q-21 -101 -21 -176t17 -92z" />
<glyph unicode=":" horiz-adv-x="344" d="M126.5 216.5q-13.5 15.5 -13.5 34.5t16.5 36.5t35.5 17.5t34.5 -17.5t15.5 -35.5q0 -51 -57 -51q-18 0 -31.5 15.5zM146.5 990.5q-13.5 15.5 -13.5 34.5t16.5 36.5t35.5 17.5t35 -17.5t16 -35.5q0 -51 -58 -51q-18 0 -31.5 15.5z" />
<glyph unicode=";" horiz-adv-x="391" d="M193.5 990.5q-13.5 15.5 -13.5 34.5t16.5 36.5t35.5 17.5t35 -17.5t16 -35.5q0 -51 -58 -51q-18 0 -31.5 15.5zM205 182q-60 36 -60 90q0 28 24.5 46t54 18t48.5 -23.5t19 -58t-23 -94.5t-63 -110.5t-78 -51.5l-33 16l4 19q107 89 107 149z" />
<glyph unicode="&#x3c;" horiz-adv-x="569" d="M461 0l-27 4h-4q-32 47 -69 131t-48 107l-102 213q-5 11 -21.5 43.5t-23.5 50.5q-6 18 -44 68.5t-38 78t48 141.5t105.5 243.5t64.5 151t16.5 55.5t17.5 59q23 71 49 75l27 -20q-18 -119 -140 -362q-116 -233 -116 -339q0 -17 141 -304.5t174 -342.5l18 -14 q-2 -11 -10.5 -25t-17.5 -14z" />
<glyph unicode="=" horiz-adv-x="620" d="M569 727q0 -6 -215 -6h-198q-17 0 -30 9.5t-13 25.5q0 6 180 6h231q15 0 30 -10.5t15 -24.5zM141 647l404 -2q7 0 13.5 -10t6.5 -20.5t-12 -10.5q0 4 -395 4q-9 0 -17 11t-8 19.5t8 8.5z" />
<glyph unicode="&#x3e;" horiz-adv-x="569" d="M139 4l-30 -4q-9 0 -18 14t-11 25l18 14q36 65 176 347.5t140 299.5q0 106 -116 339q-122 243 -140 362l26 20q28 -6 50 -75q7 -24 16.5 -58.5t16.5 -56t65 -150.5q153 -344 153 -378t-37.5 -85t-44.5 -69.5t-24 -51t-21 -42.5l-176 -365q-37 -77 -43 -86z" />
<glyph unicode="?" horiz-adv-x="464" d="M109 1283q-15 77 -15 117.5t6 68.5t19 53q28 56 104.5 56t98.5 -44q45 -90 45 -206.5t-15.5 -207t-36.5 -171t-41 -173.5q-47 -222 -36 -534q-1 2 -4 0q-10 -6 -21 -6q-18 0 -23 24q0 307 39 559q9 51 33 149q51 216 51 335q0 107 -21.5 168.5t-51.5 61.5h-23 q-72 0 -72 -127q0 -28 15 -123l-25 -8q-23 -2 -26 8zM181.5 7.5q-13.5 15.5 -13.5 34.5t16.5 36.5t35.5 17.5t34.5 -17.5t15.5 -35.5q0 -51 -57 -51q-18 0 -31.5 15.5z" />
<glyph unicode="@" horiz-adv-x="1036" d="M487 467q-203 0 -203 487v25q0 198 11.5 252.5t26.5 100t36 70.5q52 62 133 62t134 -59q32 -38 93 -612q10 -94 11 -107l23 -10q26 -51 43 -51q79 0 79 311.5t-114 613.5q-30 80 -66 128q-75 96 -224 96q-147 0 -209 -91q-52 -77 -65 -216q-4 -40 -7 -92.5t-4 -60.5 t-3.5 -31.5t-5.5 -35.5q-9 -44 -16 -61q4 -54 4 -90t-8 -56q4 -8 4 -37.5t3 -80t5.5 -77t10 -95t10.5 -95.5t6.5 -78.5t5.5 -84.5t8.5 -76t16.5 -77q26 -82 86.5 -167.5t126.5 -85.5q112 0 197 37.5t167 124.5l19 19q18 18 26 20l18 -19q-14 -51 -65 -96t-115 -73 q-137 -60 -240 -60q-149 0 -259 240q-2 25 -13 48t-14 33q-22 62 -45 310.5t-23 353.5q0 411 82 626q43 114 136 154q67 29 145.5 29t125.5 -13.5t82.5 -33t66.5 -56t52 -67.5t40.5 -83t30.5 -87.5t23 -96.5q32 -162 35.5 -195.5t10.5 -78t9 -59.5t7 -49q6 -49 6 -111 q0 -338 -152 -338q-28 0 -58 23.5t-45 27.5q-36 -88 -119 -129q-41 -20 -83 -20zM526.5 1404.5q-15.5 4.5 -37.5 4.5t-42 -12t-33 -30t-22 -46t-14 -53.5t-8 -59.5q-4 -46 -4 -114v-263q0 -140 14.5 -184.5t29.5 -69.5q29 -51 92 -51q35 0 70 40.5t55.5 91.5t20.5 87v154 q0 34 -3 65.5t-4 46.5t-5 39t-5.5 35.5t-6.5 38.5t-7 35q-9 34 -17 84.5t-10.5 63t-7.5 31.5t-12 29.5t-17.5 21.5t-26 15.5z" />
<glyph unicode="A" d="M567 600l23 -534v-22q0 -24 -6 -30q-16 -14 -35 -14t-31 10t-12 25q6 12 6 24l-6 41v203q0 27 -108 46.5t-160 19.5q-20 0 -36 -74.5t-31 -163.5t-30 -111q-48 0 -63 25q32 46 61.5 224t47.5 258.5t64.5 349.5t63 344.5t25.5 111.5t23 85q33 118 59 118q32 0 42.5 -14.5 t18 -68t15 -136t13.5 -151.5q19 -216 23.5 -284t18.5 -98q-4 -62 -4 -106.5t18 -77.5zM231 426q86 -29 207 -29q25 0 37 4l10 -4q19 0 19 19q0 428 -80 923q-1 6 -4.5 22t-3.5 25q-25 -71 -27 -90l6 -12q-7 -7 -23 -70.5t-44.5 -262t-41 -255t-26.5 -102.5 q-29 -102 -29 -156v-12z" />
<glyph unicode="B" horiz-adv-x="616" d="M514 473l-6 -88q0 -5 6 -23q-19 -144 -53 -202.5t-76.5 -90t-110.5 -61.5q-14 -1 -40 -10.5t-41 -9.5q-80 0 -80 28l10 519l-14 854q0 147 53 147q140 0 213.5 -90t73.5 -242t-132 -330q29 -43 67 -93l56 -76q54 -71 64 -124.5t10 -107.5zM190 70l13 -2q63 0 147 64.5 t95.5 113.5t11.5 125q0 367 -176 440q-20 -1 -54 -11t-47 -12q10 -300 10 -718zM172 1378l8 -491l6 -2q72 0 118 83q37 66 60 135t31 87v78q0 70 -51 134t-119 64q-53 0 -53 -88z" />
<glyph unicode="C" d="M170 1008l-18 -148q0 -121 27 -404t55 -326q54 -83 161.5 -83t157.5 59q19 0 47 7l10 -11q0 -98 -156 -128q-37 -7 -83.5 -7t-109.5 46t-89 102t-51 348t-25 514t13 262q-7 35 -7 66q0 123 88 191.5t216 68.5q35 0 76.5 -22t41.5 -54q0 -23 -32 -23q-9 0 -25 12.5 t-26.5 12.5t-22.5 -4q-24 8 -49 8t-60.5 -10.5t-59 -27t-40 -44.5t-25.5 -53.5t-14 -65.5q-6 -57 -6 -141zM403 1475h-4h4z" />
<glyph unicode="D" horiz-adv-x="702" d="M156 299l2 82q0 120 -14 279t-17 198q-9 19 -10 256.5t-4.5 263.5t-17 62t-13.5 57q0 49 154 49h10q78 0 168 -86t117.5 -155t36.5 -165.5t12.5 -176.5t13.5 -101l-4 -55l6 -10l-6 -17l6 -10q-12 -19 -12 -57t-4 -70t-8 -50t-13.5 -53.5t-28.5 -113.5q-56 -220 -186 -325 t-153.5 -105t-48 10.5t-27.5 30.5q29 37 32 82zM162 1450l18 -340q0 -132 15.5 -391.5t15.5 -351t-4 -201.5l4 -8v-58h10q77 41 136 117.5t91.5 160t53.5 182.5q33 162 33 314q0 599 -330 599q-41 0 -43 -23z" />
<glyph unicode="E" horiz-adv-x="497" d="M199 61l123 7q96 0 96 -33q-17 -30 -61 -38.5t-85 -8.5h-48q-92 0 -106 14.5t-14 30.5l19 76v4q-8 41 -8 90l10 209l-12 438l10 407q0 37 -13 109.5t-14 106.5l37 57l143 18l7 -6q48 0 55.5 -12.5t7.5 -26.5q0 -39 -74 -39l-55 4q-45 0 -45 -24l16 -348l-10 -256l-4 -4 l12 -7l113 21q11 0 24 -11.5t13 -23.5q0 -41 -31 -41l-47 2q-78 0 -78 -39l15 -172l-7 -12v-416q11 -13 11 -57v-19z" />
<glyph unicode="F" horiz-adv-x="438" d="M281 1481l-50 2q-75 0 -75 -47q0 -100 15 -296t15 -296q24 0 69 12t63.5 12t28 -14t9.5 -27q0 -25 -42.5 -31t-85 -10t-42.5 -24q0 -116 19.5 -345.5t19.5 -344.5l-6 -11q6 -15 6 -30q0 -35 -45 -35q-35 0 -35 139l2 66q0 104 -13 309.5t-13 308.5q0 594 -39 643v13 q0 73 203 73q34 0 34 -47q0 -20 -38 -20z" />
<glyph unicode="G" horiz-adv-x="774" d="M571 463q64 0 64 -86q0 -61 20.5 -182.5t20.5 -182.5q0 -32 -27 -32q-49 0 -49 45q0 1 1 5t1 5q-20 -6 -52 -29t-48 -28t-48.5 -7t-47.5 -12h4q-135 30 -202 94q-54 51 -76 173q-38 203 -38 651q0 176 10 250t21.5 130.5t28 98t41.5 84.5t56 70q70 61 169 61q61 0 61 -35 q0 -25 -30 -25l-58 11q-157 0 -203 -287q-26 -156 -26 -408q-6 -162 -6 -224.5t1 -97t4.5 -86.5t12 -93.5t20.5 -89.5t32.5 -83.5t47.5 -65.5q56 -62 157 -62t167 102q0 153 -18.5 208.5t-34.5 55.5l-82 -8q-47 0 -47 35q0 19 60.5 32t92.5 13z" />
<glyph unicode="H" horiz-adv-x="602" d="M410 825l-19 695q0 8 4 28q39 0 49 -54q9 -47 9 -262t15 -662.5t15 -520.5q9 -18 9 -30.5t-11.5 -32t-25.5 -19.5q-29 0 -29 45l2 47q0 315 -20 703l-13 -2l-78 10q-102 0 -145 -25q0 -119 17.5 -354t17.5 -354q0 -31 -21 -31q-26 0 -33.5 23.5t-11.5 141t-5.5 253.5 t-4.5 174q-37 500 -37 934l33 16l27 -22q-9 -76 -9 -152l17 -416l-2 -81q0 -41 8 -72l240 16z" />
<glyph unicode="I" horiz-adv-x="477" d="M360 8l-65 10q-23 0 -47 -24q-46 0 -58 16h-5q-94 0 -109 35q0 23 47 23l45 -2q41 0 42 59t-5.5 144t-8 169t-11.5 327t-13 349l2 240q0 99 -6 119l-70 -15q-22 0 -22 28.5t90 47t122 18.5q54 0 54 -33.5t-25 -33.5l-49 2q-35 0 -42 -33q-7 -27 -7 -159t25.5 -523 t25.5 -588l-2 -106l74 6q53 0 53 -51z" />
<glyph unicode="J" horiz-adv-x="468" d="M330 305l-11 -168q0 -23 7 -37l-15 -32q-4 -73 -55 -148t-111 -119q-43 0 -43 39q2 19 35 40.5t39 27.5q90 90 90 313q0 106 -10 303t-14 347q-11 498 -33 618l-109 -19q-12 0 -20 9.5t-8 21.5q0 51 282 51q14 0 23.5 -9.5t9.5 -22.5q0 -31 -95 -31h-22l-2 -39 q0 -54 12.5 -162t12.5 -204.5t18.5 -368.5t18.5 -410zM209 -25q2 0 2 -2z" />
<glyph unicode="K" horiz-adv-x="690" d="M565 -47l-28 8q-40 237 -122 528.5t-149 419.5l-6 -4q-6 -24 -43 -87t-41 -99.5t-4 -143.5l10 -452q0 -129 -43 -129q-37 0 -37 94.5t13.5 284t13.5 284.5l-8 736l-4 8l-15 96q0 43 35 43q18 0 25.5 -4t13.5 -28q10 -36 10 -205l-8 -439h2q41 87 109.5 257.5t77.5 191.5 q111 284 145 284q35 0 35 -30q-5 -37 -26 -71t-26 -45t-34 -72.5t-50 -107t-47 -106.5q-57 -131 -61 -172l10 -18l-8 -6q70 -176 161.5 -508t139.5 -469q-3 -39 -41 -39z" />
<glyph unicode="L" horiz-adv-x="475" d="M293 0l-64 2q-11 0 -28 -12.5t-31 -12.5t-28.5 13t-14.5 30l12 93l-20 581l-21 856q0 21 27 21q39 0 39 -37q0 -473 10 -599.5t10 -156.5t-4 -80l6 -8q-4 -54 -4 -109.5t10.5 -212.5t12.5 -223q-8 -12 -8 -41t9.5 -39t40.5 -10t42 13h76q28 -14 28 -32q0 -40 -28 -40 q-7 0 -31 8q-10 -4 -41 -4z" />
<glyph unicode="M" horiz-adv-x="856" d="M633 1554q6 33 49 33q7 0 16 -10t9 -18q-7 -137 -7 -263t16.5 -435t16.5 -415t-2 -131.5t5 -90.5t7 -164t-30 -113v6l-8 -8l-39 16v6q0 13 6 25l-8 18q4 122 4 187l-15 673l4 230q0 35 -3.5 98t-4.5 84q-4 -4 -4 -14q-6 -133 -58 -404q-33 -209 -85 -381q-3 -11 -11 -30 q-18 -43 -18 -66l6 -10q-2 -7 -9 -53q-16 -101 -56 -101q-45 0 -48 159q0 26 -5.5 67.5t-91 446t-97.5 421.5q-8 -185 -8 -414l6 -651l10 -195q0 -37 -16 -53q-58 0 -58 107l11 342l-8 415l6 486q0 117 -2 176l39 22q48 -6 180 -655q27 -136 42 -201t21 -92.5t13 -65.5 q16 -77 16 -112q12 31 39 169l29 144q12 58 55.5 294.5t57.5 301.5q29 133 32 209zM250 1010h2h-2z" />
<glyph unicode="N" horiz-adv-x="772" d="M621 111l6 -74q0 -60 -52 -60q-36 0 -49 77q-7 36 -8 40q-200 631 -252 922q-2 9 -3 28q-2 41 -19 58l4 10q-13 76 -19.5 105.5t-14.5 66.5q-14 65 -36 117q-6 -42 -6 -64t4 -34q-14 -48 -14 -142v-561q0 -98 14 -292t14 -292l-14 -16h-47l-6 16q4 16 4 82l-23 713v268 l15 387l-2 43q0 26 13.5 34.5t35 8.5t37.5 -12.5t16 -39.5t9 -59t26 -71.5t26.5 -72t17.5 -104t19 -126.5t36 -148t57.5 -206t41.5 -148.5t24 -90.5q32 -114 34 -161q14 -21 21.5 -81t33.5 -82q13 29 13 98l8 713l-6 317l6 78q0 22 -6 26l6 17q0 126 -8 168q8 28 51 28 q33 0 33 -67q-13 -26 -13 -68l2 -69q0 -44 -8 -62l-6 -647q0 -19 4 -55l-4 -9v-258l4 -77q0 -122 -20 -168v-4z" />
<glyph unicode="O" d="M586 618l-19 -264l4 -8q-16 -69 -16 -124t-22 -113.5t-65.5 -105t-93.5 -46.5t-93 38t-71.5 97.5t-50 141t-33.5 160t-20 162.5q-12 140 -12 242.5t9 233.5t10 169t2 67t5 69.5t10.5 71t19.5 62.5t32 53q42 47 117.5 47t124.5 -41q7 -11 36.5 -49t44 -72.5t32.5 -169.5 q49 -350 49 -621zM303 1518q-151 0 -151 -607v-80q0 -142 21.5 -305.5t45 -265.5t66 -174t94.5 -72q70 0 102 142.5t38 253.5q7 152 7 198v49q0 38 -0.5 64.5t-1.5 87t-4 107.5t-8 114t-14 119.5t-20.5 112t-28 102.5t-37.5 80q-43 74 -109 74z" />
<glyph unicode="P" horiz-adv-x="540" d="M184 725l17 -674q0 -30 -8.5 -46.5t-35 -16.5t-26.5 71l8 367l-16 332q0 228 -5.5 375.5t-7 196.5t-2.5 74q-5 79 -18 132q19 29 53 29q73 0 131.5 -34t93.5 -89q72 -115 72 -235t-43 -244q-54 -157 -138 -192q-27 -11 -37 -23q-17 -18 -38 -23zM156 1505l24 -700l4 -4 q21 2 31.5 11.5t20.5 20.5t14 15q133 133 133 334q0 70 -6 112t-34.5 80.5t-49 55.5t-58 44.5t-42.5 30.5h-37z" />
<glyph unicode="Q" horiz-adv-x="727" d="M106 915l-2 125q0 537 203 537q72 0 142.5 -58t82.5 -128q56 -316 56 -797q0 -277 -39 -393q-15 -43 -88 -148q1 -15 9.5 -38t11.5 -33.5t7 -51t8.5 -69.5t23.5 -53.5t52 -24.5q72 0 72 -27q0 -39 -78 -39q-8 0 -32.5 13t-28.5 14q-39 17 -58.5 63t-31.5 122t-19 98h-94 q-152 108 -188 301q-19 103 -19 245zM154 676v-86q0 -214 61 -370q23 -58 64 -99t94 -41l14 10q4 14 24 15t27 6q65 57 69 191q1 31 1 74t1.5 62t8 53t6.5 52v278q-8 20 -8 71t-3.5 98.5t-12 119.5t-11 95t-4.5 54.5t-4 49t-6 45.5t-10 45t-15.5 38.5t-23 34.5t-32.5 25 q-35 23 -101 23q-139 0 -139 -844z" />
<glyph unicode="R" horiz-adv-x="591" d="M121 1501l-4 37q0 18 41 18q84 0 128.5 -47t59 -101t22.5 -82q17 -61 17 -95q0 -103 -57 -248q-37 -92 -37 -102q0 -100 80 -403.5t131 -430.5q0 -67 -27 -67q-21 0 -34.5 18.5t-16.5 21.5q-6 80 -52.5 222.5t-57 190t-37.5 193.5t-48 224l-16 12l-39 -16v-768l4 -51 q0 -41 -37 -41q-15 0 -25 9.5t-10 24.5l7 11l8 1243v227zM178 1491l-10 -447q0 -88 6 -131h4q15 0 53.5 42t53 67t23.5 83t9 96.5t-5.5 80.5t-17.5 91t-38 81.5t-61 32.5v6z" />
<glyph unicode="S" horiz-adv-x="569" d="M395 692l-2 -8q0 -1 47 -158q31 -122 31 -188t-15.5 -129t-45 -121t-81 -95.5t-99 -37.5t-67.5 2q-59 6 -83 49q0 25 21.5 25t58 -15.5t69.5 -15.5t70.5 38t57.5 94q40 114 40 213.5t-30 202.5t-73.5 188t-86.5 170q-103 202 -103 382q0 149 90 238q49 47 115 47 q21 0 54 -16.5t40 -34.5l-12 -23q-46 0 -67 21q-49 0 -84 -37q-66 -68 -66 -178q0 -81 13 -134.5t20 -81.5t25 -71t26.5 -64t33 -69t32 -62t37 -67.5t34.5 -63.5z" />
<glyph unicode="T" horiz-adv-x="542" d="M342 545l10 -477q0 -80 -35 -80q-21 0 -32 28.5t-11 53.5l17 336q0 108 -14.5 326.5t-14.5 328.5l2 192q0 211 -35 211l-116 -12q-15 0 -29 9.5t-14 25.5q0 21 136 40t216 19q15 0 29 -10.5t14 -24.5q0 -30 -39 -30l-76 6q-35 0 -43 -21q15 -129 15 -266l-3 -248 q0 -242 29 -348q-6 -30 -6 -59z" />
<glyph unicode="U" horiz-adv-x="743" d="M627 426l2 -129q0 -173 -45 -255q-19 -34 -55 -57.5t-93 -23.5t-105 30.5t-74 76.5t-45.5 107t-27.5 115q-23 142 -45 183q0 163 -20.5 487.5t-20.5 487.5l-14 43q0 14 10.5 27.5t24.5 13.5q51 0 51 -150l18 -692q8 -10 10 -49q10 -142 19 -182q-4 -24 -4 -52t19.5 -94 t51 -130t78.5 -110t84 -46t55 8t28 17.5t16.5 31.5t8.5 33.5t4 41t1.5 36t-0.5 18.5l6 68v233l-14 123l-12 367v26l-9 12q9 58 9 117l-19 348q0 16 14.5 24.5t30.5 8.5l35 -33l-6 -16l6 -16l-14 -123l20 -369l10 -356l7 -2q-2 -14 -2 -43l6 -144l6 -6z" />
<glyph unicode="V" horiz-adv-x="669" d="M375 -18q-7 0 -31 8q-37 149 -106 606t-104.5 671t-59.5 259q7 22 41 22q33 0 43 -74q2 -10 16 -86t74.5 -497.5t113.5 -648.5q11 60 16.5 117t47.5 418q76 653 76 739v8q30 30 51 30l12 -8h-4l21 -16q0 -43 -14.5 -127t-14.5 -127q-21 -38 -79 -584.5t-60 -664.5 q-17 -45 -39 -45zM362 236l-4 -5h7z" />
<glyph unicode="W" horiz-adv-x="950" d="M440 1053l-2 -4q-7 -34 -8 -102.5t-18 -148t-40.5 -380.5t-23.5 -412q0 -7 -12 -20t-25.5 -13t-24.5 13.5t-15.5 39t-6.5 44.5q-2 33 -3 78t-7.5 92t-17.5 105.5t-16.5 97t-37.5 311.5q-85 723 -108 759q15 27 39.5 27t39.5 -37.5t22.5 -98.5t11.5 -117t6.5 -113t10 -136 t47 -350t52.5 -379h4q0 97 15.5 222.5t18.5 157.5t12.5 78.5t11.5 73t8.5 151.5t10.5 163t10.5 83.5t6.5 70.5l-2 37q0 26 29 40q61 0 61 -36l-10 -27q0 -228 85 -544t85 -533l6 -4q6 24 11.5 123t32 306t31.5 292t26.5 264t21.5 276l-2 39q0 49 53 49q13 0 26 -9.5 t13 -26.5t-22 -35q2 -4 2 -13q0 -13 -8 -45q-14 -119 -40.5 -451.5t-67 -571t-40.5 -386.5v-30q0 -24 -7 -37t-30 -13q-48 0 -74 315q-8 95 -63.5 364t-71.5 397zM655 236q-4 0 -4 -3zM334 1161v-4v4z" />
<glyph unicode="X" horiz-adv-x="565" d="M430 27q-37 0 -37 26t-3.5 58t-7.5 54.5t-10 59.5q-45 256 -83 404q-9 -15 -61 -256.5t-58.5 -278t-7.5 -46.5q-7 -47 -22 -54q-14 -6 -24.5 -6t-22 8t-11.5 18t8.5 40t21.5 68q33 101 69 278t43.5 213t11.5 55t9 49q9 54 9 114.5t-12 135t-37 179t-31 134t-29 102 t-24 113.5q16 27 33.5 27t27 -10t11 -21t2.5 -30t7 -55t40.5 -180.5t46.5 -221.5q39 103 54 186q28 162 31.5 178.5t6.5 42t6.5 46t10.5 44.5q13 51 40 51q37 0 37 -19.5t-12.5 -50t-26.5 -79.5t-43.5 -200t-37.5 -192t-11.5 -60.5t-9.5 -52.5q-10 -63 -10 -107l108 -553 l-4 -11q0 -29 17.5 -83t17.5 -74.5t-10.5 -31.5t-22.5 -11zM287 635h-4q0 -2 4 -2v2z" />
<glyph unicode="Y" horiz-adv-x="505" d="M289 -25q-29 0 -29 50l10 395l-14 166q0 33 -12.5 96t-12.5 87t-5.5 53t-15.5 70t-14.5 63.5t-23.5 122.5q-41 209 -69.5 304.5t-28.5 121.5q0 42 41 42l24 -16q5 -83 53.5 -323t75.5 -277q32 94 44 235.5t20 214.5q18 160 57 160q31 0 31 -22q0 -16 -8 -44.5 t-11.5 -50.5t-23 -131t-28.5 -164q-27 -163 -27 -299l6 -67l-13 -31v-16l15 -246q0 -277 -4 -414l6 -6l2 -14q0 -23 -11.5 -41.5t-33.5 -18.5z" />
<glyph unicode="Z" horiz-adv-x="471" d="M352 -10l-243 -8q-21 0 -31 26q44 77 65 177t34 222t26 181q65 490 89 647q30 206 32 264l-138 -10q-92 0 -92 41l15 16q16 -4 49 -4l192 21q33 0 33 -37q-22 -49 -29.5 -155t-15.5 -162t-57 -434t-82 -580q-3 -22 -25 -74t-22 -82l133 10q86 0 86 -41z" />
<glyph unicode="[" horiz-adv-x="514" d="M408 1489l-115 12q-62 0 -62 -43q0 -295 -25.5 -675t-33.5 -537t-20 -195v-49l-9 -16q7 -1 67 -4q144 -7 144 -50q0 -20 -45.5 -20t-133 13.5t-87.5 39.5q0 85 21.5 253t21.5 295t26.5 463t26.5 505q0 10 -9 24.5t-11 22.5l41 24q235 0 235 -41q0 -10 -10.5 -16t-21.5 -6 z" />
<glyph unicode="\" horiz-adv-x="559" d="M82 1505q0 27 31 27q14 0 23.5 -41t70 -271.5t132 -547.5t93.5 -400q43 -169 43 -241q0 -24 -20 -37q-25 2 -34 26.5t-12.5 37.5t-7.5 34.5t-6 28.5l-41 178q-19 83 -59 249.5t-63 266.5q-65 275 -87.5 391.5t-33.5 161.5q-29 120 -29 137z" />
<glyph unicode="]" horiz-adv-x="516" d="M252 1499l-115 -8q-59 0 -59 20q0 26 53.5 31.5t82.5 7.5q50 2 99 2l41 -24q-2 -8 -11 -22.5t-9 -24.5q0 -162 27.5 -485.5t27.5 -450t20.5 -308t20.5 -272.5q0 -26 -87.5 -39.5t-133 -13.5t-45.5 20q0 43 144 50q60 3 67 4l-8 16v49q-16 35 -39 488.5t-26.5 577 t-9 209.5t-5.5 120t-7 43.5t-28 9.5z" />
<glyph unicode="^" horiz-adv-x="319" d="M117 1575q0 57 39 57q22 0 36.5 -13.5t14.5 -35.5q0 -45 -41 -45q-49 0 -49 37z" />
<glyph unicode="_" horiz-adv-x="565" d="M100 1090q0 284 99 323q38 0 87.5 -16t49.5 -35q45 -55 75 -267t35 -352l5 -6q0 -44 13 -130t13 -130v-178q-13 -28 -21.5 -96t-19.5 -99q-24 -65 -119 -65q-165 0 -180 299q-2 33 -12 178.5t-13 206.5q-12 200 -12 367zM145 920q0 -267 25 -457q0 -219 56 -307 q28 -42 71 -72q65 0 94 50q43 76 43 196t-20 250.5t-33 289t-16.5 190.5t-7 65.5t-6.5 54.5t-9.5 54t-16.5 54.5t-24 43.5q-28 42 -84 42q-72 0 -72 -368v-86zM285 1561l-15 26q0 58 52 58q22 0 39.5 -12t17.5 -34.5t-19 -38.5t-43 -16z" />
<glyph unicode="`" horiz-adv-x="550" d="M207 1622q-20 -4 -33 -4q-70 0 -70 41q0 36 13 45q74 0 92 -23q2 -1 24.5 -8.5t38.5 -13.5t42.5 -16.5t46 -19.5t38.5 -19q39 -22 39 -39q0 -7 -8.5 -12t-14 -5t-102.5 34.5t-106 39.5z" />
<glyph unicode="a" horiz-adv-x="667" d="M367 305l-54 -2q-29 12 -64 12t-38 -2t-4 -7t-2 -7l-4 -41q-4 -52 -19 -125q-28 -143 -59 -143q-13 0 -27 11t-14 24q26 77 54 233t35 194.5t26 155.5t25 154t32.5 160t32 161t12.5 103q17 160 27 178l28 -2q25 0 37 12q13 0 25 -8.5t12 -22.5q0 -98 25 -379t39.5 -363.5 t33.5 -162t19 -121.5l-10 -28q0 -46 17 -135.5t17 -126t-16 -45.5q-42 0 -51.5 12t-9.5 38.5t-3.5 65t-7 61.5t-12 72.5t-10.5 63.5q-39 10 -92 10zM223 406q0 -21 49 -35q75 -21 166 -21h21q-13 40 -13 92v47q0 127 -31.5 370t-33.5 362q-107 -529 -132.5 -653.5 t-25.5 -161.5z" />
<glyph unicode="b" horiz-adv-x="530" d="M121 1329q0 53 43 53q28 0 105.5 -24t78.5 -43q-2 -4 -2 -6q38 -60 51 -120.5t13 -182t-33 -211.5h2q-8 -19 -31.5 -53.5t-28.5 -43.5q40 -31 63.5 -88.5t29 -102.5t8.5 -108l2 -53v-29q0 -196 -122 -290q-65 -50 -157 -50q-18 0 -28.5 12.5t-11.5 31.5t-1 63l21 432 l-4 182l12 490q0 78 -2 119l-8 10v12zM172 150l2 -93q76 0 130 71.5t54 150.5v3q1 18 1 35t-1.5 58.5t-6.5 76t-17.5 76.5t-29.5 71q-42 69 -116 69q-10 -153 -10 -270.5t6 -149.5q-12 -22 -12 -98zM184 934l-2 -143v-25l8 -27h15q135 0 135 273q0 37 -6 127l-4 4 q-13 170 -103 170q-45 0 -45 -269z" />
<glyph unicode="c" horiz-adv-x="550" d="M174 827l-8 -413q0 -173 33 -248q38 -88 97 -114q38 -17 77.5 -17t60.5 18q31 0 31 -22q0 -16 -27.5 -35.5t-50.5 -28.5h-68q-13 7 -48 18t-64.5 32.5t-55.5 71t-37 115.5q-18 108 -18 242v234q0 273 20 374q40 205 109 259q18 14 55.5 28.5t51.5 22.5h82q2 0 5.5 -1 t5.5 -1.5t5.5 -1.5t5 -1.5t4.5 -2t4 -2.5q9 -9 9 -21l-27 -30h-86q-42 0 -73 -39.5t-47.5 -93.5t-26.5 -125q-15 -107 -15 -207z" />
<glyph unicode="d" horiz-adv-x="653" d="M537 717q0 -81 10 -99q-13 -67 -23.5 -181t-25 -174t-36.5 -103q-54 -102 -179 -170h-142q-18 0 -18 55q-8 159 -8 356l4 484q0 213 -8 385q-17 14 -17 35t17 36t31 15t31.5 -16.5t26.5 -21t43 -10t56.5 -16.5t73.5 -59.5t69 -61.5l-2 -4q2 -13 30.5 -52.5t35.5 -57.5 q33 -89 33 -244zM477 592l-2 74l-10 206q-4 116 -71 246q-31 62 -82.5 103t-110.5 41q-23 0 -23 -409.5t23 -733.5l-2 -39l8 -4l6 -27h63q12 17 30.5 31t25.5 20q145 131 145 492z" />
<glyph unicode="e" horiz-adv-x="491" d="M109 16l2 52l-7 8q15 41 15 84l-10 270l14 617l-8 245q0 58 59 58q23 0 33 -13q7 -2 59 -8q126 -14 129 -51q0 -16 -39 -39q-113 37 -166 39l-10 -12q2 -29 2 -88l-8 -318q0 -57 29 -57l69 4q78 0 80 -37q0 -21 -10.5 -37t-37.5 -16t-40 16l-67 10h-9l-10 -10v-6 q4 -53 4 -162l-4 -291q0 -204 28 -226q18 -15 66 -15l76 4q60 0 60 -27q0 -37 -89 -37h-169q-38 0 -41 43z" />
<glyph unicode="f" horiz-adv-x="526" d="M176 346l12 -293q0 -82 -49 -82l-41 31q19 197 19 416t14 494.5t14 412.5q0 19 18 29t57 10t132.5 -15t93.5 -44q0 -35 -73 -35q-37 20 -84 20t-54 -2t-9 -5t-5 -14.5t-8 -21.5l-20 -432v-72q0 -7 35 -7q102 2 102 -31q0 -17 -16 -28t-33 -11l-68 12q-37 0 -37 -100v-232 zM111 1014v-2q0 -2 -2.5 -2t-2.5 2t3 2h2z" />
<glyph unicode="g" horiz-adv-x="688" d="M563 406l8 -314q-106 -106 -209 -106q-136 0 -178.5 56t-67 260t-24.5 290.5t10 190.5t16 198.5t21 158.5q49 216 232 216q63 0 63 -29q0 -14 -13.5 -22.5t-27.5 -8.5l-39 4q-69 0 -108 -88q-42 -98 -52.5 -181t-15.5 -132t-7 -112q-3 -95 -3 -177t6 -131 q16 -25 21 -81.5t8.5 -113.5t16 -113t53.5 -91t112 -35q123 0 123 327v150q-21 21 -72 21l-39 -2q-49 0 -49 24q0 35 49 35q189 0 189 -41z" />
<glyph unicode="h" horiz-adv-x="606" d="M394 1365q11 9 18 9t43 -12q0 -160 13 -478.5t13 -513t13 -370.5l-13 -23q-2 21 -63 21q-10 455 -10 549l-5 8l7 18q0 32 -7 76l-32 8q-18 -6 -41 -6l-131 21l-21 -8l-6 -258l6 -9l12 -342q0 -53 -34 -53q-45 0 -45 123l4 375q0 186 -6 200q10 20 10 136l-15 479 q0 14 10.5 26.5t24.5 12.5q41 0 41 -119l-8 -500q0 -24 164 -24q39 0 56.5 14.5t17.5 80.5t-13.5 254.5t-13.5 282.5q0 13 11 22zM352 739l4 -4h-4v4z" />
<glyph unicode="i" horiz-adv-x="550" d="M424 16l-68 7q-16 0 -38 -11.5t-52.5 -11.5t-38.5 20l-34 -2q-44 0 -56 21q0 13 11.5 21.5t15.5 13.5h59l8 8l7 43l-15 448l10 478q0 139 -10 237q-20 6 -61 6l-49 -4q-39 0 -39 35q0 9 18.5 17t30.5 8q285 0 285 -62q0 -6 -5 -16l-47 -4q-16 12 -59 12l-10 -6 q6 -18 6 -109l-6 -487l14 -449l-2 -63q0 -48 6 -57l-2 -5q0 -20 45 -20l60 2q61 0 61 -29q0 -18 -13 -29.5t-32 -11.5z" />
<glyph unicode="j" horiz-adv-x="573" d="M72 -205l-2 8q0 9 73.5 56.5t81.5 56.5q33 37 49.5 113t16.5 143l-19 1088l-12 22q-9 4 -50 10q-99 13 -99 43q0 8 17 16.5t50 8.5t175.5 -29t142.5 -56.5t-33 -27.5l-111 21q-18 0 -18 -41l20 -850v-225q-12 -27 -12 -77t-13 -101.5t-37 -103.5t-66 -87t-93 -35h-14z " />
<glyph unicode="k" horiz-adv-x="677" d="M342 930l-4 -131q0 -93 70 -341q85 -298 144 -378q40 -53 40 -76q0 -41 -35 -41q-48 0 -115.5 184t-113.5 380.5t-49 267.5l-5 8q-7 -15 -32.5 -66.5t-35.5 -73.5q-30 -71 -30 -145l-10 -147v-262l14 -117q0 -11 -10.5 -18t-29.5 -7t-28.5 8.5t-9.5 34.5v385l19 258 l20 396v284q11 23 32.5 23t33.5 -12t12 -27q-18 -33 -18 -101t-4 -213t-4 -217q20 8 159.5 282.5t153.5 274.5q52 0 55 -34q-128 -188 -219 -379z" />
<glyph unicode="l" horiz-adv-x="497" d="M188 47l193 -6h6q11 0 21 -11.5t10 -23.5q0 -23 -33 -26q-53 2 -170 2l4 -2l-76 -7q-29 0 -34 47q4 20 4 68l12 1092l10 135q0 14 15 14l34 -8l-2 -162l2 -446q-6 -168 -6 -172l4 -174l-6 -17l2 2l-2 -16q0 -17 6 -29l-6 -196v-13q0 -32 2 -41.5t10 -9.5z" />
<glyph unicode="m" horiz-adv-x="1054" d="M930 408l-4 -215q0 -143 20 -213q4 -12 4 -26t-12.5 -37t-32.5 -23q-41 0 -41 131q0 427 -6.5 520.5t-14 151.5t-7.5 89l8 254q0 72 -8 97q-40 -32 -246 -863q-2 -7 -4.5 -30t-6 -42.5t-9.5 -40.5q-13 -46 -42 -46q-34 0 -47.5 16.5t-13.5 50.5q0 84 -106 508t-142 459 q-5 -110 -18 -337q-27 -473 -27 -635t2 -189q-9 -27 -43 -27q-7 0 -21 11t-14 18q0 216 32 646t32 646l-12 39q0 31 55 31q31 0 40 -32q7 -25 8.5 -51.5t7.5 -60t52.5 -138t56.5 -141.5t26 -91q33 -117 44 -176l27 -54q6 -34 23 -100q34 -139 36 -221q24 36 129 423.5 t114.5 438.5t13.5 77.5t8 42t11 37.5q15 42 50 42q13 0 32 -12t19 -25q0 -858 27 -903zM836 1149h-2l-3 -2l5 -2v4z" />
<glyph unicode="n" horiz-adv-x="862" d="M682 1247l-4 51q0 43 29 43q20 0 32.5 -19t12.5 -40v-137l-11 -17q0 -160 -22 -619.5t-43 -502.5q-5 -1 -29.5 -7.5t-34.5 -6.5t-18 13.5t-12.5 35.5t-8.5 29l2 6q-13 85 -53.5 194.5t-52.5 147.5q-7 9 -55 153q-184 571 -232 617q-16 -63 -16 -144l4 -161l-4 -99 q0 -23 8 -143h-6q0 -341 14 -377v-184q8 -14 8 -36q0 -48 -38 -48q-43 0 -43 110l8 134l-13 589l13 363v36q0 27 1.5 36t3 21.5t4.5 19.5t7 16q8 18 21 29l6 -7l20 5q23 -8 28 -32q0 -2 2.5 -11.5t2.5 -10.5q35 -146 147 -407t136 -335.5t43 -157.5q42 -184 92 -269l4 6 q47 447 47 1116zM639 -2q2 0 2 -2z" />
<glyph unicode="o" horiz-adv-x="673" d="M559 791l4 -244q0 -461 -148 -561q-36 -25 -81 -25q-240 0 -240 754q0 291 40 505q30 156 91 156q14 0 26.5 -11t34 -18.5t59 -14.5t53.5 -10q41 -7 79 -79q86 -146 86 -442zM158 717l4 -162q0 -195 44 -371q16 -66 47.5 -115t72 -49t71 30t48.5 83.5t30 109t17 124.5 q8 110 8 196l-23 484l-8 16l4 10q0 89 -50 155t-122 66h-86q-17 0 -30 -182.5t-17 -202.5z" />
<glyph unicode="p" horiz-adv-x="522" d="M180 395l17 -399q0 -37 -39 -37l-29 16q-23 123 -23 295l9 381q-13 30 -13 47q21 35 21 189q0 365 -12 397q20 51 30 51h90q25 0 66.5 -22.5t67.5 -44.5q51 -47 51 -242q0 -173 -15 -209.5t-32 -64t-43 -45.5q-57 -41 -146 -68v-244zM178 1217l10 -295l-8 -193l13 -20 q150 0 157 315v55t-2 56t-9.5 51t-20.5 45q-31 41 -95 41q-27 0 -36 -13t-9 -42z" />
<glyph unicode="q" horiz-adv-x="688" d="M520 -434q-106 0 -135 33q0 91 -21.5 201.5t-25.5 131.5q-106 21 -154 76q-54 61 -72 255t-18 444q0 649 203 661q14 -6 44 -13.5t59 -21t63 -48t54 -81t33 -91.5t19 -103q9 -87 9 -193v-96q0 -151 -23 -341q-45 -371 -121 -419q-3 -2 -14 -7q-25 -11 -25 -24 q0 -77 22.5 -176t26.5 -119q15 -15 46 -14q57 2 57 -26.5t-27 -28.5zM147 702l7 -38v-89q0 -589 159 -589l60 12q41 0 76 116t51 232t16 168v358q0 443 -225 443q-65 0 -97 -138q-47 -206 -47 -475z" />
<glyph unicode="r" horiz-adv-x="550" d="M102 1288q0 78 45 78q100 0 165 -50.5t65 -148.5v-149q0 -79 -80 -226q-27 -49 -27 -53.5t77.5 -324t81.5 -329.5t20 -42t16 -55t-23 -23l-30 10q-48 54 -105 400q-55 334 -94 334h-8q-45 0 -45 -29q0 -112 13 -372.5t22 -291.5l-15 -34h-30l-15 16q-33 887 -33 1290z M160 1260l8 -496l4 -4q39 0 70 40.5t47 98.5q33 120 33 182t-4 93.5t-17 66.5q-27 72 -117 72q-12 0 -18 -19t-6 -34z" />
<glyph unicode="s" horiz-adv-x="489" d="M303 1305l-43 12q-32 0 -56 -25.5t-36 -63.5q-25 -74 -25 -116t2 -60t7.5 -42t7.5 -34t11.5 -41.5t10.5 -35.5l15 -37q20 -36 52 -90.5t48 -82.5t37 -73.5t30 -82.5q25 -95 25 -170.5t-6 -121t-22.5 -93.5t-40.5 -84q-55 -84 -154 -84l-10 -5q-60 11 -66 50l10 16l74 -14 q47 0 81 36.5t51 92.5q30 104 30 192.5t-25.5 167t-61.5 143.5l-72 130q-87 157 -87 309q0 78 28 149q51 131 134 131q23 0 50.5 -17.5t27.5 -39.5q0 -16 -27 -16zM317 1313v-2h2q0 2 -2 2z" />
<glyph unicode="t" horiz-adv-x="544" d="M418 1284l-111 14l-10 -12l4 -8q-4 -8 -4 -117t34 -509.5t34 -600.5q0 -15 -12 -27t-27 -12l-23 17l-4 149l4 72q0 28 -8 49q0 174 -24.5 507t-26.5 492q-161 0 -172 39q9 23 39 23l278 -19l37 2q37 0 37 -26q0 -14 -15 -23.5t-30 -9.5z" />
<glyph unicode="u" horiz-adv-x="651" d="M520 920l2 -41q-4 -52 -5.5 -140t-3 -167t-5.5 -171t-16 -165q-28 -174 -91 -232q-68 -64 -159 -13q-39 22 -65.5 55t-42.5 212.5t-19 378.5q-9 598 -19 682l13 29q47 -6 47 -113l6 -543l22 -434q0 -233 154 -233q95 0 120 429q2 29 9.5 277t7.5 598l-4 37q0 23 29.5 23 t35 -13.5t5.5 -121t-13 -158.5q2 -4 2 -13z" />
<glyph unicode="v" horiz-adv-x="714" d="M602 1395q23 -7 23 -26t-5 -49t-14 -68.5t-13.5 -60t-35 -156t-41.5 -206.5t-24 -205.5t-19 -177.5t-25.5 -119.5t-23.5 -97.5t-6 -56.5t-6 -65t-12 -62.5q-16 -70 -64 -70l-23 19q0 334 -182 1136q-3 14 -17 64q-38 136 -38 145t9 18t20 9t23 -17.5t20 -46t14 -55.5 t11 -54.5t12.5 -56.5t19.5 -82.5t21.5 -97.5t21 -105.5t18.5 -97t18 -104.5t16 -96.5t16.5 -104.5t14 -96.5t15 -105t14.5 -99.5q42 139 70 393t82 522.5t63 321.5zM358 141l-2 -4l2 -4v8zM301 1106v-4h-2q0 4 2 4z" />
<glyph unicode="w" horiz-adv-x="847" d="M592 -68q-35 0 -35 91q-4 54 -22 154t-22 131t-20 225q-40 485 -75 520q-21 -231 -21 -283t-8.5 -137.5t-29.5 -222t-23.5 -155t-6.5 -58t-9.5 -75t-13.5 -76.5q-16 -89 -42 -89q-31 0 -47.5 91.5t-26.5 261.5t-14 204.5t-22 156t-21.5 171t-7 125.5t-6.5 123 q-8 133 -41 221q9 16 27.5 16t27.5 -12.5t12.5 -34t4.5 -40.5q2 -38 4.5 -82.5t45 -392.5t46.5 -534q6 -15 10.5 -55.5t11.5 -54.5h2q23 150 28.5 196t15.5 118t14 112t10 101q9 93 13.5 224t16 210t11.5 106l37 16q13 0 24 -7.5t11 -17.5t-5 -20q94 -318 114 -737 q7 -160 36 -236q27 75 43 357.5t16 393.5t13.5 217t13.5 143.5t-8 50.5q0 32 41 32q17 0 22.5 -4t5.5 -38t-10 -70l4 -13q-18 -81 -18 -145t4 -70l-12 -41l6 -14q-6 -12 -6 -19.5t6 -43.5l-6 -9q0 -74 -16.5 -322.5t-21.5 -286.5t-15.5 -81t-10.5 -67q0 -224 -55 -224z M596 178v-2h2q0 2 -2 2z" />
<glyph unicode="x" horiz-adv-x="518" d="M178 45q0 -51 -31 -51q-38 0 -38 24q0 100 57 319t57 297.5t-54.5 334t-74.5 278.5l2 15q0 13 -9 29t-9 24t13.5 14t26 6t22.5 -19q17 -30 20 -104q26 -69 51.5 -204.5t42.5 -190.5q13 27 33 165t29 251t22 117q5 1 16.5 3t16.5 3l18 -25q-33 -49 -33 -180l2 -25l-2 -2 q-6 -61 -40.5 -224.5t-34.5 -254.5q0 -34 53 -273.5t62 -262t16 -35.5q16 -25 16 -41q0 -29 -31 -29q-14 0 -26 6q-12 49 -38 155q-54 221 -77 343q-23 -34 -45 -214.5t-37 -223.5q4 -8 4 -25zM391 643v-2v2z" />
<glyph unicode="y" horiz-adv-x="561" d="M350 442l2 -325q0 -148 -43 -148q-7 0 -17 8t-13 15q20 50 20 358q0 60 -7.5 171t-8.5 145l-13 26l6 25q-26 60 -96 259q-102 285 -104 331l28 22q20 -3 60 -130.5t78.5 -255.5t54.5 -132l8 37l-4 10q15 18 39.5 145.5t52.5 242t54 114.5t26 -22t-22 -99.5t-41 -141.5 t-28.5 -99t-21.5 -88q-24 -100 -24 -187q10 -25 10 -35l-12 -59z" />
<glyph unicode="z" horiz-adv-x="538" d="M309 12l-121 6q-23 0 -44.5 -11t-28.5 -11q-31 0 -31 31q0 35 24 121q59 214 83 331t38 173t59 196q99 311 99 455l-192 -13q-12 0 -20.5 10.5t-8.5 22.5q0 33 227 33q51 0 51 -33q0 -70 -50 -224.5t-50 -183.5q-11 -56 -62 -227q-128 -426 -130 -625q20 -4 59 -4l86 7 q59 0 59 -27t-47 -27z" />
<glyph unicode="{" d="M90 188l6 215l8 242q0 89 -59 94q-8 3 -8 18.5t16 18.5q51 0 51 96l-14 433q0 115 36 177t95 62q22 0 50 -11t28 -24q0 -22 -33 -22l-41 8q-73 0 -73 -199v-252l6 -157q0 -49 -10.5 -80t-43.5 -49q33 -17 43.5 -47.5t10.5 -79.5l-6 -211v-223q0 -199 73 -199 q59 0 66.5 -8.5t7.5 -18.5q0 -22 -68.5 -22t-104.5 62t-36 177z" />
<glyph unicode="|" horiz-adv-x="514" d="M193 2l-7 -70q0 -20 -26 -20t-29.5 3t-3.5 53.5t12.5 231t12.5 310t16 467t16 429.5t0.5 98.5t2.5 17t6 16.5q11 14 32 14q13 0 13 -22q0 -190 -19.5 -578.5t-19.5 -598t-6 -302.5v-49z" />
<glyph unicode="}" d="M246 1305l-6 -215l-9 -242q0 -89 60 -94q8 -3 8 -18.5t-16 -18.5q-52 0 -52 -96l15 -433q0 -115 -36 -177t-95 -62q-25 0 -51.5 8t-26.5 20q0 23 33 23l41 -2q73 0 73 199v252l-6 157q0 50 10 80.5t43 48.5q-33 17 -43 47t-10 80l6 211v223q0 199 -73 199h-31 q-43 0 -43 21q0 12 26.5 20t51.5 8q59 0 95 -62t36 -177z" />
<glyph unicode="~" horiz-adv-x="653" d="M487 1149l-12 39q6 12 25.5 12t31 -22t11.5 -56.5t-33 -67t-73 -32.5t-77 21.5t-56 41t-52 58.5l-14 6h-37q-3 -12 -21 -25t-18 -25.5t10 -47.5l-22 -31q-13 0 -26 11t-13 24q0 63 32 104t93 41q66 -34 81 -45q15 -30 40 -55t44 -25t25 2l14 -4q5 14 20 23q27 16 27 53z " />
<glyph unicode="&#xa1;" horiz-adv-x="329" d="M88 1483q26 52 59 55q10 1 13 10q51 -3 51 -53q0 -32 -15.5 -54t-40.5 -22t-46 22t-21 42zM150 350l-5 350v492l2 8h27l-6 -10q16 -39 16 -121l-2 -90q0 -164 21.5 -489.5t21.5 -489.5q0 -27 -23.5 -27t-45 17.5t-21.5 38.5z" />
<glyph unicode="&#xa2;" horiz-adv-x="651" d="M365 221l6 -194q0 -12 -8.5 -15t-16.5 2t-8 11l-4 -2q-4 114 -4 180v127q-116 47 -144 73q-56 52 -65 109q-27 120 -27 330q0 312 164 401l-10 127q0 66 26 66l13 -9q-2 -18 -2 -65.5t10 -122.5q8 -3 43 -14t63 -20.5t52 -28.5t24 -34q0 -34 -18 -34t-34.5 24.5t-22 30.5 t-30 13.5t-32.5 17.5h-37l-2 4q0 -131 30.5 -384t30.5 -384l-2 -29q0 -18 17 -32q78 0 127 57q20 23 47 63q22 0 22 -38.5t-71.5 -81.5t-116.5 -43h-18zM162 977q-17 -140 -17 -189q0 -391 162 -391l8 4q0 149 -32 469q-13 215 -33 291q-39 -6 -65.5 -86.5t-22.5 -97.5z" />
<glyph unicode="&#xa3;" horiz-adv-x="757" d="M586 49l-94 6l-7 -4q-38 23 -145 35l-35 4q-56 0 -93.5 -13.5t-98.5 -49.5q-31 6 -31 23t22 33.5t55.5 31.5t41.5 20q37 27 54 102.5t17 147.5t-18 156t-50 190t-44 158l-10 -2q-11 0 -20 7.5t-9 20.5q0 29 26 29l-24 291q0 84 17 181q34 190 104 190h65q44 0 94 -80 t50 -127l-19 -21q-26 0 -35.5 22t-11.5 25v37q-4 5 -13.5 36.5t-27.5 31.5q-31 31 -63 31l-17 -7l-16 -14q-31 0 -53.5 -108.5t-22.5 -163.5v-84q11 -27 12.5 -87.5t4 -103.5t16.5 -43q36 0 107.5 13.5t95.5 13.5q41 0 41 -27q0 -32 -25 -32q-121 0 -219 -19 q6 -14 10.5 -40.5t5.5 -31.5t9 -26t8 -29q0 -55 41 -188t41 -192t-7 -93t-25.5 -86t-23.5 -70q50 0 148.5 -22.5t148.5 -22.5t90 17l29 -21q0 -45 -96 -45z" />
<glyph unicode="&#xa4;" horiz-adv-x="868" d="M383 1264q113 0 221 -74q13 2 34 36.5t46 68.5t49 34l29 -31q-2 -16 -48 -74t-46 -74t45 -154.5t45 -223.5q0 -113 -50 -282q-18 -62 -18 -92.5t19.5 -60.5t39 -53t19.5 -36q0 -29 -27 -29q-55 0 -55 39q-39 70 -43 76q-93 -103 -244 -103q-48 0 -96.5 27.5t-83.5 67.5 q-12 0 -23 -25q-35 -74 -65 -74q-24 0 -32.5 13t-8.5 39q0 4 42 50t48 66q-35 57 -35 160.5t5 191.5t23 193t46 135q0 22 -49 73.5t-49 63.5q0 23 23.5 23t42 -16t36.5 -42.5t29 -35.5q8 6 38 38q80 85 93 85zM313 1075q0 -45 -29 -43q-13 0 -18 -8q-18 -26 -36.5 -151.5 t-18.5 -157.5t4 -56q-6 -25 -6 -79q0 -120 53 -168q0 -66 51.5 -97.5t112.5 -31.5t102 25.5t67 69t45 95t28 109.5q18 108 18 186t-21 192t-53 134q-18 0 -28.5 14t-10.5 33q-21 29 -63 46t-76 17t-85 -41.5t-54 -68.5z" />
<glyph unicode="&#xa5;" horiz-adv-x="942" d="M510 143l2 -53q0 -74 -47 -74q-41 0 -41 25q6 12 16.5 124.5t10.5 141.5l16 467q0 11 -4 23q-98 0 -256 -11q-19 11 -35 39l8 27q162 0 293 8q4 31 4 94q0 27 -22 27l-148 -8q-114 0 -114 37l14 22l160 -2q98 0 110 14v39q-24 14 -100 151.5t-164.5 289t-138.5 192.5v31 q24 8 31.5 8t30 -21.5t48.5 -57t48 -68t45 -68.5t28 -43q2 -18 41.5 -77t42.5 -64.5t17.5 -32.5t26 -47.5t27.5 -47.5q33 -55 48 -57q22 44 38.5 99t35 116.5t36.5 119t38 122.5q45 139 61.5 160.5t33.5 21.5q37 0 37 -30q-40 -94 -93 -277t-81 -258q0 -38 -32 -103t-33 -95 q26 -13 51 -13l221 10q11 0 37 -43q-2 -26 -151 -26h-158l-4 -111h227l39 2q43 0 43 -45q0 -11 -13 -20.5t-24 -9.5h-8l4 2q-30 8 -37 8h-227l-8 -4q0 -109 -15.5 -326.5t-15.5 -327.5z" />
<glyph unicode="&#xa6;" horiz-adv-x="514" d="M238 1530l-11 -316q0 -157 -6 -217v-49l-6 -69q0 -21 -18.5 -21t-22.5 3t-4 13l14 613q0 38 6 47q14 18 35 18q13 0 13 -22zM213 604l-10 -336q0 -128 -6 -176v-49l-7 -70q0 -18 -6.5 -19t-19 -1t-16 3t-3.5 13l11 400l4 192q0 49 13.5 57.5t23.5 8.5t12 -1q4 -2 4 -22z " />
<glyph unicode="&#xa7;" horiz-adv-x="489" d="M303 1305l-43 12q-32 0 -56 -25.5t-36 -63.5q-25 -74 -25 -145.5t33.5 -133t77.5 -123t70 -96.5q65 -86 65 -192.5t-47 -183.5q31 -67 31 -117.5t-9.5 -95.5t-27.5 -91t-51 -76.5t-65 -30.5t-59.5 17.5t-27.5 39.5q0 16 27 16l43 -12q82 0 110 133q6 29 6 80.5t-32.5 116 t-77.5 132.5t-71 106q-64 94 -64 206t45 183q-29 66 -29 120t9.5 99t27.5 91t51 76.5t65 30.5t59.5 -17.5t27.5 -39.5q0 -16 -27 -16zM309 391q27 63 27 123t-20 114.5t-43.5 90.5t-62.5 91t-58 87q-25 -61 -25 -125.5t19.5 -118.5t42 -88.5t62 -89t58.5 -84.5z" />
<glyph unicode="&#xa8;" horiz-adv-x="776" d="M583.5 993.5q-12.5 14.5 -12.5 32t15.5 33.5t33.5 16t32 -16.5t14 -32.5q0 -47 -54 -47q-16 0 -28.5 14.5zM201 1006q0 67 -41 67q-18 0 -33.5 -16.5t-15.5 -34t11 -34.5t28.5 -17t34 9t16.5 26z" />
<glyph unicode="&#xa9;" horiz-adv-x="1157" d="M120 503q-3 37 -12.5 202t-9.5 224.5t3.5 126.5t15 155t30 165.5t51 154.5t74.5 133q96 124 244 124q161 0 272 -115q110 -114 168 -277q62 -178 80 -303q29 -201 29 -337q0 -754 -500 -754q-265 0 -365 171q-63 106 -80 330zM975 475l22 113v305q0 46 -18.5 133.5 t-20.5 97.5q-64 400 -286 553q-10 10 -20 15t-20 12t-14.5 9.5t-14 7.5t-15.5 7t-14 4q-16 5 -33 5q-240 0 -329 -383q-42 -185 -42 -414q0 -82 8 -195t11 -167t6 -92t13 -103.5t23.5 -103.5t39.5 -86t61 -73q86 -63 196 -63t185.5 28.5t126.5 84.5q92 104 137 295 q-2 4 -2 10zM731 1380q57 -77 57 -105t-26 -28q-36 0 -73 82q-14 31 -42.5 56.5t-69.5 25.5t-74 -29t-51 -70t-30.5 -101.5t-17 -108t-8.5 -106t-7 -78.5l4 -9q-8 -27 -8 -59v-44q0 -232 22.5 -304t47.5 -105v-6q24 -27 37 -39.5t42.5 -27.5t65.5 -15t69 17t50 38 q45 54 59 54q31 0 31 -45.5t-75.5 -84t-114.5 -38.5t-64.5 6t-40.5 12.5t-43.5 21.5t-42.5 21q-81 102 -102 233q-15 101 -15 198v122q0 139 15.5 243t28 144.5t32.5 86.5t45 74q60 65 139 65q44 0 73.5 -10t86.5 -87z" />
<glyph unicode="&#xaa;" horiz-adv-x="692" d="M365 817l-54 -2q-14 6 -64 12l-52 -175q-36 -134 -46 -143.5t-27.5 4t-17.5 26.5q41 67 185 672q15 137 25 155l28 -2q25 0 37 12q13 0 25 -8.5t12 -22.5l134 -679q17 -90 17 -126.5t-16 -45.5q-42 0 -51.5 12t-9.5 38.5t-3.5 65t-7 61.5t-12 72.5t-10.5 63.5 q-39 10 -92 10zM263 892l74 -16q85 -8 99 -14h21l-98 420q-56 -250 -96 -390zM558 393q0 -7 -133 -12.5t-184 -5.5t-65 9.5t-14 25.5q0 7 134 12.5t216 5.5q16 0 31 -10.5t15 -24.5z" />
<glyph unicode="&#xab;" horiz-adv-x="741" d="M488.5 -28q-15.5 -7 -24.5 -7t-21 13.5t-26 37t-24 42t-22 43.5t-24 47.5t-50 96t-91 177.5q-124 247 -124 267.5t57.5 165t124.5 309.5t78 194v2q40 106 57 106q38 0 41 -28q-30 -45 -57.5 -117.5t-53.5 -139.5t-98.5 -268.5t-85.5 -220.5q5 -74 271 -536 q88 -154 88 -165.5t-15.5 -18.5zM385 1462h-2h2zM633 0l-27 4h-4q-32 47 -69 131t-48 107l-102 213q-5 11 -21.5 43.5t-23.5 50.5q-6 18 -44 68.5t-38 78t48 141.5t105.5 243.5t64.5 151t16.5 55.5t17.5 59q23 71 49 75l27 -20q-18 -119 -140 -362q-116 -233 -116 -339 q0 -17 141 -304.5t174 -342.5l19 -14q-2 -11 -11 -25t-18 -14z" />
<glyph unicode="&#xac;" horiz-adv-x="497" d="M449 766l-9 -66q0 -117 1 -152q1 -50 -25 -50q-11 0 -23 10t-12 20l-6 199q0 8 -9 10t-42 2h-33l-127 -6h-162q1 0 -1 5q-7 20 -7 32t14 12l135 9l191 6q47 0 67 4q48 -6 48 -35z" />
<glyph unicode="&#xad;" horiz-adv-x="620" d="M508 739q0 -7 -132.5 -12.5t-183.5 -5.5t-65 9.5t-14 25.5q0 7 134 12.5t216 5.5q15 0 30 -10.5t15 -24.5z" />
<glyph unicode="&#xae;" horiz-adv-x="1161" d="M102 715l2 270q0 930 502 930q81 0 162 -53t133 -127q32 -9 40 -46q8 -39 28 -57q0 -44 38 -257q58 -326 58 -455v-66q0 -321 -15 -426.5t-31 -189.5q-32 -170 -108.5 -248.5t-143.5 -117t-151 -38.5t-149 19t-113.5 50.5t-87 80t-64.5 99.5t-45 118t-29.5 126t-16.5 133 q-9 111 -9 255zM172 1042l14 -426q0 -551 202 -662q45 -25 58 -38q35 -14 68 -14l18 -8q260 0 376 230q89 177 89 583q0 588 -123 944l15 16q-20 50 -58 64q-37 39 -61 61q-73 63 -151 63t-144.5 -30t-112 -79.5t-80.5 -119.5t-55.5 -141.5t-32.5 -154.5q-22 -143 -22 -288z M465 913q-6 -78 -6 -146.5t22.5 -262.5t22.5 -254.5t-6.5 -71t-26.5 -10.5t-34.5 11t-14.5 30q0 176 -5 233t-17.5 126.5t-12.5 107.5v399q0 63 -12.5 187.5t-12.5 183.5t11 91t37 49q42 26 117 26t111 -14.5t58.5 -41.5t37.5 -58t22 -73q12 -72 12 -148t-14.5 -126.5 t-35 -76t-41.5 -43t-35.5 -32t-14.5 -31.5t46 -186q134 -491 142 -491v-2l31 -90q0 -15 -39 -31q-60 0 -127 316q-10 49 -19.5 78t-34.5 134q-58 244 -73 244q-16 0 -42.5 -13.5t-45.5 -13.5zM438 1415q0 -440 34.5 -440t112 63.5t92.5 108.5t15 99t-0.5 71t-3 49.5t-7 53.5 t-14 47.5t-23.5 42.5q-32 38 -97.5 38t-87 -25.5t-21.5 -107.5z" />
<glyph unicode="&#xaf;" horiz-adv-x="620" d="M507 716.5q-1 -14.5 -130 -14.5h-122.5t-66.5 1t-31.5 3t-22.5 6q-21 6 -21 23q2 17 131 17h116q118 0 133 -10.5t14 -25z" />
<glyph unicode="&#xb0;" horiz-adv-x="868" d="M313.5 1213.5q-12.5 -46.5 -12.5 -87.5t36 -81.5t84.5 -40.5t79.5 18t45 46q27 53 27 112.5t-41.5 105t-113.5 45.5q-37 0 -64.5 -35.5t-40 -82zM305.5 1024q-49.5 59 -49.5 110t15 104.5t52 96.5t105 43t126 -55t58 -133q0 -225 -190 -225q-67 0 -116.5 59z" />
<glyph unicode="&#xb1;" horiz-adv-x="620" d="M541 236q0 -7 -134 -13t-184 -6t-64 9.5t-14 25.5q0 7 134.5 12.5t182.5 5.5q79 0 79 -34zM401 389q0 -33 -43 -33q-12 0 -27.5 9t-15.5 20v64l4 106q0 60 -29 65q-14 3 -40 3l-90 -11q-60 0 -60 43q0 29 23 29l108 -6q84 0 84 16l-10 205q0 24 8.5 34.5t32.5 10.5 q37 0 37 -35l-8 -20l8 -162q0 -29 13.5 -39t43.5 -10l123 6q64 0 64 -35t-35 -35l-125 7q-65 0 -71 -11q-13 -22 -13 -58t9 -86t9 -77z" />
<glyph unicode="&#xb2;" horiz-adv-x="571" d="M428 2l-299 -18q-20 0 -35.5 11t-15.5 30q35 44 69 139.5t41 109.5q117 256 175.5 488t58.5 487q0 295 -127 295q-28 -12 -44.5 -42.5t-20.5 -59.5q-8 -76 -35 -76t-27 37t11 76.5t37 72.5t60 33q86 0 139 -65t56 -154l-4 -4l6 -150q0 -167 -46 -408t-110 -384 q-5 -12 -52 -109q-109 -225 -111 -270l16 -2q71 13 246 22l30 -32z" />
<glyph unicode="&#xb3;" horiz-adv-x="589" d="M315 844l-20 -2q-23 0 -39 8v8l-10 10q1 7 21.5 31t45 53.5t44.5 78.5t20 91t-2 78.5t-9.5 92t-20.5 96.5t-39 71.5t-60 30.5t-56.5 -18.5t-30.5 -40.5q-22 -58 -48 -58q-12 0 -23 8.5t-12 20.5q32 65 72 101t85 36q74 0 111 -49l6 -2q82 -119 82 -387q0 -50 -37 -115 q-9 -6 -33.5 -47t-33.5 -51q80 -32 112 -124q22 -65 35 -148t22 -123q13 -57 13 -110t-1 -79.5t-5 -67.5t-11 -71t-21 -63.5t-33 -54.5q-44 -50 -101 -50t-100 20t-43 56l16 10q25 -2 52 -22t36 -25q156 0 156 260q0 233 -32 347q-34 121 -108 200z" />
<glyph unicode="&#xb4;" horiz-adv-x="497" d="M135 1309q-37 0 -37 30q0 12 121.5 105.5t132.5 103.5q45 0 45 -32q0 -1 -6 -31q-103 -46 -256 -176z" />
<glyph unicode="&#xb5;" horiz-adv-x="743" d="M627 426l2 -129q0 -173 -45 -255q-19 -34 -55 -57.5t-85 -23.5q-160 0 -229 197v-113q4 -10 4 -31l-2 -45l19 -184q0 -16 -15 -24.5t-29.5 -8.5t-24 11t-9.5 24l-2 31l-2 123l-4 204l-11 357q-1 153 -21 469t-20 477l-14 43q0 14 10.5 27.5t24.5 13.5q51 0 51 -150 l18 -692q8 -10 10 -49q10 -142 19 -182q-4 -24 -4 -52t19.5 -94t51 -130t78.5 -110t84 -46t55 8t28 17.5t16.5 31.5t8.5 33.5t4 41t1.5 36t-0.5 18.5l6 68v233l-14 123l-12 367v26l-9 12q9 58 9 117l-19 348q0 16 14.5 24.5t30.5 8.5l35 -33l-6 -16l6 -16l-14 -123l20 -369 l10 -356l7 -2q-2 -14 -2 -43l6 -144l6 -6z" />
<glyph unicode="&#xb6;" horiz-adv-x="937" d="M784 264l13 -229q0 -14 -10.5 -23.5t-24.5 -9.5q-51 0 -51 100l18 1074l-14 446l2 66q0 50 -19 77t-75 27q-23 0 -23 -111t13.5 -347.5t13.5 -332.5t-2 -180.5t-4 -143.5t-7 -164t-8 -143q-14 -229 -18 -313q4 -8 4 -16t-13.5 -17.5t-25.5 -9.5q-39 0 -39 41 q0 151 21.5 454t21.5 454l-4 157h-172q-29 12 -73.5 25t-71 22.5t-56.5 27.5q-58 35 -82 130q-2 7 -3.5 30t-8.5 34q0 157 62 271q37 66 92 97q27 15 80 29.5t73.5 23t51 12.5t68 5t56.5 4q11 20 49 20l80 -16q31 0 47 4q11 -13 41 -17t53 -9.5t23 -22.5q0 -29 -41 -29 q-15 0 -39 4l15 -624zM535 1696l2 57q-19 19 -120.5 19t-184 -100t-82.5 -201t24.5 -157.5t72.5 -87.5q87 -55 247 -55q38 0 48.5 8.5t10.5 32.5z" />
<glyph unicode="&#xb7;" horiz-adv-x="327" d="M126.5 711.5q-13.5 15.5 -13.5 35t16.5 37t35.5 17.5t34.5 -17.5t15.5 -35.5q0 -52 -57 -52q-18 0 -31.5 15.5z" />
<glyph unicode="&#xb8;" horiz-adv-x="468" d="M250 -190l-55 -7q-31 0 -56 41q17 39 17 117v23l59 8q-8 -47 -8 -103q149 -10 149 -206q0 -48 -46.5 -105t-108.5 -57q-29 0 -58.5 14.5t-29.5 38t22 23.5q13 0 33 -10.5t39 -10.5t41 29t22 55l-6 29q0 6 9 11.5t10 6.5q0 53 -8 71.5t-25 31.5z" />
<glyph unicode="&#xb9;" horiz-adv-x="606" d="M481 14l-252 -8q-14 0 -23 9t-9 22l10 20l55 -2q29 0 40 13t11 43q0 258 -13 470q-15 240 -46 703l2 70q0 60 -19 94.5t-75 34.5l-47 -4q-35 0 -35 22q0 29 180 29q14 0 23.5 -10t9.5 -23h4q-6 -30 -6 -78.5t15.5 -177.5t15.5 -219t17 -318.5t17 -291t-4 -78.5 q13 -52 13 -232l-3 -30l9 -6l92 6q63 0 63 -29t-45 -29z" />
<glyph unicode="&#xba;" horiz-adv-x="729" d="M607 826q0 -162 -148 -263q-36 -25 -81 -25q-242 0 -242 349q0 31 2.5 76t39.5 257q11 61 66 94q31 19 83 19t115 -11q41 -7 79 -79q81 -130 86 -417zM202 954q4 -356 167 -356q175 0 175 244q0 304 -64 368q-83 84 -135 84q-125 0 -143 -340zM552 449q0 -7 -132.5 -12.5 t-183.5 -5.5t-65 9.5t-14 25.5q0 7 134 12.5t216 5.5q15 0 30 -10.5t15 -24.5z" />
<glyph unicode="&#xbb;" horiz-adv-x="741" d="M139 4l-30 -4q-9 0 -18 14t-11 25l18 14q36 65 176 347.5t140 299.5q0 106 -116 339q-122 243 -140 362l26 20q28 -6 50 -75q7 -24 16.5 -58.5t16.5 -56t65 -150.5q153 -344 153 -378t-37.5 -85t-44.5 -69.5t-24 -51t-21 -42.5l-176 -365q-37 -77 -43 -86zM356 1462h2h-2 zM601.5 854.5q57.5 -144.5 57.5 -157.5t-36 -92t-89 -183q-76 -151 -114 -224t-50 -97t-22 -43.5t-24 -42.5q-29 -50 -45 -50q-10 0 -25.5 7t-15.5 18.5t88 165.5q265 464 270 536q-13 19 -85.5 220.5t-98.5 268.5t-40 104t-22 56q-27 64 -49 97q3 28 41 28q17 0 57 -106v-2 q11 -29 78 -194t124.5 -309.5z" />
<glyph unicode="&#xbc;" horiz-adv-x="1691" d="M481 14l-252 -8q-14 0 -23 9t-9 22l10 20l55 -2q29 0 40 13t11 43q0 258 -13 470q-15 240 -46 703l2 70q0 60 -19 94.5t-75 34.5l-47 -4q-35 0 -35 22q0 29 180 29q14 0 23.5 -10t9.5 -23h4q-6 -30 -6 -78.5t15.5 -177.5t15.5 -219t17 -318.5t17 -291t-4 -78.5 q13 -52 13 -232l-3 -30l9 -6l92 6q63 0 63 -29t-45 -29zM1085 1505q0 -17 -20 -99.5t-33 -142t-219 -964.5l-41 -178q-2 -7 -6 -28.5t-7 -34.5t-9 -29q-12 -33 -37 -35q-21 14 -21 47.5t10.5 89.5t33 142t93.5 401t131.5 545.5t63 241.5t6 22t7.5 23q9 26 18 26q30 0 30 -27 zM1620 567q0 -30 -58 -25q-21 2 -39 -8t-18 -50t6 -178t13 -154q-2 -8 -2 -39.5t8 -44.5l-6 -25l6 -14v-29l-33 -25l-31 13v73l-2 5q9 37 9 73l-15 209l4 92q0 80 -20 90l-121 -12q-27 0 -38.5 9.5t-16.5 13.5v6q0 15 10 65l-19 41l19 101l20 401v326l-8 51q0 27 31 27 t31 -29l-9 -164q0 -30 7 -70l-5 -6q5 -45 5 -94t-12.5 -221t-12.5 -258l14 -60l-14 -55q0 -39 19.5 -39t55 6t48.5 13q0 99 -7.5 283t-15.5 239t-8 76q0 32 39 32l19 -22l12 -289q0 -63 5.5 -186.5t14.5 -132.5l76 8q39 0 39 -23z" />
<glyph unicode="&#xbd;" horiz-adv-x="1736" d="M481 14l-252 -8q-14 0 -23 9t-9 22l10 20l55 -2q29 0 40 13t11 43q0 258 -13 470q-15 240 -46 703l2 70q0 60 -19 94.5t-75 34.5l-47 -4q-35 0 -35 22q0 29 180 29q14 0 23.5 -10t9.5 -23h4q-6 -30 -6 -78.5t15.5 -177.5t15.5 -219t17 -318.5t17 -291t-4 -78.5 q13 -52 13 -232l-3 -30l9 -6l92 6q63 0 63 -29t-45 -29zM1085 1505q0 -17 -20 -99.5t-33 -142t-219 -964.5l-41 -178q-2 -7 -6 -28.5t-7 -34.5t-9 -29q-12 -33 -37 -35q-21 14 -21 47.5t10.5 89.5t33 142t93.5 401t131.5 545.5t63 241.5t6 22t7.5 23q9 26 18 26q30 0 30 -27 zM1593 2l-299 -18q-20 0 -35.5 11t-15.5 30q35 44 70 140.5t41 108.5q117 255 175 487t58 488q0 295 -127 295q-28 -12 -44.5 -42.5t-19.5 -59.5q-9 -76 -36 -76t-27 37t11 76.5t37.5 72.5t60.5 33q86 0 138.5 -65t55.5 -154l-4 -4l6 -150q0 -168 -45.5 -408.5 t-109.5 -383.5q-6 -13 -53 -109q-109 -227 -111 -270l16 -2q71 13 246 22l31 -32z" />
<glyph unicode="&#xbe;" horiz-adv-x="1675" d="M315 844l-20 -2q-23 0 -39 8v8l-10 10q1 7 21.5 31t45 53.5t44.5 78.5t20 91t-2 78.5t-9.5 92t-20.5 96.5t-39 71.5t-60 30.5t-56.5 -18.5t-30.5 -40.5q-22 -58 -48 -58q-12 0 -23 8.5t-12 20.5q32 65 72 101t85 36q74 0 111 -49l6 -2q82 -119 82 -387q0 -50 -37 -115 q-9 -6 -33.5 -47t-33.5 -51q80 -32 112 -124q22 -65 35 -148t22 -123q13 -57 13 -110t-1 -79.5t-5 -67.5t-11 -71t-21 -63.5t-33 -54.5q-44 -50 -101 -50t-100 20t-43 56l16 10q25 -2 52 -22t36 -25q156 0 156 260q0 233 -32 347q-34 121 -108 200zM1038 1532q31 0 31 -27 q0 -17 -20 -99.5t-33 -142t-219 -964.5l-41 -178q-2 -7 -6 -28.5t-7.5 -34.5t-9.5 -30q-12 -32 -37 -34q-20 13 -20 47t10.5 90t33 142t93.5 401t131.5 545.5t63 241.5t5.5 22t7 23q9 26 18 26zM1604 567q0 -30 -58 -25q-21 2 -39 -8t-18 -51t5.5 -178t12.5 -153 q-2 -8 -2 -39.5t8 -44.5l-6 -25l6 -14v-29l-32 -25l-31 13v73l-2 5q8 33 8 73l-14 209l4 92q0 80 -21 90l-120 -12q-27 0 -39 9.5t-17 13.5v6q0 10 11 65l-19 41l19 101l20 401v326l-8 51q0 27 30.5 27t30.5 -29l-8 -164q0 -36 6 -70l-4 -6q4 -36 4 -57l-24 -516l14 -60 l-14 -55q0 -39 19.5 -39t55 6t48.5 13q0 74 -8 270.5t-15.5 251.5t-7.5 76q0 32 39 32l18 -22l12 -289q0 -60 6 -185t15 -134l76 8q39 0 39 -23z" />
<glyph unicode="&#xbf;" horiz-adv-x="464" d="M354 241q15 -77 15 -117.5t-6 -68.5t-19 -53q-28 -56 -104.5 -56t-98.5 44q-45 90 -45 206.5t15.5 207t36.5 171t41 173.5q47 222 36 534q1 -2 4 0q10 6 21 6q18 0 23 -24q0 -307 -39 -559q-9 -51 -33 -149q-51 -216 -51 -335q0 -107 21.5 -168.5t51.5 -61.5h23 q72 0 72 127q0 28 -15 123l25 8q23 2 26 -8zM281.5 1516.5q13.5 -15.5 13.5 -34.5t-16.5 -36.5t-35.5 -17.5t-34.5 17.5t-15.5 35.5q0 51 57 51q18 0 31.5 -15.5z" />
<glyph unicode="&#xc0;" d="M210 1747q-20 -4 -33 -4q-70 0 -70 41q0 36 13 45q74 0 92 -23q2 -1 24.5 -8.5t38.5 -13.5t42.5 -16.5t46 -19.5t38.5 -19q39 -22 39 -39q0 -7 -8.5 -12t-14 -5t-102.5 34.5t-106 39.5zM567 600l23 -534v-22q0 -24 -6 -30q-16 -14 -35 -14t-31 10t-12 25q6 12 6 24l-6 41 v203q0 27 -108 46.5t-160 19.5q-20 0 -36 -74.5t-31 -163.5t-30 -111q-48 0 -63 25q32 46 61.5 224t47.5 258.5t64.5 349.5t63 344.5t25.5 111.5t23 85q33 118 59 118q32 0 42.5 -14.5t18 -68t15 -136t13.5 -151.5q19 -216 23.5 -284t18.5 -98q-4 -62 -4 -106.5t18 -77.5z M231 426q86 -29 207 -29q25 0 37 4l10 -4q19 0 19 19q0 428 -80 923q-1 6 -4.5 22t-3.5 25q-25 -71 -27 -90l6 -12q-7 -7 -23 -70.5t-44.5 -262t-41 -255t-26.5 -102.5q-29 -102 -29 -156v-12z" />
<glyph unicode="&#xc1;" d="M274 1674q-37 0 -37 30q0 12 121.5 105.5t132.5 103.5q45 0 45 -32q0 -1 -6 -31q-103 -46 -256 -176zM567 600l23 -534v-22q0 -24 -6 -30q-16 -14 -35 -14t-31 10t-12 25q6 12 6 24l-6 41v203q0 27 -108 46.5t-160 19.5q-20 0 -36 -74.5t-31 -163.5t-30 -111 q-48 0 -63 25q32 46 61.5 224t47.5 258.5t64.5 349.5t63 344.5t25.5 111.5t23 85q33 118 59 118q32 0 42.5 -14.5t18 -68t15 -136t13.5 -151.5q19 -216 23.5 -284t18.5 -98q-4 -62 -4 -106.5t18 -77.5zM231 426q86 -29 207 -29q25 0 37 4l10 -4q19 0 19 19q0 428 -80 923 q-1 6 -4.5 22t-3.5 25q-25 -71 -27 -90l6 -12q-7 -7 -23 -70.5t-44.5 -262t-41 -255t-26.5 -102.5q-29 -102 -29 -156v-12z" />
<glyph unicode="&#xc2;" d="M519 1673l-27 17q-10 124 -59 307q-26 -66 -55 -156t-31 -110l-35 -47l-37 26q2 45 71.5 195.5t99.5 150.5t30 -41.5t9.5 -80t27 -86.5t24.5 -74l-2 -13l15 -30l-2 -11q8 -16 8 -22q0 -19 -37 -25zM567 600l23 -534v-22q0 -24 -6 -30q-16 -14 -35 -14t-31 10t-12 25 q6 12 6 24l-6 41v203q0 27 -108 46.5t-160 19.5q-20 0 -36 -74.5t-31 -163.5t-30 -111q-48 0 -63 25q32 46 61.5 224t47.5 258.5t64.5 349.5t63 344.5t25.5 111.5t23 85q33 118 59 118q32 0 42.5 -14.5t18 -68t15 -136t13.5 -151.5q19 -216 23.5 -284t18.5 -98 q-4 -62 -4 -106.5t18 -77.5zM231 426q86 -29 207 -29q25 0 37 4l10 -4q19 0 19 19q0 428 -80 923q-1 6 -4.5 22t-3.5 25q-25 -71 -27 -90l6 -12q-7 -7 -23 -70.5t-44.5 -262t-41 -255t-26.5 -102.5q-29 -102 -29 -156v-12z" />
<glyph unicode="&#xc3;" d="M574 1802l-12 39q6 12 25.5 12t31 -22t11.5 -56.5t-33 -67t-73 -32.5t-77 21.5t-56 41t-52 58.5l-14 6h-37q-3 -12 -21 -25t-18 -25.5t10 -47.5l-22 -31q-13 0 -26 11t-13 24q0 63 32 104t93 41q66 -34 81 -45q15 -30 40 -55t44 -25t25 2l14 -4q5 14 20 23q27 16 27 53z M567 600l23 -534v-22q0 -24 -6 -30q-16 -14 -35 -14t-31 10t-12 25q6 12 6 24l-6 41v203q0 27 -108 46.5t-160 19.5q-20 0 -36 -74.5t-31 -163.5t-30 -111q-48 0 -63 25q32 46 61.5 224t47.5 258.5t64.5 349.5t63 344.5t25.5 111.5t23 85q33 118 59 118q32 0 42.5 -14.5 t18 -68t15 -136t13.5 -151.5q19 -216 23.5 -284t18.5 -98q-4 -62 -4 -106.5t18 -77.5zM231 426q86 -29 207 -29q25 0 37 4l10 -4q19 0 19 19q0 428 -80 923q-1 6 -4.5 22t-3.5 25q-25 -71 -27 -90l6 -12q-7 -7 -23 -70.5t-44.5 -262t-41 -255t-26.5 -102.5 q-29 -102 -29 -156v-12z" />
<glyph unicode="&#xc4;" d="M610.5 1695.5q-12.5 14.5 -12.5 32t15.5 33.5t33.5 16t32 -16.5t14 -32.5q0 -47 -54 -47q-16 0 -28.5 14.5zM228 1708q0 67 -41 67q-18 0 -33.5 -16.5t-15.5 -34t11 -34.5t28.5 -17t34 9t16.5 26zM567 600l23 -534v-22q0 -24 -6 -30q-16 -14 -35 -14t-31 10t-12 25 q6 12 6 24l-6 41v203q0 27 -108 46.5t-160 19.5q-20 0 -36 -74.5t-31 -163.5t-30 -111q-48 0 -63 25q32 46 61.5 224t47.5 258.5t64.5 349.5t63 344.5t25.5 111.5t23 85q33 118 59 118q32 0 42.5 -14.5t18 -68t15 -136t13.5 -151.5q19 -216 23.5 -284t18.5 -98 q-4 -62 -4 -106.5t18 -77.5zM231 426q86 -29 207 -29q25 0 37 4l10 -4q19 0 19 19q0 428 -80 923q-1 6 -4.5 22t-3.5 25q-25 -71 -27 -90l6 -12q-7 -7 -23 -70.5t-44.5 -262t-41 -255t-26.5 -102.5q-29 -102 -29 -156v-12z" />
<glyph unicode="&#xc5;" d="M331 1596.5q-30 33.5 -30 77t37 84t79 40.5t78.5 -39.5t36.5 -88t-36.5 -78t-85.5 -29.5t-79 33.5zM371.5 1734q-23.5 -25 -23.5 -47t2.5 -37.5t13.5 -31.5t32.5 -16t52 17t30.5 47t-14.5 61.5t-42 31.5t-51 -25zM567 600l23 -534v-22q0 -24 -6 -30q-16 -14 -35 -14 t-31 10t-12 25q6 12 6 24l-6 41v203q0 27 -108 46.5t-160 19.5q-20 0 -36 -74.5t-31 -163.5t-30 -111q-48 0 -63 25q32 46 61.5 224t47.5 258.5t64.5 349.5t63 344.5t25.5 111.5t23 85q33 118 59 118q32 0 42.5 -14.5t18 -68t15 -136t13.5 -151.5q19 -216 23.5 -284 t18.5 -98q-4 -62 -4 -106.5t18 -77.5zM231 426q86 -29 207 -29q25 0 37 4l10 -4q19 0 19 19q0 428 -80 923q-1 6 -4.5 22t-3.5 25q-25 -71 -27 -90l6 -12q-7 -7 -23 -70.5t-44.5 -262t-41 -255t-26.5 -102.5q-29 -102 -29 -156v-12z" />
<glyph unicode="&#xc6;" horiz-adv-x="923" d="M799 57q45 0 45 -26q0 -35 -194 -38q-73 -1 -80.5 -5t-23.5 -16t-28 -13l-29 29q17 113 17 241l-10 392l-11 14q-8 -2 -64 -6q-142 -10 -147 -29l-102 -391q0 -1 -13 -63q-30 -144 -59 -144q-7 0 -11.5 9t-4.5 16q2 98 107.5 511t242.5 855q27 92 48.5 121.5t45.5 29.5 l158 10q64 0 64 -32l-13 -25q-100 0 -202 -12l14 -305l-6 -478l10 -12l162 21l28 -35q0 -35 -118 -35h-82l8 -487l-2 -84q0 -35 18 -35zM489 1393q-18 -22 -106.5 -350t-93.5 -379q128 4 205 24q1 53 4.5 214.5t3.5 275.5t-13 215z" />
<glyph unicode="&#xc7;" d="M454 -199l-55 -7q-31 0 -56 41q17 39 17 117v23l59 8q-8 -47 -8 -103q149 -10 149 -206q0 -48 -46.5 -105t-108.5 -57q-29 0 -58.5 14.5t-29.5 38t22 23.5q13 0 33 -10.5t39 -10.5t41 29t22 55l-6 29q0 6 9 11.5t10 6.5q0 53 -8 71.5t-25 31.5zM170 1008l-18 -148 q0 -121 27 -404t55 -326q54 -83 161.5 -83t157.5 59q19 0 47 7l10 -11q0 -98 -156 -128q-37 -7 -83.5 -7t-109.5 46t-89 102t-51 348t-25 514t13 262q-7 35 -7 66q0 123 88 191.5t216 68.5q35 0 76.5 -22t41.5 -54q0 -23 -32 -23q-9 0 -25 12.5t-26.5 12.5t-22.5 -4 q-24 8 -49 8t-60.5 -10.5t-59 -27t-40 -44.5t-25.5 -53.5t-14 -65.5q-6 -57 -6 -141zM403 1475h-4h4z" />
<glyph unicode="&#xc8;" horiz-adv-x="497" d="M65 1747q-20 -4 -33 -4q-70 0 -70 41q0 36 13 45q74 0 92 -23q2 -1 24.5 -8.5t38.5 -13.5t42.5 -16.5t46 -19.5t38.5 -19q39 -22 39 -39q0 -7 -8.5 -12t-14 -5t-102.5 34.5t-106 39.5zM199 61l123 7q96 0 96 -33q-17 -30 -61 -38.5t-85 -8.5h-48q-92 0 -106 14.5 t-14 30.5l19 76v4q-8 41 -8 90l10 209l-12 438l10 407q0 37 -13 109.5t-14 106.5l37 57l143 18l7 -6q48 0 55.5 -12.5t7.5 -26.5q0 -39 -74 -39l-55 4q-45 0 -45 -24l16 -348l-10 -256l-4 -4l12 -7l113 21q11 0 24 -11.5t13 -23.5q0 -41 -31 -41l-47 2q-78 0 -78 -39 l15 -172l-7 -12v-416q11 -13 11 -57v-19z" />
<glyph unicode="&#xc9;" horiz-adv-x="497" d="M200 1674q-37 0 -37 30q0 12 121.5 105.5t132.5 103.5q45 0 45 -32q0 -1 -6 -31q-103 -46 -256 -176zM199 61l123 7q96 0 96 -33q-17 -30 -61 -38.5t-85 -8.5h-48q-92 0 -106 14.5t-14 30.5l19 76v4q-8 41 -8 90l10 209l-12 438l10 407q0 37 -13 109.5t-14 106.5l37 57 l143 18l7 -6q48 0 55.5 -12.5t7.5 -26.5q0 -39 -74 -39l-55 4q-45 0 -45 -24l16 -348l-10 -256l-4 -4l12 -7l113 21q11 0 24 -11.5t13 -23.5q0 -41 -31 -41l-47 2q-78 0 -78 -39l15 -172l-7 -12v-416q11 -13 11 -57v-19z" />
<glyph unicode="&#xca;" horiz-adv-x="497" d="M303 1673l-27 17q-10 124 -59 307q-26 -66 -55 -156t-31 -110l-35 -47l-37 26q2 45 71.5 195.5t99.5 150.5t30 -41.5t9.5 -80t27 -86.5t24.5 -74l-2 -13l15 -30l-2 -11q8 -16 8 -22q0 -19 -37 -25zM199 61l123 7q96 0 96 -33q-17 -30 -61 -38.5t-85 -8.5h-48 q-92 0 -106 14.5t-14 30.5l19 76v4q-8 41 -8 90l10 209l-12 438l10 407q0 37 -13 109.5t-14 106.5l37 57l143 18l7 -6q48 0 55.5 -12.5t7.5 -26.5q0 -39 -74 -39l-55 4q-45 0 -45 -24l16 -348l-10 -256l-4 -4l12 -7l113 21q11 0 24 -11.5t13 -23.5q0 -41 -31 -41l-47 2 q-78 0 -78 -39l15 -172l-7 -12v-416q11 -13 11 -57v-19z" />
<glyph unicode="&#xcb;" horiz-adv-x="497" d="M393.5 1695.5q-12.5 14.5 -12.5 32t15.5 33.5t33.5 16t32 -16.5t14 -32.5q0 -47 -54 -47q-16 0 -28.5 14.5zM11 1708q0 67 -41 67q-18 0 -33.5 -16.5t-15.5 -34t11 -34.5t28.5 -17t34 9t16.5 26zM199 61l123 7q96 0 96 -33q-17 -30 -61 -38.5t-85 -8.5h-48 q-92 0 -106 14.5t-14 30.5l19 76v4q-8 41 -8 90l10 209l-12 438l10 407q0 37 -13 109.5t-14 106.5l37 57l143 18l7 -6q48 0 55.5 -12.5t7.5 -26.5q0 -39 -74 -39l-55 4q-45 0 -45 -24l16 -348l-10 -256l-4 -4l12 -7l113 21q11 0 24 -11.5t13 -23.5q0 -41 -31 -41l-47 2 q-78 0 -78 -39l15 -172l-7 -12v-416q11 -13 11 -57v-19z" />
<glyph unicode="&#xcc;" horiz-adv-x="477" d="M94 1747q-20 -4 -33 -4q-70 0 -70 41q0 36 13 45q74 0 92 -23q2 -1 24.5 -8.5t38.5 -13.5t42.5 -16.5t46 -19.5t38.5 -19q39 -22 39 -39q0 -7 -8.5 -12t-14 -5t-102.5 34.5t-106 39.5zM360 8l-65 10q-23 0 -47 -24q-46 0 -58 16h-5q-94 0 -109 35q0 23 47 23l45 -2 q41 0 42 59t-5.5 144t-8 169t-11.5 327t-13 349l2 240q0 99 -6 119l-70 -15q-22 0 -22 28.5t90 47t122 18.5q54 0 54 -33.5t-25 -33.5l-49 2q-35 0 -42 -33q-7 -27 -7 -159t25.5 -523t25.5 -588l-2 -106l74 6q53 0 53 -51z" />
<glyph unicode="&#xcd;" horiz-adv-x="477" d="M176 1674q-37 0 -37 30q0 12 121.5 105.5t132.5 103.5q45 0 45 -32q0 -1 -6 -31q-103 -46 -256 -176zM360 8l-65 10q-23 0 -47 -24q-46 0 -58 16h-5q-94 0 -109 35q0 23 47 23l45 -2q41 0 42 59t-5.5 144t-8 169t-11.5 327t-13 349l2 240q0 99 -6 119l-70 -15 q-22 0 -22 28.5t90 47t122 18.5q54 0 54 -33.5t-25 -33.5l-49 2q-35 0 -42 -33q-7 -27 -7 -159t25.5 -523t25.5 -588l-2 -106l74 6q53 0 53 -51z" />
<glyph unicode="&#xce;" horiz-adv-x="477" d="M278 1673l-27 17q-10 124 -59 307q-26 -66 -55 -156t-31 -110l-35 -47l-37 26q2 45 71.5 195.5t99.5 150.5t30 -41.5t9.5 -80t27 -86.5t24.5 -74l-2 -13l15 -30l-2 -11q8 -16 8 -22q0 -19 -37 -25zM360 8l-65 10q-23 0 -47 -24q-46 0 -58 16h-5q-94 0 -109 35q0 23 47 23 l45 -2q41 0 42 59t-5.5 144t-8 169t-11.5 327t-13 349l2 240q0 99 -6 119l-70 -15q-22 0 -22 28.5t90 47t122 18.5q54 0 54 -33.5t-25 -33.5l-49 2q-35 0 -42 -33q-7 -27 -7 -159t25.5 -523t25.5 -588l-2 -106l74 6q53 0 53 -51z" />
<glyph unicode="&#xcf;" horiz-adv-x="477" d="M369.5 1695.5q-12.5 14.5 -12.5 32t15.5 33.5t33.5 16t32 -16.5t14 -32.5q0 -47 -54 -47q-16 0 -28.5 14.5zM-13 1708q0 67 -41 67q-18 0 -33.5 -16.5t-15.5 -34t11 -34.5t28.5 -17t34 9t16.5 26zM360 8l-65 10q-23 0 -47 -24q-46 0 -58 16h-5q-94 0 -109 35q0 23 47 23 l45 -2q41 0 42 59t-5.5 144t-8 169t-11.5 327t-13 349l2 240q0 99 -6 119l-70 -15q-22 0 -22 28.5t90 47t122 18.5q54 0 54 -33.5t-25 -33.5l-49 2q-35 0 -42 -33q-7 -27 -7 -159t25.5 -523t25.5 -588l-2 -106l74 6q53 0 53 -51z" />
<glyph unicode="&#xd0;" horiz-adv-x="839" d="M199 1196l-17 367q0 8 12.5 25.5t20.5 17.5q171 0 348 -246q42 -59 74 -119v-4q96 -271 96 -588q0 -134 -49.5 -281.5t-146 -275t-215.5 -180.5q-9 4 -24 8q-25 7 -36 31h-2q0 271 -18 651q-10 126 -17 152l-125 -13q-17 0 -22.5 8.5t-5.5 27t36 28t72 9.5l37 -1l8 4 l2 10q0 61 -14 184t-14 185zM301 821l141 23q17 0 29 -16t14 -33l-20 -25q-104 0 -168 -14q0 -32 5.5 -162.5t8.5 -142.5l-2 -2q0 -73 10.5 -221.5t10.5 -221.5q27 6 39 18t21 21.5t13 13.5q103 101 179.5 262t76.5 281.5t-1 177.5q-5 168 -42 307q-33 161 -124.5 284.5 t-235.5 166.5l-4 -4q0 -129 14.5 -407t34.5 -306z" />
<glyph unicode="&#xd1;" horiz-adv-x="772" d="M515 1827l-12 39q6 12 25.5 12t31 -22t11.5 -56.5t-33 -67t-73 -32.5t-77 21.5t-56 41t-52 58.5l-14 6h-37q-3 -12 -21 -25t-18 -25.5t10 -47.5l-22 -31q-13 0 -26 11t-13 24q0 63 32 104t93 41q66 -34 81 -45q15 -30 40 -55t44 -25t25 2l14 -4q5 14 20 23q27 16 27 53z M621 111l6 -74q0 -60 -52 -60q-36 0 -49 77q-7 36 -8 40q-200 631 -252 922q-2 9 -3 28q-2 41 -19 58l4 10q-13 76 -19.5 105.5t-14.5 66.5q-14 65 -36 117q-6 -42 -6 -64t4 -34q-14 -48 -14 -142v-561q0 -98 14 -292t14 -292l-14 -16h-47l-6 16q4 16 4 82l-23 713v268 l15 387l-2 43q0 26 13.5 34.5t35 8.5t37.5 -12.5t16 -39.5t9 -59t26 -71.5t26.5 -72t17.5 -104t19 -126.5t36 -148t57.5 -206t41.5 -148.5t24 -90.5q32 -114 34 -161q14 -21 21.5 -81t33.5 -82q13 29 13 98l8 713l-6 317l6 78q0 22 -6 26l6 17q0 126 -8 168q8 28 51 28 q33 0 33 -67q-13 -26 -13 -68l2 -69q0 -44 -8 -62l-6 -647q0 -19 4 -55l-4 -9v-258l4 -77q0 -122 -20 -168v-4z" />
<glyph unicode="&#xd2;" d="M97 1747q-20 -4 -33 -4q-70 0 -70 41q0 36 13 45q74 0 92 -23q2 -1 24.5 -8.5t38.5 -13.5t42.5 -16.5t46 -19.5t38.5 -19q39 -22 39 -39q0 -7 -8.5 -12t-14 -5t-102.5 34.5t-106 39.5zM586 618l-19 -264l4 -8q-16 -69 -16 -124t-22 -113.5t-65.5 -105t-93.5 -46.5t-93 38 t-71.5 97.5t-50 141t-33.5 160t-20 162.5q-12 140 -12 242.5t9 233.5t10 169t2 67t5 69.5t10.5 71t19.5 62.5t32 53q42 47 117.5 47t124.5 -41q7 -11 36.5 -49t44 -72.5t32.5 -169.5q49 -350 49 -621zM303 1518q-151 0 -151 -607v-80q0 -142 21.5 -305.5t45 -265.5t66 -174 t94.5 -72q70 0 102 142.5t38 253.5q7 152 7 198v49q0 38 -0.5 64.5t-1.5 87t-4 107.5t-8 114t-14 119.5t-20.5 112t-28 102.5t-37.5 80q-43 74 -109 74z" />
<glyph unicode="&#xd3;" d="M304 1674q-37 0 -37 30q0 12 121.5 105.5t132.5 103.5q45 0 45 -32q0 -1 -6 -31q-103 -46 -256 -176zM586 618l-19 -264l4 -8q-16 -69 -16 -124t-22 -113.5t-65.5 -105t-93.5 -46.5t-93 38t-71.5 97.5t-50 141t-33.5 160t-20 162.5q-12 140 -12 242.5t9 233.5t10 169 t2 67t5 69.5t10.5 71t19.5 62.5t32 53q42 47 117.5 47t124.5 -41q7 -11 36.5 -49t44 -72.5t32.5 -169.5q49 -350 49 -621zM303 1518q-151 0 -151 -607v-80q0 -142 21.5 -305.5t45 -265.5t66 -174t94.5 -72q70 0 102 142.5t38 253.5q7 152 7 198v49q0 38 -0.5 64.5t-1.5 87 t-4 107.5t-8 114t-14 119.5t-20.5 112t-28 102.5t-37.5 80q-43 74 -109 74z" />
<glyph unicode="&#xd4;" d="M406 1673l-27 17q-10 124 -59 307q-26 -66 -55 -156t-31 -110l-35 -47l-37 26q2 45 71.5 195.5t99.5 150.5t30 -41.5t9.5 -80t27 -86.5t24.5 -74l-2 -13l15 -30l-2 -11q8 -16 8 -22q0 -19 -37 -25zM586 618l-19 -264l4 -8q-16 -69 -16 -124t-22 -113.5t-65.5 -105 t-93.5 -46.5t-93 38t-71.5 97.5t-50 141t-33.5 160t-20 162.5q-12 140 -12 242.5t9 233.5t10 169t2 67t5 69.5t10.5 71t19.5 62.5t32 53q42 47 117.5 47t124.5 -41q7 -11 36.5 -49t44 -72.5t32.5 -169.5q49 -350 49 -621zM303 1518q-151 0 -151 -607v-80q0 -142 21.5 -305.5 t45 -265.5t66 -174t94.5 -72q70 0 102 142.5t38 253.5q7 152 7 198v49q0 38 -0.5 64.5t-1.5 87t-4 107.5t-8 114t-14 119.5t-20.5 112t-28 102.5t-37.5 80q-43 74 -109 74z" />
<glyph unicode="&#xd5;" d="M462 1802l-12 39q6 12 25.5 12t31 -22t11.5 -56.5t-33 -67t-73 -32.5t-77 21.5t-56 41t-52 58.5l-14 6h-37q-3 -12 -21 -25t-18 -25.5t10 -47.5l-22 -31q-13 0 -26 11t-13 24q0 63 32 104t93 41q66 -34 81 -45q15 -30 40 -55t44 -25t25 2l14 -4q5 14 20 23q27 16 27 53z M586 618l-19 -264l4 -8q-16 -69 -16 -124t-22 -113.5t-65.5 -105t-93.5 -46.5t-93 38t-71.5 97.5t-50 141t-33.5 160t-20 162.5q-12 140 -12 242.5t9 233.5t10 169t2 67t5 69.5t10.5 71t19.5 62.5t32 53q42 47 117.5 47t124.5 -41q7 -11 36.5 -49t44 -72.5t32.5 -169.5 q49 -350 49 -621zM303 1518q-151 0 -151 -607v-80q0 -142 21.5 -305.5t45 -265.5t66 -174t94.5 -72q70 0 102 142.5t38 253.5q7 152 7 198v49q0 38 -0.5 64.5t-1.5 87t-4 107.5t-8 114t-14 119.5t-20.5 112t-28 102.5t-37.5 80q-43 74 -109 74z" />
<glyph unicode="&#xd6;" d="M497.5 1695.5q-12.5 14.5 -12.5 32t15.5 33.5t33.5 16t32 -16.5t14 -32.5q0 -47 -54 -47q-16 0 -28.5 14.5zM115 1708q0 67 -41 67q-18 0 -33.5 -16.5t-15.5 -34t11 -34.5t28.5 -17t34 9t16.5 26zM586 618l-19 -264l4 -8q-16 -69 -16 -124t-22 -113.5t-65.5 -105 t-93.5 -46.5t-93 38t-71.5 97.5t-50 141t-33.5 160t-20 162.5q-12 140 -12 242.5t9 233.5t10 169t2 67t5 69.5t10.5 71t19.5 62.5t32 53q42 47 117.5 47t124.5 -41q7 -11 36.5 -49t44 -72.5t32.5 -169.5q49 -350 49 -621zM303 1518q-151 0 -151 -607v-80q0 -142 21.5 -305.5 t45 -265.5t66 -174t94.5 -72q70 0 102 142.5t38 253.5q7 152 7 198v49q0 38 -0.5 64.5t-1.5 87t-4 107.5t-8 114t-14 119.5t-20.5 112t-28 102.5t-37.5 80q-43 74 -109 74z" />
<glyph unicode="&#xd7;" horiz-adv-x="727" d="M516 430l-45 43q-13 12 -40 43q-59 68 -77.5 68t-38.5 -20t-35 -44q-42 -63 -79 -63q-11 0 -26 10t-15 19.5t16.5 26t42.5 38.5t35.5 31.5t26 32t16.5 32.5q-17 17 -63 55q-107 90 -107 115q0 10 13.5 25.5t28 15.5t24.5 -10l10 -21q127 -127 150 -127t54.5 36t64.5 72 t50.5 36t28 -10t10.5 -25t-36.5 -49t-72.5 -67t-36 -51t26 -43t57 -45q83 -54 83 -83q0 -17 -14.5 -32t-30 -15t-21.5 6z" />
<glyph unicode="&#xd8;" horiz-adv-x="602" d="M485 831l7 -387q0 -142 -8.5 -192t-17.5 -92t-24.5 -71t-35.5 -55q-42 -54 -115 -54t-103 40h-2q-14 -88 -53 -284l-31 24q1 35 23 142t37 209q0 14 -8.5 38.5t-13 51t-10 73.5t-10 86t-7.5 93.5t-5.5 86.5t-4 94t-2 87t-1 94t-0.5 87v179q0 488 150 488q10 0 31 -11.5 t28 -11.5l8 4l11 -10q13 39 53 258h37l-2 -59l-43 -248q0 -25 30 -59l-2 -5q4 -18 16 -38q38 -57 38 -160l-4 -2q0 -61 15 -188t15 -189v-12zM302.5 817q-33.5 -397 -60.5 -538t-27 -176q0 -80 90 -80q133 0 133 376q0 845 -73 990q-29 -175 -62.5 -572zM297 1497 q-20 16 -37 16t-41 -12l-12 4q-64 -39 -64 -653q0 -104 19 -147q0 -71 12 -215t12 -216q14 19 36 234t34 340q22 210 31 307t15 143q15 104 15 143.5t-20 55.5z" />
<glyph unicode="&#xd9;" horiz-adv-x="743" d="M129 1747q-20 -4 -33 -4q-70 0 -70 41q0 36 13 45q74 0 92 -23q2 -1 24.5 -8.5t38.5 -13.5t42.5 -16.5t46 -19.5t38.5 -19q39 -22 39 -39q0 -7 -8.5 -12t-14 -5t-102.5 34.5t-106 39.5zM627 426l2 -129q0 -173 -45 -255q-19 -34 -55 -57.5t-93 -23.5t-105 30.5t-74 76.5 t-45.5 107t-27.5 115q-23 142 -45 183q0 163 -20.5 487.5t-20.5 487.5l-14 43q0 14 10.5 27.5t24.5 13.5q51 0 51 -150l18 -692q8 -10 10 -49q10 -142 19 -182q-4 -24 -4 -52t19.5 -94t51 -130t78.5 -110t84 -46t55 8t28 17.5t16.5 31.5t8.5 33.5t4 41t1.5 36t-0.5 18.5 l6 68v233l-14 123l-12 367v26l-9 12q9 58 9 117l-19 348q0 16 14.5 24.5t30.5 8.5l35 -33l-6 -16l6 -16l-14 -123l20 -369l10 -356l7 -2q-2 -14 -2 -43l6 -144l6 -6z" />
<glyph unicode="&#xda;" horiz-adv-x="743" d="M336 1674q-37 0 -37 30q0 12 121.5 105.5t132.5 103.5q45 0 45 -32q0 -1 -6 -31q-103 -46 -256 -176zM627 426l2 -129q0 -173 -45 -255q-19 -34 -55 -57.5t-93 -23.5t-105 30.5t-74 76.5t-45.5 107t-27.5 115q-23 142 -45 183q0 163 -20.5 487.5t-20.5 487.5l-14 43 q0 14 10.5 27.5t24.5 13.5q51 0 51 -150l18 -692q8 -10 10 -49q10 -142 19 -182q-4 -24 -4 -52t19.5 -94t51 -130t78.5 -110t84 -46t55 8t28 17.5t16.5 31.5t8.5 33.5t4 41t1.5 36t-0.5 18.5l6 68v233l-14 123l-12 367v26l-9 12q9 58 9 117l-19 348q0 16 14.5 24.5t30.5 8.5 l35 -33l-6 -16l6 -16l-14 -123l20 -369l10 -356l7 -2q-2 -14 -2 -43l6 -144l6 -6z" />
<glyph unicode="&#xdb;" horiz-adv-x="743" d="M438 1673l-27 17q-10 124 -59 307q-26 -66 -55 -156t-31 -110l-35 -47l-37 26q2 45 71.5 195.5t99.5 150.5t30 -41.5t9.5 -80t27 -86.5t24.5 -74l-2 -13l15 -30l-2 -11q8 -16 8 -22q0 -19 -37 -25zM627 426l2 -129q0 -173 -45 -255q-19 -34 -55 -57.5t-93 -23.5 t-105 30.5t-74 76.5t-45.5 107t-27.5 115q-23 142 -45 183q0 163 -20.5 487.5t-20.5 487.5l-14 43q0 14 10.5 27.5t24.5 13.5q51 0 51 -150l18 -692q8 -10 10 -49q10 -142 19 -182q-4 -24 -4 -52t19.5 -94t51 -130t78.5 -110t84 -46t55 8t28 17.5t16.5 31.5t8.5 33.5t4 41 t1.5 36t-0.5 18.5l6 68v233l-14 123l-12 367v26l-9 12q9 58 9 117l-19 348q0 16 14.5 24.5t30.5 8.5l35 -33l-6 -16l6 -16l-14 -123l20 -369l10 -356l7 -2q-2 -14 -2 -43l6 -144l6 -6z" />
<glyph unicode="&#xdc;" horiz-adv-x="743" d="M529.5 1695.5q-12.5 14.5 -12.5 32t15.5 33.5t33.5 16t32 -16.5t14 -32.5q0 -47 -54 -47q-16 0 -28.5 14.5zM147 1708q0 67 -41 67q-18 0 -33.5 -16.5t-15.5 -34t11 -34.5t28.5 -17t34 9t16.5 26zM627 426l2 -129q0 -173 -45 -255q-19 -34 -55 -57.5t-93 -23.5t-105 30.5 t-74 76.5t-45.5 107t-27.5 115q-23 142 -45 183q0 163 -20.5 487.5t-20.5 487.5l-14 43q0 14 10.5 27.5t24.5 13.5q51 0 51 -150l18 -692q8 -10 10 -49q10 -142 19 -182q-4 -24 -4 -52t19.5 -94t51 -130t78.5 -110t84 -46t55 8t28 17.5t16.5 31.5t8.5 33.5t4 41t1.5 36 t-0.5 18.5l6 68v233l-14 123l-12 367v26l-9 12q9 58 9 117l-19 348q0 16 14.5 24.5t30.5 8.5l35 -33l-6 -16l6 -16l-14 -123l20 -369l10 -356l7 -2q-2 -14 -2 -43l6 -144l6 -6z" />
<glyph unicode="&#xdd;" horiz-adv-x="505" d="M241 1674q-37 0 -37 30q0 12 121.5 105.5t132.5 103.5q45 0 45 -32q0 -1 -6 -31q-103 -46 -256 -176zM289 -25q-29 0 -29 50l10 395l-14 166q0 33 -12.5 96t-12.5 87t-5.5 53t-15.5 70t-14.5 63.5t-23.5 122.5q-41 209 -69.5 304.5t-28.5 121.5q0 42 41 42l24 -16 q5 -83 53.5 -323t75.5 -277q32 94 44 235.5t20 214.5q18 160 57 160q31 0 31 -22q0 -16 -8 -44.5t-11.5 -50.5t-23 -131t-28.5 -164q-27 -163 -27 -299l6 -67l-13 -31v-16l15 -246q0 -277 -4 -414l6 -6l2 -14q0 -23 -11.5 -41.5t-33.5 -18.5z" />
<glyph unicode="&#xde;" horiz-adv-x="540" d="M190 537l11 -486q0 -30 -8.5 -46.5t-35 -16.5t-26.5 71l2 258l-4 252q0 118 -8 299t-9.5 218t-8.5 132.5t-8 126.5t-1 50l2 135q0 12 15 16l34 -6q2 -28 4.5 -81t4.5 -81v-2q166 -3 246 -171q46 -95 46 -201t-43 -230q-53 -153 -137 -192q-26 -11 -37 -22 q-20 -18 -39 -23zM162 1317v-53q1 -112 13.5 -330t14.5 -322q21 2 31.5 11.5t20.5 20.5t14 15q133 133 133 334q0 163 -69 229q-29 29 -73 60.5t-48 34.5h-37z" />
<glyph unicode="&#xdf;" horiz-adv-x="616" d="M180 809l10 -760q0 -61 -38.5 -61t-38.5 28l10 519l-14 731q0 270 155 270q79 0 121.5 -90.5t42.5 -231.5q0 -235 -131 -360q96 -49 146.5 -149t50.5 -232v-47q0 -235 -81 -326q-38 -42 -98 -73q-12 -4 -23 -4t-24.5 7.5t-13.5 23.5t25 34q35 17 78.5 50t50.5 59 q26 50 27 92t1 93t-8 112t-27 126q-42 145 -145 191q-13 6 -23 20t-10 23.5t1.5 14t3.5 7.5t6 5.5t6 3.5q8 4 14 4q43 13 82 117.5t39 205t-32 177.5t-77 77q-94 0 -94 -211l8 -368v-78z" />
<glyph unicode="&#xe0;" horiz-adv-x="667" d="M181 1552q-20 -4 -33 -4q-70 0 -70 41q0 36 13 45q74 0 92 -23q2 -1 24.5 -8.5t38.5 -13.5t42.5 -16.5t46 -19.5t38.5 -19q39 -22 39 -39q0 -7 -8.5 -12t-14 -5t-102.5 34.5t-106 39.5zM367 305l-54 -2q-29 12 -64 12t-38 -2t-4 -7t-2 -7l-4 -41q-4 -52 -19 -125 q-28 -143 -59 -143q-13 0 -27 11t-14 24q26 77 54 233t35 194.5t26 155.5t25 154t32.5 160t32 161t12.5 103q17 160 27 178l28 -2q25 0 37 12q13 0 25 -8.5t12 -22.5q0 -98 25 -379t39.5 -363.5t33.5 -162t19 -121.5l-10 -28q0 -46 17 -135.5t17 -126t-16 -45.5 q-42 0 -51.5 12t-9.5 38.5t-3.5 65t-7 61.5t-12 72.5t-10.5 63.5q-39 10 -92 10zM223 406q0 -21 49 -35q75 -21 166 -21h21q-13 40 -13 92v47q0 127 -31.5 370t-33.5 362q-107 -529 -132.5 -653.5t-25.5 -161.5z" />
<glyph unicode="&#xe1;" horiz-adv-x="667" d="M271 1479q-37 0 -37 30q0 12 121.5 105.5t132.5 103.5q45 0 45 -32q0 -1 -6 -31q-103 -46 -256 -176zM367 305l-54 -2q-29 12 -64 12t-38 -2t-4 -7t-2 -7l-4 -41q-4 -52 -19 -125q-28 -143 -59 -143q-13 0 -27 11t-14 24q26 77 54 233t35 194.5t26 155.5t25 154t32.5 160 t32 161t12.5 103q17 160 27 178l28 -2q25 0 37 12q13 0 25 -8.5t12 -22.5q0 -98 25 -379t39.5 -363.5t33.5 -162t19 -121.5l-10 -28q0 -46 17 -135.5t17 -126t-16 -45.5q-42 0 -51.5 12t-9.5 38.5t-3.5 65t-7 61.5t-12 72.5t-10.5 63.5q-39 10 -92 10zM223 406q0 -21 49 -35 q75 -21 166 -21h21q-13 40 -13 92v47q0 127 -31.5 370t-33.5 362q-107 -529 -132.5 -653.5t-25.5 -161.5z" />
<glyph unicode="&#xe2;" horiz-adv-x="667" d="M489 1478l-27 17q-10 124 -59 307q-26 -66 -55 -156t-31 -110l-35 -47l-37 26q2 45 71.5 195.5t99.5 150.5t30 -41.5t9.5 -80t27 -86.5t24.5 -74l-2 -13l15 -30l-2 -11q8 -16 8 -22q0 -19 -37 -25zM367 305l-54 -2q-29 12 -64 12t-38 -2t-4 -7t-2 -7l-4 -41 q-4 -52 -19 -125q-28 -143 -59 -143q-13 0 -27 11t-14 24q26 77 54 233t35 194.5t26 155.5t25 154t32.5 160t32 161t12.5 103q17 160 27 178l28 -2q25 0 37 12q13 0 25 -8.5t12 -22.5q0 -98 25 -379t39.5 -363.5t33.5 -162t19 -121.5l-10 -28q0 -46 17 -135.5t17 -126 t-16 -45.5q-42 0 -51.5 12t-9.5 38.5t-3.5 65t-7 61.5t-12 72.5t-10.5 63.5q-39 10 -92 10zM223 406q0 -21 49 -35q75 -21 166 -21h21q-13 40 -13 92v47q0 127 -31.5 370t-33.5 362q-107 -529 -132.5 -653.5t-25.5 -161.5z" />
<glyph unicode="&#xe3;" horiz-adv-x="667" d="M545 1608l-12 39q6 12 25.5 12t31 -22t11.5 -56.5t-33 -67t-73 -32.5t-77 21.5t-56 41t-52 58.5l-14 6h-37q-3 -12 -21 -25t-18 -25.5t10 -47.5l-22 -31q-13 0 -26 11t-13 24q0 63 32 104t93 41q66 -34 81 -45q15 -30 40 -55t44 -25t25 2l14 -4q5 14 20 23q27 16 27 53z M367 305l-54 -2q-29 12 -64 12t-38 -2t-4 -7t-2 -7l-4 -41q-4 -52 -19 -125q-28 -143 -59 -143q-13 0 -27 11t-14 24q26 77 54 233t35 194.5t26 155.5t25 154t32.5 160t32 161t12.5 103q17 160 27 178l28 -2q25 0 37 12q13 0 25 -8.5t12 -22.5q0 -98 25 -379t39.5 -363.5 t33.5 -162t19 -121.5l-10 -28q0 -46 17 -135.5t17 -126t-16 -45.5q-42 0 -51.5 12t-9.5 38.5t-3.5 65t-7 61.5t-12 72.5t-10.5 63.5q-39 10 -92 10zM223 406q0 -21 49 -35q75 -21 166 -21h21q-13 40 -13 92v47q0 127 -31.5 370t-33.5 362q-107 -529 -132.5 -653.5 t-25.5 -161.5z" />
<glyph unicode="&#xe4;" horiz-adv-x="667" d="M580.5 1501.5q-12.5 14.5 -12.5 32t15.5 33.5t33.5 16t32 -16.5t14 -32.5q0 -47 -54 -47q-16 0 -28.5 14.5zM198 1514q0 67 -41 67q-18 0 -33.5 -16.5t-15.5 -34t11 -34.5t28.5 -17t34 9t16.5 26zM367 305l-54 -2q-29 12 -64 12t-38 -2t-4 -7t-2 -7l-4 -41 q-4 -52 -19 -125q-28 -143 -59 -143q-13 0 -27 11t-14 24q26 77 54 233t35 194.5t26 155.5t25 154t32.5 160t32 161t12.5 103q17 160 27 178l28 -2q25 0 37 12q13 0 25 -8.5t12 -22.5q0 -98 25 -379t39.5 -363.5t33.5 -162t19 -121.5l-10 -28q0 -46 17 -135.5t17 -126 t-16 -45.5q-42 0 -51.5 12t-9.5 38.5t-3.5 65t-7 61.5t-12 72.5t-10.5 63.5q-39 10 -92 10zM223 406q0 -21 49 -35q75 -21 166 -21h21q-13 40 -13 92v47q0 127 -31.5 370t-33.5 362q-107 -529 -132.5 -653.5t-25.5 -161.5z" />
<glyph unicode="&#xe5;" horiz-adv-x="667" d="M297 1512.5q-30 33.5 -30 77t37 84t79 40.5t78.5 -39.5t36.5 -88t-36.5 -78t-85.5 -29.5t-79 33.5zM337.5 1650q-23.5 -25 -23.5 -47t2.5 -37.5t13.5 -31.5t32.5 -16t52 17t30.5 47t-14.5 61.5t-42 31.5t-51 -25zM367 305l-54 -2q-29 12 -64 12t-38 -2t-4 -7t-2 -7 l-4 -41q-4 -52 -19 -125q-28 -143 -59 -143q-13 0 -27 11t-14 24q26 77 54 233t35 194.5t26 155.5t25 154t32.5 160t32 161t12.5 103q17 160 27 178l28 -2q25 0 37 12q13 0 25 -8.5t12 -22.5q0 -98 25 -379t39.5 -363.5t33.5 -162t19 -121.5l-10 -28q0 -46 17 -135.5 t17 -126t-16 -45.5q-42 0 -51.5 12t-9.5 38.5t-3.5 65t-7 61.5t-12 72.5t-10.5 63.5q-39 10 -92 10zM223 406q0 -21 49 -35q75 -21 166 -21h21q-13 40 -13 92v47q0 127 -31.5 370t-33.5 362q-107 -529 -132.5 -653.5t-25.5 -161.5z" />
<glyph unicode="&#xe6;" horiz-adv-x="923" d="M549 -12l-31 -2l-29 28q17 96 17 215l-10 371l-11 14q-8 -2 -63 -6q-143 -8 -148 -28l-102 -371q0 -1 -13 -63q-30 -144 -59 -144q-7 0 -11.5 9t-4.5 16q2 98 82 405q110 350 268 764l4 12l2 9q37 131 88 131l158 2q64 0 64 -33l-13 -25h-102q-67 0 -100 -4l6 -313 l2 -293l10 -12q55 20 162 20l28 -35q0 -34 -145 -34h-55l8 -467l-2 -84q0 -35 18 -35l232 22q45 0 45 -26q0 -35 -194 -38q-73 -1 -85 -7q-6 2 -16 2zM494 948l2 137v78q0 49 -2 74q-18 -19 -109 -286.5t-96 -307.5q90 0 205 25v280z" />
<glyph unicode="&#xe7;" horiz-adv-x="550" d="M390 -199l-55 -7q-31 0 -56 41q17 39 17 117v23l59 8q-8 -47 -8 -103q149 -10 149 -206q0 -48 -46.5 -105t-108.5 -57q-29 0 -58.5 14.5t-29.5 38t22 23.5q13 0 33 -10.5t39 -10.5t41 29t22 55l-6 29q0 6 9 11.5t10 6.5q0 53 -8 71.5t-25 31.5zM174 827l-8 -413 q0 -173 33 -248q38 -88 97 -114q38 -17 77.5 -17t60.5 18q31 0 31 -22q0 -16 -27.5 -35.5t-50.5 -28.5h-68q-13 7 -48 18t-64.5 32.5t-55.5 71t-37 115.5q-18 108 -18 242v234q0 273 20 374q40 205 109 259q18 14 55.5 28.5t51.5 22.5h82q2 0 5.5 -1t5.5 -1.5t5.5 -1.5 t5 -1.5t4.5 -2t4 -2.5q9 -9 9 -21l-27 -30h-86q-42 0 -73 -39.5t-47.5 -93.5t-26.5 -125q-15 -107 -15 -207z" />
<glyph unicode="&#xe8;" horiz-adv-x="491" d="M14 1552q-20 -4 -33 -4q-70 0 -70 41q0 36 13 45q74 0 92 -23q2 -1 24.5 -8.5t38.5 -13.5t42.5 -16.5t46 -19.5t38.5 -19q39 -22 39 -39q0 -7 -8.5 -12t-14 -5t-102.5 34.5t-106 39.5zM109 16l2 52l-7 8q15 41 15 84l-10 270l14 617l-8 245q0 58 59 58q23 0 33 -13 q7 -2 59 -8q126 -14 129 -51q0 -16 -39 -39q-113 37 -166 39l-10 -12q2 -29 2 -88l-8 -318q0 -57 29 -57l69 4q78 0 80 -37q0 -21 -10.5 -37t-37.5 -16t-40 16l-67 10h-9l-10 -10v-6q4 -53 4 -162l-4 -291q0 -204 28 -226q18 -15 66 -15l76 4q60 0 60 -27q0 -37 -89 -37 h-169q-38 0 -41 43z" />
<glyph unicode="&#xe9;" horiz-adv-x="491" d="M220 1479q-37 0 -37 30q0 12 121.5 105.5t132.5 103.5q45 0 45 -32q0 -1 -6 -31q-103 -46 -256 -176zM109 16l2 52l-7 8q15 41 15 84l-10 270l14 617l-8 245q0 58 59 58q23 0 33 -13q7 -2 59 -8q126 -14 129 -51q0 -16 -39 -39q-113 37 -166 39l-10 -12q2 -29 2 -88 l-8 -318q0 -57 29 -57l69 4q78 0 80 -37q0 -21 -10.5 -37t-37.5 -16t-40 16l-67 10h-9l-10 -10v-6q4 -53 4 -162l-4 -291q0 -204 28 -226q18 -15 66 -15l76 4q60 0 60 -27q0 -37 -89 -37h-169q-38 0 -41 43z" />
<glyph unicode="&#xea;" horiz-adv-x="491" d="M323 1478l-27 17q-10 124 -59 307q-26 -66 -55 -156t-31 -110l-35 -47l-37 26q2 45 71.5 195.5t99.5 150.5t30 -41.5t9.5 -80t27 -86.5t24.5 -74l-2 -13l15 -30l-2 -11q8 -16 8 -22q0 -19 -37 -25zM109 16l2 52l-7 8q15 41 15 84l-10 270l14 617l-8 245q0 58 59 58 q23 0 33 -13q7 -2 59 -8q126 -14 129 -51q0 -16 -39 -39q-113 37 -166 39l-10 -12q2 -29 2 -88l-8 -318q0 -57 29 -57l69 4q78 0 80 -37q0 -21 -10.5 -37t-37.5 -16t-40 16l-67 10h-9l-10 -10v-6q4 -53 4 -162l-4 -291q0 -204 28 -226q18 -15 66 -15l76 4q60 0 60 -27 q0 -37 -89 -37h-169q-38 0 -41 43z" />
<glyph unicode="&#xeb;" horiz-adv-x="491" d="M413.5 1501.5q-12.5 14.5 -12.5 32t15.5 33.5t33.5 16t32 -16.5t14 -32.5q0 -47 -54 -47q-16 0 -28.5 14.5zM31 1514q0 67 -41 67q-18 0 -33.5 -16.5t-15.5 -34t11 -34.5t28.5 -17t34 9t16.5 26zM109 16l2 52l-7 8q15 41 15 84l-10 270l14 617l-8 245q0 58 59 58 q23 0 33 -13q7 -2 59 -8q126 -14 129 -51q0 -16 -39 -39q-113 37 -166 39l-10 -12q2 -29 2 -88l-8 -318q0 -57 29 -57l69 4q78 0 80 -37q0 -21 -10.5 -37t-37.5 -16t-40 16l-67 10h-9l-10 -10v-6q4 -53 4 -162l-4 -291q0 -204 28 -226q18 -15 66 -15l76 4q60 0 60 -27 q0 -37 -89 -37h-169q-38 0 -41 43z" />
<glyph unicode="&#xec;" horiz-adv-x="550" d="M36 1552q-20 -4 -33 -4q-70 0 -70 41q0 36 13 45q74 0 92 -23q2 -1 24.5 -8.5t38.5 -13.5t42.5 -16.5t46 -19.5t38.5 -19q39 -22 39 -39q0 -7 -8.5 -12t-14 -5t-102.5 34.5t-106 39.5zM424 16l-68 7q-16 0 -38 -11.5t-52.5 -11.5t-38.5 20l-34 -2q-44 0 -56 21 q0 13 11.5 21.5t15.5 13.5h59l8 8l7 43l-15 448l10 478q0 139 -10 237q-20 6 -61 6l-49 -4q-39 0 -39 35q0 9 18.5 17t30.5 8q285 0 285 -62q0 -6 -5 -16l-47 -4q-16 12 -59 12l-10 -6q6 -18 6 -109l-6 -487l14 -449l-2 -63q0 -48 6 -57l-2 -5q0 -20 45 -20l60 2 q61 0 61 -29q0 -18 -13 -29.5t-32 -11.5z" />
<glyph unicode="&#xed;" horiz-adv-x="550" d="M242 1479q-37 0 -37 30q0 12 121.5 105.5t132.5 103.5q45 0 45 -32q0 -1 -6 -31q-103 -46 -256 -176zM424 16l-68 7q-16 0 -38 -11.5t-52.5 -11.5t-38.5 20l-34 -2q-44 0 -56 21q0 13 11.5 21.5t15.5 13.5h59l8 8l7 43l-15 448l10 478q0 139 -10 237q-20 6 -61 6l-49 -4 q-39 0 -39 35q0 9 18.5 17t30.5 8q285 0 285 -62q0 -6 -5 -16l-47 -4q-16 12 -59 12l-10 -6q6 -18 6 -109l-6 -487l14 -449l-2 -63q0 -48 6 -57l-2 -5q0 -20 45 -20l60 2q61 0 61 -29q0 -18 -13 -29.5t-32 -11.5z" />
<glyph unicode="&#xee;" horiz-adv-x="550" d="M345 1478l-27 17q-10 124 -59 307q-26 -66 -55 -156t-31 -110l-35 -47l-37 26q2 45 71.5 195.5t99.5 150.5t30 -41.5t9.5 -80t27 -86.5t24.5 -74l-2 -13l15 -30l-2 -11q8 -16 8 -22q0 -19 -37 -25zM424 16l-68 7q-16 0 -38 -11.5t-52.5 -11.5t-38.5 20l-34 -2 q-44 0 -56 21q0 13 11.5 21.5t15.5 13.5h59l8 8l7 43l-15 448l10 478q0 139 -10 237q-20 6 -61 6l-49 -4q-39 0 -39 35q0 9 18.5 17t30.5 8q285 0 285 -62q0 -6 -5 -16l-47 -4q-16 12 -59 12l-10 -6q6 -18 6 -109l-6 -487l14 -449l-2 -63q0 -48 6 -57l-2 -5q0 -20 45 -20 l60 2q61 0 61 -29q0 -18 -13 -29.5t-32 -11.5z" />
<glyph unicode="&#xef;" horiz-adv-x="550" d="M435.5 1501.5q-12.5 14.5 -12.5 32t15.5 33.5t33.5 16t32 -16.5t14 -32.5q0 -47 -54 -47q-16 0 -28.5 14.5zM53 1514q0 67 -41 67q-18 0 -33.5 -16.5t-15.5 -34t11 -34.5t28.5 -17t34 9t16.5 26zM424 16l-68 7q-16 0 -38 -11.5t-52.5 -11.5t-38.5 20l-34 -2q-44 0 -56 21 q0 13 11.5 21.5t15.5 13.5h59l8 8l7 43l-15 448l10 478q0 139 -10 237q-20 6 -61 6l-49 -4q-39 0 -39 35q0 9 18.5 17t30.5 8q285 0 285 -62q0 -6 -5 -16l-47 -4q-16 12 -59 12l-10 -6q6 -18 6 -109l-6 -487l14 -449l-2 -63q0 -48 6 -57l-2 -5q0 -20 45 -20l60 2 q61 0 61 -29q0 -18 -13 -29.5t-32 -11.5z" />
<glyph unicode="&#xf0;" horiz-adv-x="516" d="M483 1313q0 -6 -88 -17q35 -191 35 -481v-8q0 -196 -10 -438q-3 -22 -8.5 -107.5t-15 -132.5t-24.5 -80q-34 -78 -112 -78q-125 0 -138 139q-3 26 -3 65.5t0.5 74.5t3 104.5t8.5 124t15.5 123.5t25.5 120t38 97q43 94 122 94q21 0 45 -16q-7 226 -33 391 q-114 -12 -136 -12t-22 8q0 29 23 29q59 0 131 10q-24 142 -61 174q-6 5 -25 13q-45 19 -45 40q0 7 8.5 13t15.5 6q106 0 158 -240q54 4 74 4t20 -10zM377 727v117q-21 16 -62 24q-67 0 -100 -156q-33 -157 -39 -275q-8 -184 -8 -263q0 -162 76 -162q42 0 56.5 15t21 24 t10.5 27.5t5.5 27.5t3.5 31.5t3 28.5q33 267 33 561z" />
<glyph unicode="&#xf1;" horiz-adv-x="862" d="M559 1608l-12 39q6 12 25.5 12t31 -22t11.5 -56.5t-33 -67t-73 -32.5t-77 21.5t-56 41t-52 58.5l-14 6h-37q-3 -12 -21 -25t-18 -25.5t10 -47.5l-22 -31q-13 0 -26 11t-13 24q0 63 32 104t93 41q66 -34 81 -45q15 -30 40 -55t44 -25t25 2l14 -4q5 14 20 23q27 16 27 53z M682 1247l-4 51q0 43 29 43q20 0 32.5 -19t12.5 -40v-137l-11 -17q0 -160 -22 -619.5t-43 -502.5q-5 -1 -29.5 -7.5t-34.5 -6.5t-18 13.5t-12.5 35.5t-8.5 29l2 6q-13 85 -53.5 194.5t-52.5 147.5q-7 9 -55 153q-184 571 -232 617q-16 -63 -16 -144l4 -161l-4 -99 q0 -23 8 -143h-6q0 -341 14 -377v-184q8 -14 8 -36q0 -48 -38 -48q-43 0 -43 110l8 134l-13 589l13 363v36q0 27 1.5 36t3 21.5t4.5 19.5t7 16q8 18 21 29l6 -7l20 5q23 -8 28 -32q0 -2 2.5 -11.5t2.5 -10.5q35 -146 147 -407t136 -335.5t43 -157.5q42 -184 92 -269l4 6 q47 447 47 1116zM639 -2q2 0 2 -2z" />
<glyph unicode="&#xf2;" horiz-adv-x="673" d="M95 1552q-20 -4 -33 -4q-70 0 -70 41q0 36 13 45q74 0 92 -23q2 -1 24.5 -8.5t38.5 -13.5t42.5 -16.5t46 -19.5t38.5 -19q39 -22 39 -39q0 -7 -8.5 -12t-14 -5t-102.5 34.5t-106 39.5zM559 791l4 -244q0 -461 -148 -561q-36 -25 -81 -25q-240 0 -240 754q0 291 40 505 q30 156 91 156q14 0 26.5 -11t34 -18.5t59 -14.5t53.5 -10q41 -7 79 -79q86 -146 86 -442zM158 717l4 -162q0 -195 44 -371q16 -66 47.5 -115t72 -49t71 30t48.5 83.5t30 109t17 124.5q8 110 8 196l-23 484l-8 16l4 10q0 89 -50 155t-122 66h-86q-17 0 -30 -182.5 t-17 -202.5z" />
<glyph unicode="&#xf3;" horiz-adv-x="673" d="M302 1479q-37 0 -37 30q0 12 121.5 105.5t132.5 103.5q45 0 45 -32q0 -1 -6 -31q-103 -46 -256 -176zM559 791l4 -244q0 -461 -148 -561q-36 -25 -81 -25q-240 0 -240 754q0 291 40 505q30 156 91 156q14 0 26.5 -11t34 -18.5t59 -14.5t53.5 -10q41 -7 79 -79 q86 -146 86 -442zM158 717l4 -162q0 -195 44 -371q16 -66 47.5 -115t72 -49t71 30t48.5 83.5t30 109t17 124.5q8 110 8 196l-23 484l-8 16l4 10q0 89 -50 155t-122 66h-86q-17 0 -30 -182.5t-17 -202.5z" />
<glyph unicode="&#xf4;" horiz-adv-x="673" d="M404 1478l-27 17q-10 124 -59 307q-26 -66 -55 -156t-31 -110l-35 -47l-37 26q2 45 71.5 195.5t99.5 150.5t30 -41.5t9.5 -80t27 -86.5t24.5 -74l-2 -13l15 -30l-2 -11q8 -16 8 -22q0 -19 -37 -25zM559 791l4 -244q0 -461 -148 -561q-36 -25 -81 -25q-240 0 -240 754 q0 291 40 505q30 156 91 156q14 0 26.5 -11t34 -18.5t59 -14.5t53.5 -10q41 -7 79 -79q86 -146 86 -442zM158 717l4 -162q0 -195 44 -371q16 -66 47.5 -115t72 -49t71 30t48.5 83.5t30 109t17 124.5q8 110 8 196l-23 484l-8 16l4 10q0 89 -50 155t-122 66h-86 q-17 0 -30 -182.5t-17 -202.5z" />
<glyph unicode="&#xf5;" horiz-adv-x="673" d="M459 1608l-12 39q6 12 25.5 12t31 -22t11.5 -56.5t-33 -67t-73 -32.5t-77 21.5t-56 41t-52 58.5l-14 6h-37q-3 -12 -21 -25t-18 -25.5t10 -47.5l-22 -31q-13 0 -26 11t-13 24q0 63 32 104t93 41q66 -34 81 -45q15 -30 40 -55t44 -25t25 2l14 -4q5 14 20 23q27 16 27 53z M559 791l4 -244q0 -461 -148 -561q-36 -25 -81 -25q-240 0 -240 754q0 291 40 505q30 156 91 156q14 0 26.5 -11t34 -18.5t59 -14.5t53.5 -10q41 -7 79 -79q86 -146 86 -442zM158 717l4 -162q0 -195 44 -371q16 -66 47.5 -115t72 -49t71 30t48.5 83.5t30 109t17 124.5 q8 110 8 196l-23 484l-8 16l4 10q0 89 -50 155t-122 66h-86q-17 0 -30 -182.5t-17 -202.5z" />
<glyph unicode="&#xf6;" horiz-adv-x="673" d="M495.5 1501.5q-12.5 14.5 -12.5 32t15.5 33.5t33.5 16t32 -16.5t14 -32.5q0 -47 -54 -47q-16 0 -28.5 14.5zM113 1514q0 67 -41 67q-18 0 -33.5 -16.5t-15.5 -34t11 -34.5t28.5 -17t34 9t16.5 26zM559 791l4 -244q0 -461 -148 -561q-36 -25 -81 -25q-240 0 -240 754 q0 291 40 505q30 156 91 156q14 0 26.5 -11t34 -18.5t59 -14.5t53.5 -10q41 -7 79 -79q86 -146 86 -442zM158 717l4 -162q0 -195 44 -371q16 -66 47.5 -115t72 -49t71 30t48.5 83.5t30 109t17 124.5q8 110 8 196l-23 484l-8 16l4 10q0 89 -50 155t-122 66h-86 q-17 0 -30 -182.5t-17 -202.5z" />
<glyph unicode="&#xf7;" horiz-adv-x="620" d="M506 741q0 -16 -56.5 -18t-95.5 -2h-219q-17 0 -30 9.5t-13 25.5q0 6 201 6h190q8 0 15.5 -7t7.5 -14zM366.5 940.5q-14.5 -12.5 -32 -12.5t-33.5 15t-16 33t16.5 32t32.5 14q47 0 47 -53q0 -16 -14.5 -28.5zM354 557q-67 0 -67 -41q0 -18 16.5 -33.5t34 -15.5t34.5 11 t17 28.5t-9 34t-26 16.5z" />
<glyph unicode="&#xf8;" horiz-adv-x="565" d="M449 764l6 -354q0 -139 -11 -197.5t-25 -99.5t-33 -67q-47 -60 -114.5 -60t-93.5 37h-2l-2 -15q-30 -256 -51 -256t-21 29l50 323q0 13 -7 37t-11 47t-9.5 65.5t-9.5 78.5t-7 85t-5 79.5t-3.5 86t-2 80t-1 85.5t-0.5 80v165q0 389 137 389q23 0 56 -22l6 4l14 -14l45 241 h33v-18l-41 -262q0 -15 27 -56l-2 -4q2 -12 14 -31q37 -59 37 -149l-4 -2q0 -48 13 -144.5t13 -144.5v-10zM212.5 191q-11.5 -44 -11.5 -85q0 -81 84 -81q121 0 121 344q0 346 -19.5 569.5t-48.5 278.5q-34 -204 -74 -593t-51.5 -433zM152 647q0 -65 12 -196t12 -197 q19 116 56 455t40 360.5t10 64.5q13 91 13 129.5t-18.5 53t-30 14.5t-41.5 -10l-10 2q-58 -31 -58 -541q0 -97 15 -135z" />
<glyph unicode="&#xf9;" horiz-adv-x="651" d="M105 1565q-20 -4 -33 -4q-70 0 -70 41q0 36 13 45q74 0 92 -23q2 -1 24.5 -8.5t38.5 -13.5t42.5 -16.5t46 -19.5t38.5 -19q39 -22 39 -39q0 -7 -8.5 -12t-14 -5t-102.5 34.5t-106 39.5zM520 920l2 -41q-4 -52 -5.5 -140t-3 -167t-5.5 -171t-16 -165q-28 -174 -91 -232 q-68 -64 -159 -13q-39 22 -65.5 55t-42.5 212.5t-19 378.5q-9 598 -19 682l13 29q47 -6 47 -113l6 -543l22 -434q0 -233 154 -233q95 0 120 429q2 29 9.5 277t7.5 598l-4 37q0 23 29.5 23t35 -13.5t5.5 -121t-13 -158.5q2 -4 2 -13z" />
<glyph unicode="&#xfa;" horiz-adv-x="651" d="M312 1491q-37 0 -37 30q0 12 121.5 105.5t132.5 103.5q45 0 45 -32q0 -1 -6 -31q-103 -46 -256 -176zM520 920l2 -41q-4 -52 -5.5 -140t-3 -167t-5.5 -171t-16 -165q-28 -174 -91 -232q-68 -64 -159 -13q-39 22 -65.5 55t-42.5 212.5t-19 378.5q-9 598 -19 682l13 29 q47 -6 47 -113l6 -543l22 -434q0 -233 154 -233q95 0 120 429q2 29 9.5 277t7.5 598l-4 37q0 23 29.5 23t35 -13.5t5.5 -121t-13 -158.5q2 -4 2 -13z" />
<glyph unicode="&#xfb;" horiz-adv-x="651" d="M414 1491l-27 17q-10 124 -59 307q-26 -66 -55 -156t-31 -110l-35 -47l-37 26q2 45 71.5 195.5t99.5 150.5t30 -41.5t9.5 -80t27 -86.5t24.5 -74l-2 -13l15 -30l-2 -11q8 -16 8 -22q0 -19 -37 -25zM520 920l2 -41q-4 -52 -5.5 -140t-3 -167t-5.5 -171t-16 -165 q-28 -174 -91 -232q-68 -64 -159 -13q-39 22 -65.5 55t-42.5 212.5t-19 378.5q-9 598 -19 682l13 29q47 -6 47 -113l6 -543l22 -434q0 -233 154 -233q95 0 120 429q2 29 9.5 277t7.5 598l-4 37q0 23 29.5 23t35 -13.5t5.5 -121t-13 -158.5q2 -4 2 -13z" />
<glyph unicode="&#xfc;" horiz-adv-x="651" d="M505.5 1513.5q-12.5 14.5 -12.5 32t15.5 33.5t33.5 16t32 -16.5t14 -32.5q0 -47 -54 -47q-16 0 -28.5 14.5zM123 1526q0 67 -41 67q-18 0 -33.5 -16.5t-15.5 -34t11 -34.5t28.5 -17t34 9t16.5 26zM520 920l2 -41q-4 -52 -5.5 -140t-3 -167t-5.5 -171t-16 -165 q-28 -174 -91 -232q-68 -64 -159 -13q-39 22 -65.5 55t-42.5 212.5t-19 378.5q-9 598 -19 682l13 29q47 -6 47 -113l6 -543l22 -434q0 -233 154 -233q95 0 120 429q2 29 9.5 277t7.5 598l-4 37q0 23 29.5 23t35 -13.5t5.5 -121t-13 -158.5q2 -4 2 -13z" />
<glyph unicode="&#xfd;" horiz-adv-x="561" d="M269 1479q-37 0 -37 30q0 12 121.5 105.5t132.5 103.5q45 0 45 -32q0 -1 -6 -31q-103 -46 -256 -176zM350 442l2 -325q0 -148 -43 -148q-7 0 -17 8t-13 15q20 50 20 358q0 60 -7.5 171t-8.5 145l-13 26l6 25q-26 60 -96 259q-102 285 -104 331l28 22q20 -3 60 -130.5 t78.5 -255.5t54.5 -132l8 37l-4 10q15 18 39.5 145.5t52.5 242t54 114.5t26 -22t-22 -99.5t-41 -141.5t-28.5 -99t-21.5 -88q-24 -100 -24 -187q10 -25 10 -35l-12 -59z" />
<glyph unicode="&#xfe;" horiz-adv-x="530" d="M121 1329q0 53 43 53q28 0 105.5 -24t78.5 -43q-2 -4 -2 -6q38 -60 51 -120.5t13 -182t-33 -211.5h2q-8 -19 -31.5 -53.5t-28.5 -43.5q40 -31 63.5 -88.5t29 -102.5t8.5 -108l2 -53v-29q0 -196 -122 -290q-65 -50 -157 -50q-18 0 -28.5 12.5t-11.5 31.5t-1 63l21 432 l-4 182l12 490q0 78 -2 119l-8 10v12zM172 150l2 -93q76 0 130 71.5t54 150.5v3q1 18 1 35t-1.5 58.5t-6.5 76t-17.5 76.5t-29.5 71q-42 69 -116 69q-10 -153 -10 -270.5t6 -149.5q-12 -22 -12 -98zM184 934l-2 -143v-25l8 -27h15q135 0 135 273q0 37 -6 127l-4 4 q-13 170 -103 170q-45 0 -45 -269z" />
<glyph unicode="&#xff;" horiz-adv-x="561" d="M461 1501.5q-12 14.5 -12 32t15 33.5t33 16t32 -16.5t14 -32.5q0 -47 -54 -47q-16 0 -28 14.5zM78 1513q0 68 -41 68q-18 0 -33.5 -16.5t-15.5 -34t11 -34.5t28.5 -17t34 8.5t16.5 25.5zM350 442l2 -325q0 -148 -43 -148q-7 0 -17 8t-13 15q20 50 20 358q0 60 -7.5 171 t-8.5 145l-13 26l6 25q-26 60 -96 259q-102 285 -104 331l28 22q20 -3 60 -130.5t78.5 -255.5t54.5 -132l8 37l-4 10q15 18 39.5 145.5t52.5 242t54 114.5t26 -22t-22 -99.5t-41 -141.5t-28.5 -99t-21.5 -88q-24 -100 -24 -187q10 -25 10 -35l-12 -59z" />
<glyph unicode="&#x100;" d="M613 1687.5q-1 -14.5 -130 -14.5h-122.5t-66.5 1t-31.5 3t-22.5 6q-21 6 -21 23q2 17 131 17h116q118 0 133 -10.5t14 -25zM567 600l23 -534v-22q0 -24 -6 -30q-16 -14 -35 -14t-31 10t-12 25q6 12 6 24l-6 41v203q0 27 -108 46.5t-160 19.5q-20 0 -36 -74.5t-31 -163.5 t-30 -111q-48 0 -63 25q32 46 61.5 224t47.5 258.5t64.5 349.5t63 344.5t25.5 111.5t23 85q33 118 59 118q32 0 42.5 -14.5t18 -68t15 -136t13.5 -151.5q19 -216 23.5 -284t18.5 -98q-4 -62 -4 -106.5t18 -77.5zM231 426q86 -29 207 -29q25 0 37 4l10 -4q19 0 19 19 q0 428 -80 923q-1 6 -4.5 22t-3.5 25q-25 -71 -27 -90l6 -12q-7 -7 -23 -70.5t-44.5 -262t-41 -255t-26.5 -102.5q-29 -102 -29 -156v-12z" />
<glyph unicode="&#x101;" horiz-adv-x="667" d="M583 1492.5q-1 -14.5 -130 -14.5h-122.5t-66.5 1t-31.5 3t-22.5 6q-21 6 -21 23q2 17 131 17h116q118 0 133 -10.5t14 -25zM367 305l-54 -2q-29 12 -64 12t-38 -2t-4 -7t-2 -7l-4 -41q-4 -52 -19 -125q-28 -143 -59 -143q-13 0 -27 11t-14 24q26 77 54 233t35 194.5 t26 155.5t25 154t32.5 160t32 161t12.5 103q17 160 27 178l28 -2q25 0 37 12q13 0 25 -8.5t12 -22.5q0 -98 25 -379t39.5 -363.5t33.5 -162t19 -121.5l-10 -28q0 -46 17 -135.5t17 -126t-16 -45.5q-42 0 -51.5 12t-9.5 38.5t-3.5 65t-7 61.5t-12 72.5t-10.5 63.5 q-39 10 -92 10zM223 406q0 -21 49 -35q75 -21 166 -21h21q-13 40 -13 92v47q0 127 -31.5 370t-33.5 362q-107 -529 -132.5 -653.5t-25.5 -161.5z" />
<glyph unicode="&#x102;" d="M551 1883.5q10 -8.5 10 -19.5t-11 -33l5 -15q-5 -10 -16 -35.5t-16 -35.5t-17 -27.5t-24 -24.5q-34 -20 -75 -20t-71.5 19t-46.5 51q-31 62 -31 139l22 18q14 -1 19 -32q20 -108 53 -132l22 -16h51q27 0 48.5 37.5t21.5 66.5l-2 29q0 39 37 39q11 0 21 -8.5zM567 600 l23 -534v-22q0 -24 -6 -30q-16 -14 -35 -14t-31 10t-12 25q6 12 6 24l-6 41v203q0 27 -108 46.5t-160 19.5q-20 0 -36 -74.5t-31 -163.5t-30 -111q-48 0 -63 25q32 46 61.5 224t47.5 258.5t64.5 349.5t63 344.5t25.5 111.5t23 85q33 118 59 118q32 0 42.5 -14.5t18 -68 t15 -136t13.5 -151.5q19 -216 23.5 -284t18.5 -98q-4 -62 -4 -106.5t18 -77.5zM231 426q86 -29 207 -29q25 0 37 4l10 -4q19 0 19 19q0 428 -80 923q-1 6 -4.5 22t-3.5 25q-25 -71 -27 -90l6 -12q-7 -7 -23 -70.5t-44.5 -262t-41 -255t-26.5 -102.5q-29 -102 -29 -156v-12z " />
<glyph unicode="&#x103;" horiz-adv-x="667" d="M522 1689.5q10 -8.5 10 -19.5t-11 -33l5 -15q-5 -10 -16 -35.5t-16 -35.5t-17 -27.5t-24 -24.5q-34 -20 -75 -20t-71.5 19t-46.5 51q-31 62 -31 139l22 18q14 -1 19 -32q20 -108 53 -132l22 -16h51q27 0 48.5 37.5t21.5 66.5l-2 29q0 39 37 39q11 0 21 -8.5zM367 305 l-54 -2q-29 12 -64 12t-38 -2t-4 -7t-2 -7l-4 -41q-4 -52 -19 -125q-28 -143 -59 -143q-13 0 -27 11t-14 24q26 77 54 233t35 194.5t26 155.5t25 154t32.5 160t32 161t12.5 103q17 160 27 178l28 -2q25 0 37 12q13 0 25 -8.5t12 -22.5q0 -98 25 -379t39.5 -363.5t33.5 -162 t19 -121.5l-10 -28q0 -46 17 -135.5t17 -126t-16 -45.5q-42 0 -51.5 12t-9.5 38.5t-3.5 65t-7 61.5t-12 72.5t-10.5 63.5q-39 10 -92 10zM223 406q0 -21 49 -35q75 -21 166 -21h21q-13 40 -13 92v47q0 127 -31.5 370t-33.5 362q-107 -529 -132.5 -653.5t-25.5 -161.5z" />
<glyph unicode="&#x104;" d="M575 -400l66 21q22 0 22 -23.5t-29.5 -38t-58.5 -14.5q-62 0 -108.5 57t-46.5 105.5t14.5 98t35.5 86.5q44 76 77 109l14 15l59 -8q4 2 2 -2t-14 -21q-96 -131 -96 -211q0 -19 -4 -47l-2 -43q0 -26 22 -55t47 -29zM567 600l23 -534v-22q0 -24 -6 -30q-16 -14 -35 -14 t-31 10t-12 25q6 12 6 24l-6 41v203q0 27 -108 46.5t-160 19.5q-20 0 -36 -74.5t-31 -163.5t-30 -111q-48 0 -63 25q32 46 61.5 224t47.5 258.5t64.5 349.5t63 344.5t25.5 111.5t23 85q33 118 59 118q32 0 42.5 -14.5t18 -68t15 -136t13.5 -151.5q19 -216 23.5 -284 t18.5 -98q-4 -62 -4 -106.5t18 -77.5zM231 426q86 -29 207 -29q25 0 37 4l10 -4q19 0 19 19q0 428 -80 923q-1 6 -4.5 22t-3.5 25q-25 -71 -27 -90l6 -12q-7 -7 -23 -70.5t-44.5 -262t-41 -255t-26.5 -102.5q-29 -102 -29 -156v-12z" />
<glyph unicode="&#x105;" horiz-adv-x="667" d="M583 -419l66 21q22 0 22 -23.5t-29.5 -38t-58.5 -14.5q-62 0 -108.5 57t-46.5 105.5t14.5 98t35.5 86.5q44 76 77 109l14 15l59 -8q4 2 2 -2t-14 -21q-96 -131 -96 -211q0 -19 -4 -47l-2 -43q0 -26 22 -55t47 -29zM367 305l-54 -2q-29 12 -64 12t-38 -2t-4 -7t-2 -7 l-4 -41q-4 -52 -19 -125q-28 -143 -59 -143q-13 0 -27 11t-14 24q26 77 54 233t35 194.5t26 155.5t25 154t32.5 160t32 161t12.5 103q17 160 27 178l28 -2q25 0 37 12q13 0 25 -8.5t12 -22.5q0 -98 25 -379t39.5 -363.5t33.5 -162t19 -121.5l-10 -28q0 -46 17 -135.5 t17 -126t-16 -45.5q-42 0 -51.5 12t-9.5 38.5t-3.5 65t-7 61.5t-12 72.5t-10.5 63.5q-39 10 -92 10zM223 406q0 -21 49 -35q75 -21 166 -21h21q-13 40 -13 92v47q0 127 -31.5 370t-33.5 362q-107 -529 -132.5 -653.5t-25.5 -161.5z" />
<glyph unicode="&#x106;" d="M309 1674q-37 0 -37 30q0 12 121.5 105.5t132.5 103.5q45 0 45 -32q0 -1 -6 -31q-103 -46 -256 -176zM170 1008l-18 -148q0 -121 27 -404t55 -326q54 -83 161.5 -83t157.5 59q19 0 47 7l10 -11q0 -98 -156 -128q-37 -7 -83.5 -7t-109.5 46t-89 102t-51 348t-25 514 t13 262q-7 35 -7 66q0 123 88 191.5t216 68.5q35 0 76.5 -22t41.5 -54q0 -23 -32 -23q-9 0 -25 12.5t-26.5 12.5t-22.5 -4q-24 8 -49 8t-60.5 -10.5t-59 -27t-40 -44.5t-25.5 -53.5t-14 -65.5q-6 -57 -6 -141zM403 1475h-4h4z" />
<glyph unicode="&#x107;" horiz-adv-x="550" d="M252 1479q-37 0 -37 30q0 12 121.5 105.5t132.5 103.5q45 0 45 -32q0 -1 -6 -31q-103 -46 -256 -176zM174 827l-8 -413q0 -173 33 -248q38 -88 97 -114q38 -17 77.5 -17t60.5 18q31 0 31 -22q0 -16 -27.5 -35.5t-50.5 -28.5h-68q-13 7 -48 18t-64.5 32.5t-55.5 71 t-37 115.5q-18 108 -18 242v234q0 273 20 374q40 205 109 259q18 14 55.5 28.5t51.5 22.5h82q2 0 5.5 -1t5.5 -1.5t5.5 -1.5t5 -1.5t4.5 -2t4 -2.5q9 -9 9 -21l-27 -30h-86q-42 0 -73 -39.5t-47.5 -93.5t-26.5 -125q-15 -107 -15 -207z" />
<glyph unicode="&#x108;" d="M411 1673l-27 17q-10 124 -59 307q-26 -66 -55 -156t-31 -110l-35 -47l-37 26q2 45 71.5 195.5t99.5 150.5t30 -41.5t9.5 -80t27 -86.5t24.5 -74l-2 -13l15 -30l-2 -11q8 -16 8 -22q0 -19 -37 -25zM170 1008l-18 -148q0 -121 27 -404t55 -326q54 -83 161.5 -83t157.5 59 q19 0 47 7l10 -11q0 -98 -156 -128q-37 -7 -83.5 -7t-109.5 46t-89 102t-51 348t-25 514t13 262q-7 35 -7 66q0 123 88 191.5t216 68.5q35 0 76.5 -22t41.5 -54q0 -23 -32 -23q-9 0 -25 12.5t-26.5 12.5t-22.5 -4q-24 8 -49 8t-60.5 -10.5t-59 -27t-40 -44.5t-25.5 -53.5 t-14 -65.5q-6 -57 -6 -141zM403 1475h-4h4z" />
<glyph unicode="&#x109;" horiz-adv-x="550" d="M471 1478l-27 17q-10 124 -59 307q-26 -66 -55 -156t-31 -110l-35 -47l-37 26q2 45 71.5 195.5t99.5 150.5t30 -41.5t9.5 -80t27 -86.5t24.5 -74l-2 -13l15 -30l-2 -11q8 -16 8 -22q0 -19 -37 -25zM174 827l-8 -413q0 -173 33 -248q38 -88 97 -114q38 -17 77.5 -17 t60.5 18q31 0 31 -22q0 -16 -27.5 -35.5t-50.5 -28.5h-68q-13 7 -48 18t-64.5 32.5t-55.5 71t-37 115.5q-18 108 -18 242v234q0 273 20 374q40 205 109 259q18 14 55.5 28.5t51.5 22.5h82q2 0 5.5 -1t5.5 -1.5t5.5 -1.5t5 -1.5t4.5 -2t4 -2.5q9 -9 9 -21l-27 -30h-86 q-42 0 -73 -39.5t-47.5 -93.5t-26.5 -125q-15 -107 -15 -207z" />
<glyph unicode="&#x10a;" d="M269.5 1688.5q-13.5 15.5 -13.5 34.5t16.5 36.5t35.5 17.5t34.5 -17.5t15.5 -35.5q0 -51 -57 -51q-18 0 -31.5 15.5zM170 1008l-18 -148q0 -121 27 -404t55 -326q54 -83 161.5 -83t157.5 59q19 0 47 7l10 -11q0 -98 -156 -128q-37 -7 -83.5 -7t-109.5 46t-89 102t-51 348 t-25 514t13 262q-7 35 -7 66q0 123 88 191.5t216 68.5q35 0 76.5 -22t41.5 -54q0 -23 -32 -23q-9 0 -25 12.5t-26.5 12.5t-22.5 -4q-24 8 -49 8t-60.5 -10.5t-59 -27t-40 -44.5t-25.5 -53.5t-14 -65.5q-6 -57 -6 -141zM403 1475h-4h4z" />
<glyph unicode="&#x10b;" horiz-adv-x="550" d="M213.5 1494.5q-13.5 15.5 -13.5 34.5t16.5 36.5t35.5 17.5t34.5 -17.5t15.5 -35.5q0 -51 -57 -51q-18 0 -31.5 15.5zM174 827l-8 -413q0 -173 33 -248q38 -88 97 -114q38 -17 77.5 -17t60.5 18q31 0 31 -22q0 -16 -27.5 -35.5t-50.5 -28.5h-68q-13 7 -48 18t-64.5 32.5 t-55.5 71t-37 115.5q-18 108 -18 242v234q0 273 20 374q40 205 109 259q18 14 55.5 28.5t51.5 22.5h82q2 0 5.5 -1t5.5 -1.5t5.5 -1.5t5 -1.5t4.5 -2t4 -2.5q9 -9 9 -21l-27 -30h-86q-42 0 -73 -39.5t-47.5 -93.5t-26.5 -125q-15 -107 -15 -207z" />
<glyph unicode="&#x10c;" d="M373 2040l27 16q37 -6 37 -24q0 -7 -8 -23l2 -10l-15 -31l2 -12q-7 -26 -24 -75q-37 -101 -37 -154.5t-30 -53.5t-99.5 150.5t-71.5 195.5l37 27l35 -47q3 -34 43.5 -147.5t42.5 -118.5q49 183 59 307zM170 1008l-18 -148q0 -121 27 -404t55 -326q54 -83 161.5 -83 t157.5 59q19 0 47 7l10 -11q0 -98 -156 -128q-37 -7 -83.5 -7t-109.5 46t-89 102t-51 348t-25 514t13 262q-7 35 -7 66q0 123 88 191.5t216 68.5q35 0 76.5 -22t41.5 -54q0 -23 -32 -23q-9 0 -25 12.5t-26.5 12.5t-22.5 -4q-24 8 -49 8t-60.5 -10.5t-59 -27t-40 -44.5 t-25.5 -53.5t-14 -65.5q-6 -57 -6 -141zM403 1475h-4h4z" />
<glyph unicode="&#x10d;" horiz-adv-x="550" d="M316 1845l27 16q37 -6 37 -24q0 -7 -8 -23l2 -10l-15 -31l2 -12q-7 -26 -24 -75q-37 -101 -37 -154.5t-30 -53.5t-99.5 150.5t-71.5 195.5l37 27l35 -47q3 -34 43.5 -147.5t42.5 -118.5q49 183 59 307zM174 827l-8 -413q0 -173 33 -248q38 -88 97 -114q38 -17 77.5 -17 t60.5 18q31 0 31 -22q0 -16 -27.5 -35.5t-50.5 -28.5h-68q-13 7 -48 18t-64.5 32.5t-55.5 71t-37 115.5q-18 108 -18 242v234q0 273 20 374q40 205 109 259q18 14 55.5 28.5t51.5 22.5h82q2 0 5.5 -1t5.5 -1.5t5.5 -1.5t5 -1.5t4.5 -2t4 -2.5q9 -9 9 -21l-27 -30h-86 q-42 0 -73 -39.5t-47.5 -93.5t-26.5 -125q-15 -107 -15 -207z" />
<glyph unicode="&#x10e;" horiz-adv-x="702" d="M372 2040l27 16q37 -6 37 -24q0 -7 -8 -23l2 -10l-15 -31l2 -12q-7 -26 -24 -75q-37 -101 -37 -154.5t-30 -53.5t-99.5 150.5t-71.5 195.5l37 27l35 -47q3 -34 43.5 -147.5t42.5 -118.5q49 183 59 307zM156 299l2 82q0 120 -14 279t-17 198q-9 19 -10 256.5t-4.5 263.5 t-17 62t-13.5 57q0 49 154 49h10q78 0 168 -86t117.5 -155t36.5 -165.5t12.5 -176.5t13.5 -101l-4 -55l6 -10l-6 -17l6 -10q-12 -19 -12 -57t-4 -70t-8 -50t-13.5 -53.5t-28.5 -113.5q-56 -220 -186 -325t-153.5 -105t-48 10.5t-27.5 30.5q29 37 32 82zM162 1450l18 -340 q0 -132 15.5 -391.5t15.5 -351t-4 -201.5l4 -8v-58h10q77 41 136 117.5t91.5 160t53.5 182.5q33 162 33 314q0 599 -330 599q-41 0 -43 -23z" />
<glyph unicode="&#x10f;" horiz-adv-x="653" d="M684 1055l4 19q107 89 107 149q-25 14 -42 39t-17 52t24.5 45t52.5 18q46 0 68 -60l-4 -6q4 -8 4 -33t-25 -83t-65 -106.5t-74 -49.5zM537 717q0 -81 10 -99q-13 -67 -23.5 -181t-25 -174t-36.5 -103q-54 -102 -179 -170h-142q-18 0 -18 55q-8 159 -8 356l4 484 q0 213 -8 385q-17 14 -17 35t17 36t31 15t31.5 -16.5t26.5 -21t43 -10t56.5 -16.5t73.5 -59.5t69 -61.5l-2 -4q2 -13 30.5 -52.5t35.5 -57.5q33 -89 33 -244zM477 592l-2 74l-10 206q-4 116 -71 246q-31 62 -82.5 103t-110.5 41q-23 0 -23 -409.5t23 -733.5l-2 -39l8 -4 l6 -27h63q12 17 30.5 31t25.5 20q145 131 145 492z" />
<glyph unicode="&#x110;" horiz-adv-x="839" d="M199 1196l-17 367q0 8 12.5 25.5t20.5 17.5q171 0 348 -246q42 -59 74 -119v-4q96 -271 96 -588q0 -134 -49.5 -281.5t-146 -275t-215.5 -180.5q-9 4 -24 8q-25 7 -36 31h-2q0 271 -18 651q-10 126 -17 152l-125 -13q-17 0 -22.5 8.5t-5.5 27t36 28t72 9.5l37 -1l8 4 l2 10q0 61 -14 184t-14 185zM301 821l141 23q17 0 29 -16t14 -33l-20 -25q-104 0 -168 -14q0 -32 5.5 -162.5t8.5 -142.5l-2 -2q0 -73 10.5 -221.5t10.5 -221.5q27 6 39 18t21 21.5t13 13.5q103 101 179.5 262t76.5 281.5t-1 177.5q-5 168 -42 307q-33 161 -124.5 284.5 t-235.5 166.5l-4 -4q0 -129 14.5 -407t34.5 -306z" />
<glyph unicode="&#x111;" horiz-adv-x="653" d="M306 652q0 -5 -81.5 -9.5t-116.5 -4.5q-62 0 -62 34q0 5 82.5 10t115.5 5q62 0 62 -35zM537 717q0 -81 10 -99q-13 -67 -23.5 -181t-25 -174t-36.5 -103q-54 -102 -179 -170h-142q-18 0 -18 55q-8 159 -8 356l4 484q0 213 -8 385q-17 14 -17 35t17 36t31 15t31.5 -16.5 t26.5 -21t43 -10t56.5 -16.5t73.5 -59.5t69 -61.5l-2 -4q2 -13 30.5 -52.5t35.5 -57.5q33 -89 33 -244zM477 592l-2 74l-10 206q-4 116 -71 246q-31 62 -82.5 103t-110.5 41q-23 0 -23 -409.5t23 -733.5l-2 -39l8 -4l6 -27h63q12 17 30.5 31t25.5 20q145 131 145 492z" />
<glyph unicode="&#x112;" horiz-adv-x="497" d="M396 1687.5q-1 -14.5 -130 -14.5h-122.5t-66.5 1t-31.5 3t-22.5 6q-21 6 -21 23q2 17 131 17h116q118 0 133 -10.5t14 -25zM199 61l123 7q96 0 96 -33q-17 -30 -61 -38.5t-85 -8.5h-48q-92 0 -106 14.5t-14 30.5l19 76v4q-8 41 -8 90l10 209l-12 438l10 407 q0 37 -13 109.5t-14 106.5l37 57l143 18l7 -6q48 0 55.5 -12.5t7.5 -26.5q0 -39 -74 -39l-55 4q-45 0 -45 -24l16 -348l-10 -256l-4 -4l12 -7l113 21q11 0 24 -11.5t13 -23.5q0 -41 -31 -41l-47 2q-78 0 -78 -39l15 -172l-7 -12v-416q11 -13 11 -57v-19z" />
<glyph unicode="&#x113;" horiz-adv-x="491" d="M416 1492.5q-1 -14.5 -130 -14.5h-122.5t-66.5 1t-31.5 3t-22.5 6q-21 6 -21 23q2 17 131 17h116q118 0 133 -10.5t14 -25zM109 16l2 52l-7 8q15 41 15 84l-10 270l14 617l-8 245q0 58 59 58q23 0 33 -13q7 -2 59 -8q126 -14 129 -51q0 -16 -39 -39q-113 37 -166 39 l-10 -12q2 -29 2 -88l-8 -318q0 -57 29 -57l69 4q78 0 80 -37q0 -21 -10.5 -37t-37.5 -16t-40 16l-67 10h-9l-10 -10v-6q4 -53 4 -162l-4 -291q0 -204 28 -226q18 -15 66 -15l76 4q60 0 60 -27q0 -37 -89 -37h-169q-38 0 -41 43z" />
<glyph unicode="&#x114;" horiz-adv-x="497" d="M335 1883.5q10 -8.5 10 -19.5t-11 -33l5 -15q-5 -10 -16 -35.5t-16 -35.5t-17 -27.5t-24 -24.5q-34 -20 -75 -20t-71.5 19t-46.5 51q-31 62 -31 139l22 18q14 -1 19 -32q20 -108 53 -132l22 -16h51q27 0 48.5 37.5t21.5 66.5l-2 29q0 39 37 39q11 0 21 -8.5zM199 61 l123 7q96 0 96 -33q-17 -30 -61 -38.5t-85 -8.5h-48q-92 0 -106 14.5t-14 30.5l19 76v4q-8 41 -8 90l10 209l-12 438l10 407q0 37 -13 109.5t-14 106.5l37 57l143 18l7 -6q48 0 55.5 -12.5t7.5 -26.5q0 -39 -74 -39l-55 4q-45 0 -45 -24l16 -348l-10 -256l-4 -4l12 -7 l113 21q11 0 24 -11.5t13 -23.5q0 -41 -31 -41l-47 2q-78 0 -78 -39l15 -172l-7 -12v-416q11 -13 11 -57v-19z" />
<glyph unicode="&#x115;" horiz-adv-x="491" d="M355 1689.5q10 -8.5 10 -19.5t-11 -33l5 -15q-5 -10 -16 -35.5t-16 -35.5t-17 -27.5t-24 -24.5q-34 -20 -75 -20t-71.5 19t-46.5 51q-31 62 -31 139l22 18q14 -1 19 -32q20 -108 53 -132l22 -16h51q27 0 48.5 37.5t21.5 66.5l-2 29q0 39 37 39q11 0 21 -8.5zM109 16l2 52 l-7 8q15 41 15 84l-10 270l14 617l-8 245q0 58 59 58q23 0 33 -13q7 -2 59 -8q126 -14 129 -51q0 -16 -39 -39q-113 37 -166 39l-10 -12q2 -29 2 -88l-8 -318q0 -57 29 -57l69 4q78 0 80 -37q0 -21 -10.5 -37t-37.5 -16t-40 16l-67 10h-9l-10 -10v-6q4 -53 4 -162l-4 -291 q0 -204 28 -226q18 -15 66 -15l76 4q60 0 60 -27q0 -37 -89 -37h-169q-38 0 -41 43z" />
<glyph unicode="&#x116;" horiz-adv-x="497" d="M161.5 1688.5q-13.5 15.5 -13.5 34.5t16.5 36.5t35.5 17.5t34.5 -17.5t15.5 -35.5q0 -51 -57 -51q-18 0 -31.5 15.5zM199 61l123 7q96 0 96 -33q-17 -30 -61 -38.5t-85 -8.5h-48q-92 0 -106 14.5t-14 30.5l19 76v4q-8 41 -8 90l10 209l-12 438l10 407q0 37 -13 109.5 t-14 106.5l37 57l143 18l7 -6q48 0 55.5 -12.5t7.5 -26.5q0 -39 -74 -39l-55 4q-45 0 -45 -24l16 -348l-10 -256l-4 -4l12 -7l113 21q11 0 24 -11.5t13 -23.5q0 -41 -31 -41l-47 2q-78 0 -78 -39l15 -172l-7 -12v-416q11 -13 11 -57v-19z" />
<glyph unicode="&#x117;" horiz-adv-x="491" d="M181.5 1494.5q-13.5 15.5 -13.5 34.5t16.5 36.5t35.5 17.5t34.5 -17.5t15.5 -35.5q0 -51 -57 -51q-18 0 -31.5 15.5zM109 16l2 52l-7 8q15 41 15 84l-10 270l14 617l-8 245q0 58 59 58q23 0 33 -13q7 -2 59 -8q126 -14 129 -51q0 -16 -39 -39q-113 37 -166 39l-10 -12 q2 -29 2 -88l-8 -318q0 -57 29 -57l69 4q78 0 80 -37q0 -21 -10.5 -37t-37.5 -16t-40 16l-67 10h-9l-10 -10v-6q4 -53 4 -162l-4 -291q0 -204 28 -226q18 -15 66 -15l76 4q60 0 60 -27q0 -37 -89 -37h-169q-38 0 -41 43z" />
<glyph unicode="&#x118;" horiz-adv-x="497" d="M266 -412l66 21q22 0 22 -23.5t-29.5 -38t-58.5 -14.5q-62 0 -108.5 57t-46.5 105.5t14.5 98t35.5 86.5q44 76 77 109l14 15l59 -8q4 2 2 -2t-14 -21q-96 -131 -96 -211q0 -19 -4 -47l-2 -43q0 -26 22 -55t47 -29zM199 61l123 7q96 0 96 -33q-17 -30 -61 -38.5t-85 -8.5 h-48q-92 0 -106 14.5t-14 30.5l19 76v4q-8 41 -8 90l10 209l-12 438l10 407q0 37 -13 109.5t-14 106.5l37 57l143 18l7 -6q48 0 55.5 -12.5t7.5 -26.5q0 -39 -74 -39l-55 4q-45 0 -45 -24l16 -348l-10 -256l-4 -4l12 -7l113 21q11 0 24 -11.5t13 -23.5q0 -41 -31 -41l-47 2 q-78 0 -78 -39l15 -172l-7 -12v-416q11 -13 11 -57v-19z" />
<glyph unicode="&#x119;" horiz-adv-x="491" d="M235 -427l66 21q22 0 22 -23.5t-29.5 -38t-58.5 -14.5q-62 0 -108.5 57t-46.5 105.5t14.5 98t35.5 86.5q44 76 77 109l14 15l59 -8q4 2 2 -2t-14 -21q-96 -131 -96 -211q0 -19 -4 -47l-2 -43q0 -26 22 -55t47 -29zM109 16l2 52l-7 8q15 41 15 84l-10 270l14 617l-8 245 q0 58 59 58q23 0 33 -13q7 -2 59 -8q126 -14 129 -51q0 -16 -39 -39q-113 37 -166 39l-10 -12q2 -29 2 -88l-8 -318q0 -57 29 -57l69 4q78 0 80 -37q0 -21 -10.5 -37t-37.5 -16t-40 16l-67 10h-9l-10 -10v-6q4 -53 4 -162l-4 -291q0 -204 28 -226q18 -15 66 -15l76 4 q60 0 60 -27q0 -37 -89 -37h-169q-38 0 -41 43z" />
<glyph unicode="&#x11a;" horiz-adv-x="497" d="M264 2040l27 16q37 -6 37 -24q0 -7 -8 -23l2 -10l-15 -31l2 -12q-7 -26 -24 -75q-37 -101 -37 -154.5t-30 -53.5t-99.5 150.5t-71.5 195.5l37 27l35 -47q3 -34 43.5 -147.5t42.5 -118.5q49 183 59 307zM199 61l123 7q96 0 96 -33q-17 -30 -61 -38.5t-85 -8.5h-48 q-92 0 -106 14.5t-14 30.5l19 76v4q-8 41 -8 90l10 209l-12 438l10 407q0 37 -13 109.5t-14 106.5l37 57l143 18l7 -6q48 0 55.5 -12.5t7.5 -26.5q0 -39 -74 -39l-55 4q-45 0 -45 -24l16 -348l-10 -256l-4 -4l12 -7l113 21q11 0 24 -11.5t13 -23.5q0 -41 -31 -41l-47 2 q-78 0 -78 -39l15 -172l-7 -12v-416q11 -13 11 -57v-19z" />
<glyph unicode="&#x11b;" horiz-adv-x="491" d="M284 1845l27 16q37 -6 37 -24q0 -7 -8 -23l2 -10l-15 -31l2 -12q-7 -26 -24 -75q-37 -101 -37 -154.5t-30 -53.5t-99.5 150.5t-71.5 195.5l37 27l35 -47q3 -34 43.5 -147.5t42.5 -118.5q49 183 59 307zM109 16l2 52l-7 8q15 41 15 84l-10 270l14 617l-8 245q0 58 59 58 q23 0 33 -13q7 -2 59 -8q126 -14 129 -51q0 -16 -39 -39q-113 37 -166 39l-10 -12q2 -29 2 -88l-8 -318q0 -57 29 -57l69 4q78 0 80 -37q0 -21 -10.5 -37t-37.5 -16t-40 16l-67 10h-9l-10 -10v-6q4 -53 4 -162l-4 -291q0 -204 28 -226q18 -15 66 -15l76 4q60 0 60 -27 q0 -37 -89 -37h-169q-38 0 -41 43z" />
<glyph unicode="&#x11c;" horiz-adv-x="774" d="M441 1673l-27 17q-10 124 -59 307q-26 -66 -55 -156t-31 -110l-35 -47l-37 26q2 45 71.5 195.5t99.5 150.5t30 -41.5t9.5 -80t27 -86.5t24.5 -74l-2 -13l15 -30l-2 -11q8 -16 8 -22q0 -19 -37 -25zM571 463q64 0 64 -86q0 -61 20.5 -182.5t20.5 -182.5q0 -32 -27 -32 q-49 0 -49 45q0 1 1 5t1 5q-20 -6 -52 -29t-48 -28t-48.5 -7t-47.5 -12h4q-135 30 -202 94q-54 51 -76 173q-38 203 -38 651q0 176 10 250t21.5 130.5t28 98t41.5 84.5t56 70q70 61 169 61q61 0 61 -35q0 -25 -30 -25l-58 11q-157 0 -203 -287q-26 -156 -26 -408 q-6 -162 -6 -224.5t1 -97t4.5 -86.5t12 -93.5t20.5 -89.5t32.5 -83.5t47.5 -65.5q56 -62 157 -62t167 102q0 153 -18.5 208.5t-34.5 55.5l-82 -8q-47 0 -47 35q0 19 60.5 32t92.5 13z" />
<glyph unicode="&#x11d;" horiz-adv-x="688" d="M408 1478l-27 17q-10 124 -59 307q-26 -66 -55 -156t-31 -110l-35 -47l-37 26q2 45 71.5 195.5t99.5 150.5t30 -41.5t9.5 -80t27 -86.5t24.5 -74l-2 -13l15 -30l-2 -11q8 -16 8 -22q0 -19 -37 -25zM563 406l8 -314q-106 -106 -209 -106q-136 0 -178.5 56t-67 260 t-24.5 290.5t10 190.5t16 198.5t21 158.5q49 216 232 216q63 0 63 -29q0 -14 -13.5 -22.5t-27.5 -8.5l-39 4q-69 0 -108 -88q-42 -98 -52.5 -181t-15.5 -132t-7 -112q-3 -95 -3 -177t6 -131q16 -25 21 -81.5t8.5 -113.5t16 -113t53.5 -91t112 -35q123 0 123 327v150 q-21 21 -72 21l-39 -2q-49 0 -49 24q0 35 49 35q189 0 189 -41z" />
<glyph unicode="&#x11e;" horiz-adv-x="774" d="M474 1883.5q10 -8.5 10 -19.5t-11 -33l5 -15q-5 -10 -16 -35.5t-16 -35.5t-17 -27.5t-24 -24.5q-34 -20 -75 -20t-71.5 19t-46.5 51q-31 62 -31 139l22 18q14 -1 19 -32q20 -108 53 -132l22 -16h51q27 0 48.5 37.5t21.5 66.5l-2 29q0 39 37 39q11 0 21 -8.5zM571 463 q64 0 64 -86q0 -61 20.5 -182.5t20.5 -182.5q0 -32 -27 -32q-49 0 -49 45q0 1 1 5t1 5q-20 -6 -52 -29t-48 -28t-48.5 -7t-47.5 -12h4q-135 30 -202 94q-54 51 -76 173q-38 203 -38 651q0 176 10 250t21.5 130.5t28 98t41.5 84.5t56 70q70 61 169 61q61 0 61 -35 q0 -25 -30 -25l-58 11q-157 0 -203 -287q-26 -156 -26 -408q-6 -162 -6 -224.5t1 -97t4.5 -86.5t12 -93.5t20.5 -89.5t32.5 -83.5t47.5 -65.5q56 -62 157 -62t167 102q0 153 -18.5 208.5t-34.5 55.5l-82 -8q-47 0 -47 35q0 19 60.5 32t92.5 13z" />
<glyph unicode="&#x11f;" horiz-adv-x="688" d="M441 1689.5q10 -8.5 10 -19.5t-11 -33l5 -15q-5 -10 -16 -35.5t-16 -35.5t-17 -27.5t-24 -24.5q-34 -20 -75 -20t-71.5 19t-46.5 51q-31 62 -31 139l22 18q14 -1 19 -32q20 -108 53 -132l22 -16h51q27 0 48.5 37.5t21.5 66.5l-2 29q0 39 37 39q11 0 21 -8.5zM563 406 l8 -314q-106 -106 -209 -106q-136 0 -178.5 56t-67 260t-24.5 290.5t10 190.5t16 198.5t21 158.5q49 216 232 216q63 0 63 -29q0 -14 -13.5 -22.5t-27.5 -8.5l-39 4q-69 0 -108 -88q-42 -98 -52.5 -181t-15.5 -132t-7 -112q-3 -95 -3 -177t6 -131q16 -25 21 -81.5 t8.5 -113.5t16 -113t53.5 -91t112 -35q123 0 123 327v150q-21 21 -72 21l-39 -2q-49 0 -49 24q0 35 49 35q189 0 189 -41z" />
<glyph unicode="&#x120;" horiz-adv-x="774" d="M299.5 1688.5q-13.5 15.5 -13.5 34.5t16.5 36.5t35.5 17.5t34.5 -17.5t15.5 -35.5q0 -51 -57 -51q-18 0 -31.5 15.5zM571 463q64 0 64 -86q0 -61 20.5 -182.5t20.5 -182.5q0 -32 -27 -32q-49 0 -49 45q0 1 1 5t1 5q-20 -6 -52 -29t-48 -28t-48.5 -7t-47.5 -12h4 q-135 30 -202 94q-54 51 -76 173q-38 203 -38 651q0 176 10 250t21.5 130.5t28 98t41.5 84.5t56 70q70 61 169 61q61 0 61 -35q0 -25 -30 -25l-58 11q-157 0 -203 -287q-26 -156 -26 -408q-6 -162 -6 -224.5t1 -97t4.5 -86.5t12 -93.5t20.5 -89.5t32.5 -83.5t47.5 -65.5 q56 -62 157 -62t167 102q0 153 -18.5 208.5t-34.5 55.5l-82 -8q-47 0 -47 35q0 19 60.5 32t92.5 13z" />
<glyph unicode="&#x121;" horiz-adv-x="688" d="M266.5 1494.5q-13.5 15.5 -13.5 34.5t16.5 36.5t35.5 17.5t34.5 -17.5t15.5 -35.5q0 -51 -57 -51q-18 0 -31.5 15.5zM563 406l8 -314q-106 -106 -209 -106q-136 0 -178.5 56t-67 260t-24.5 290.5t10 190.5t16 198.5t21 158.5q49 216 232 216q63 0 63 -29 q0 -14 -13.5 -22.5t-27.5 -8.5l-39 4q-69 0 -108 -88q-42 -98 -52.5 -181t-15.5 -132t-7 -112q-3 -95 -3 -177t6 -131q16 -25 21 -81.5t8.5 -113.5t16 -113t53.5 -91t112 -35q123 0 123 327v150q-21 21 -72 21l-39 -2q-49 0 -49 24q0 35 49 35q189 0 189 -41z" />
<glyph unicode="&#x122;" horiz-adv-x="774" d="M427 -297q-60 36 -60 90q0 28 24.5 46t53.5 18q46 0 68 -60l-4 -6q4 -8 4 -33.5t-25 -83.5t-65 -106t-74 -49l-33 16l4 18q107 86 107 150zM571 463q64 0 64 -86q0 -61 20.5 -182.5t20.5 -182.5q0 -32 -27 -32q-49 0 -49 45q0 1 1 5t1 5q-20 -6 -52 -29t-48 -28t-48.5 -7 t-47.5 -12h4q-135 30 -202 94q-54 51 -76 173q-38 203 -38 651q0 176 10 250t21.5 130.5t28 98t41.5 84.5t56 70q70 61 169 61q61 0 61 -35q0 -25 -30 -25l-58 11q-157 0 -203 -287q-26 -156 -26 -408q-6 -162 -6 -224.5t1 -97t4.5 -86.5t12 -93.5t20.5 -89.5t32.5 -83.5 t47.5 -65.5q56 -62 157 -62t167 102q0 153 -18.5 208.5t-34.5 55.5l-82 -8q-47 0 -47 35q0 19 60.5 32t92.5 13z" />
<glyph unicode="&#x123;" horiz-adv-x="688" d="M563 406l8 -314q-106 -106 -209 -106q-136 0 -178.5 56t-67 260t-24.5 290.5t10 190.5t16 198.5t21 158.5q49 216 232 216q63 0 63 -29q0 -14 -13.5 -22.5t-27.5 -8.5l-39 4q-69 0 -108 -88q-42 -98 -52.5 -181t-15.5 -132t-7 -112q-3 -95 -3 -177t6 -131 q16 -25 21 -81.5t8.5 -113.5t16 -113t53.5 -91t112 -35q123 0 123 327v150q-21 21 -72 21l-39 -2q-49 0 -49 24q0 35 49 35q189 0 189 -41zM246 -424l4 18q4 4 26 23.5t30.5 29t23.5 27.5q26 33 26 70q-25 14 -42 39t-17 52t24.5 45t52.5 18t42.5 -15.5t25.5 -44.5l-4 -6 q4 -8 4 -33.5t-24.5 -83.5t-64.5 -106t-74 -49z" />
<glyph unicode="&#x124;" horiz-adv-x="602" d="M368 1673l-27 17q-10 124 -59 307q-26 -66 -55 -156t-31 -110l-35 -47l-37 26q2 45 71.5 195.5t99.5 150.5t30 -41.5t9.5 -80t27 -86.5t24.5 -74l-2 -13l15 -30l-2 -11q8 -16 8 -22q0 -19 -37 -25zM410 825l-19 695q0 8 4 28q39 0 49 -54q9 -47 9 -262t15 -662.5 t15 -520.5q9 -18 9 -30.5t-11.5 -32t-25.5 -19.5q-29 0 -29 45l2 47q0 315 -20 703l-13 -2l-78 10q-102 0 -145 -25q0 -119 17.5 -354t17.5 -354q0 -31 -21 -31q-26 0 -33.5 23.5t-11.5 141t-5.5 253.5t-4.5 174q-37 500 -37 934l33 16l27 -22q-9 -76 -9 -152l17 -416 l-2 -81q0 -41 8 -72l240 16z" />
<glyph unicode="&#x125;" horiz-adv-x="606" d="M357 1478l-27 17q-10 124 -59 307q-26 -66 -55 -156t-31 -110l-35 -47l-37 26q2 45 71.5 195.5t99.5 150.5t30 -41.5t9.5 -80t27 -86.5t24.5 -74l-2 -13l15 -30l-2 -11q8 -16 8 -22q0 -19 -37 -25zM394 1365q11 9 18 9t43 -12q0 -160 13 -478.5t13 -513t13 -370.5 l-13 -23q-2 21 -63 21q-10 455 -10 549l-5 8l7 18q0 32 -7 76l-32 8q-18 -6 -41 -6l-131 21l-21 -8l-6 -258l6 -9l12 -342q0 -53 -34 -53q-45 0 -45 123l4 375q0 186 -6 200q10 20 10 136l-15 479q0 14 10.5 26.5t24.5 12.5q41 0 41 -119l-8 -500q0 -24 164 -24 q39 0 56.5 14.5t17.5 80.5t-13.5 254.5t-13.5 282.5q0 13 11 22zM352 739l4 -4h-4v4z" />
<glyph unicode="&#x126;" horiz-adv-x="602" d="M53 1241q0 10 398 10q11 0 20.5 -11.5t9.5 -27.5q11 2 -315 -5h-43l-1 -1h-26q-15 0 -29 9.5t-14 25.5zM410 825l-19 695q0 8 4 28q39 0 49 -54q9 -47 9 -262t15 -662.5t15 -520.5q9 -18 9 -30.5t-11.5 -32t-25.5 -19.5q-29 0 -29 45l2 47q0 315 -20 703l-13 -2l-78 10 q-102 0 -145 -25q0 -119 17.5 -354t17.5 -354q0 -31 -21 -31q-26 0 -33.5 23.5t-11.5 141t-5.5 253.5t-4.5 174q-37 500 -37 934l33 16l27 -22q-9 -76 -9 -152l17 -416l-2 -81q0 -41 8 -72l240 16z" />
<glyph unicode="&#x127;" horiz-adv-x="606" d="M394 1365q11 9 18 9t43 -12q0 -160 13 -478.5t13 -513t13 -370.5l-13 -23q-2 21 -63 21q-10 455 -10 549l-5 8l7 18q0 32 -7 76l-32 8q-18 -6 -41 -6l-131 21l-21 -8l-6 -258l6 -9l12 -342q0 -53 -34 -53q-45 0 -45 123l4 375q0 186 -6 200q10 20 10 136l-15 479 q0 14 10.5 26.5t24.5 12.5q41 0 41 -119l-8 -500q0 -24 164 -24q39 0 56.5 14.5t17.5 80.5t-13.5 254.5t-13.5 282.5q0 13 11 22zM352 739l4 -4h-4v4zM481 1104q0 -21 -133.5 -40t-183.5 -19t-64 9.5t-14 25.5q0 21 135 40t182 19q78 0 78 -35z" />
<glyph unicode="&#x128;" horiz-adv-x="477" d="M334 1802l-12 39q6 12 25.5 12t31 -22t11.5 -56.5t-33 -67t-73 -32.5t-77 21.5t-56 41t-52 58.5l-14 6h-37q-3 -12 -21 -25t-18 -25.5t10 -47.5l-22 -31q-13 0 -26 11t-13 24q0 63 32 104t93 41q66 -34 81 -45q15 -30 40 -55t44 -25t25 2l14 -4q5 14 20 23q27 16 27 53z M360 8l-65 10q-23 0 -47 -24q-46 0 -58 16h-5q-94 0 -109 35q0 23 47 23l45 -2q41 0 42 59t-5.5 144t-8 169t-11.5 327t-13 349l2 240q0 99 -6 119l-70 -15q-22 0 -22 28.5t90 47t122 18.5q54 0 54 -33.5t-25 -33.5l-49 2q-35 0 -42 -33q-7 -27 -7 -159t25.5 -523t25.5 -588 l-2 -106l74 6q53 0 53 -51z" />
<glyph unicode="&#x129;" horiz-adv-x="550" d="M400 1608l-12 39q6 12 25.5 12t31 -22t11.5 -56.5t-33 -67t-73 -32.5t-77 21.5t-56 41t-52 58.5l-14 6h-37q-3 -12 -21 -25t-18 -25.5t10 -47.5l-22 -31q-13 0 -26 11t-13 24q0 63 32 104t93 41q66 -34 81 -45q15 -30 40 -55t44 -25t25 2l14 -4q5 14 20 23q27 16 27 53z M424 16l-68 7q-16 0 -38 -11.5t-52.5 -11.5t-38.5 20l-34 -2q-44 0 -56 21q0 13 11.5 21.5t15.5 13.5h59l8 8l7 43l-15 448l10 478q0 139 -10 237q-20 6 -61 6l-49 -4q-39 0 -39 35q0 9 18.5 17t30.5 8q285 0 285 -62q0 -6 -5 -16l-47 -4q-16 12 -59 12l-10 -6q6 -18 6 -109 l-6 -487l14 -449l-2 -63q0 -48 6 -57l-2 -5q0 -20 45 -20l60 2q61 0 61 -29q0 -18 -13 -29.5t-32 -11.5z" />
<glyph unicode="&#x12a;" horiz-adv-x="477" d="M372 1687.5q-1 -14.5 -130 -14.5h-122.5t-66.5 1t-31.5 3t-22.5 6q-21 6 -21 23q2 17 131 17h116q118 0 133 -10.5t14 -25zM360 8l-65 10q-23 0 -47 -24q-46 0 -58 16h-5q-94 0 -109 35q0 23 47 23l45 -2q41 0 42 59t-5.5 144t-8 169t-11.5 327t-13 349l2 240 q0 99 -6 119l-70 -15q-22 0 -22 28.5t90 47t122 18.5q54 0 54 -33.5t-25 -33.5l-49 2q-35 0 -42 -33q-7 -27 -7 -159t25.5 -523t25.5 -588l-2 -106l74 6q53 0 53 -51z" />
<glyph unicode="&#x12b;" horiz-adv-x="550" d="M438 1492.5q-1 -14.5 -130 -14.5h-122.5t-66.5 1t-31.5 3t-22.5 6q-21 6 -21 23q2 17 131 17h116q118 0 133 -10.5t14 -25zM424 16l-68 7q-16 0 -38 -11.5t-52.5 -11.5t-38.5 20l-34 -2q-44 0 -56 21q0 13 11.5 21.5t15.5 13.5h59l8 8l7 43l-15 448l10 478q0 139 -10 237 q-20 6 -61 6l-49 -4q-39 0 -39 35q0 9 18.5 17t30.5 8q285 0 285 -62q0 -6 -5 -16l-47 -4q-16 12 -59 12l-10 -6q6 -18 6 -109l-6 -487l14 -449l-2 -63q0 -48 6 -57l-2 -5q0 -20 45 -20l60 2q61 0 61 -29q0 -18 -13 -29.5t-32 -11.5z" />
<glyph unicode="&#x12c;" horiz-adv-x="477" d="M310 1883.5q10 -8.5 10 -19.5t-11 -33l5 -15q-5 -10 -16 -35.5t-16 -35.5t-17 -27.5t-24 -24.5q-34 -20 -75 -20t-71.5 19t-46.5 51q-31 62 -31 139l22 18q14 -1 19 -32q20 -108 53 -132l22 -16h51q27 0 48.5 37.5t21.5 66.5l-2 29q0 39 37 39q11 0 21 -8.5zM360 8 l-65 10q-23 0 -47 -24q-46 0 -58 16h-5q-94 0 -109 35q0 23 47 23l45 -2q41 0 42 59t-5.5 144t-8 169t-11.5 327t-13 349l2 240q0 99 -6 119l-70 -15q-22 0 -22 28.5t90 47t122 18.5q54 0 54 -33.5t-25 -33.5l-49 2q-35 0 -42 -33q-7 -27 -7 -159t25.5 -523t25.5 -588 l-2 -106l74 6q53 0 53 -51z" />
<glyph unicode="&#x12d;" horiz-adv-x="550" d="M377 1689.5q10 -8.5 10 -19.5t-11 -33l5 -15q-5 -10 -16 -35.5t-16 -35.5t-17 -27.5t-24 -24.5q-34 -20 -75 -20t-71.5 19t-46.5 51q-31 62 -31 139l22 18q14 -1 19 -32q20 -108 53 -132l22 -16h51q27 0 48.5 37.5t21.5 66.5l-2 29q0 39 37 39q11 0 21 -8.5zM424 16 l-68 7q-16 0 -38 -11.5t-52.5 -11.5t-38.5 20l-34 -2q-44 0 -56 21q0 13 11.5 21.5t15.5 13.5h59l8 8l7 43l-15 448l10 478q0 139 -10 237q-20 6 -61 6l-49 -4q-39 0 -39 35q0 9 18.5 17t30.5 8q285 0 285 -62q0 -6 -5 -16l-47 -4q-16 12 -59 12l-10 -6q6 -18 6 -109 l-6 -487l14 -449l-2 -63q0 -48 6 -57l-2 -5q0 -20 45 -20l60 2q61 0 61 -29q0 -18 -13 -29.5t-32 -11.5z" />
<glyph unicode="&#x12e;" horiz-adv-x="477" d="M239 -406l66 21q22 0 22 -23.5t-29.5 -38t-58.5 -14.5q-62 0 -108.5 57t-46.5 105.5t14.5 98t35.5 86.5q44 76 77 109l14 15l59 -8q4 2 2 -2t-14 -21q-96 -131 -96 -211q0 -19 -4 -47l-2 -43q0 -26 22 -55t47 -29zM360 8l-65 10q-23 0 -47 -24q-46 0 -58 16h-5 q-94 0 -109 35q0 23 47 23l45 -2q41 0 42 59t-5.5 144t-8 169t-11.5 327t-13 349l2 240q0 99 -6 119l-70 -15q-22 0 -22 28.5t90 47t122 18.5q54 0 54 -33.5t-25 -33.5l-49 2q-35 0 -42 -33q-7 -27 -7 -159t25.5 -523t25.5 -588l-2 -106l74 6q53 0 53 -51z" />
<glyph unicode="&#x12f;" horiz-adv-x="550" d="M298 -400l66 21q22 0 22 -23.5t-29.5 -38t-58.5 -14.5q-62 0 -108.5 57t-46.5 105.5t14.5 98t35.5 86.5q44 76 77 109l14 15l59 -8q4 2 2 -2t-14 -21q-96 -131 -96 -211q0 -19 -4 -47l-2 -43q0 -26 22 -55t47 -29zM424 16l-68 7q-16 0 -38 -11.5t-52.5 -11.5t-38.5 20 l-34 -2q-44 0 -56 21q0 13 11.5 21.5t15.5 13.5h59l8 8l7 43l-15 448l10 478q0 139 -10 237q-20 6 -61 6l-49 -4q-39 0 -39 35q0 9 18.5 17t30.5 8q285 0 285 -62q0 -6 -5 -16l-47 -4q-16 12 -59 12l-10 -6q6 -18 6 -109l-6 -487l14 -449l-2 -63q0 -48 6 -57l-2 -5 q0 -20 45 -20l60 2q61 0 61 -29q0 -18 -13 -29.5t-32 -11.5z" />
<glyph unicode="&#x130;" horiz-adv-x="477" d="M136.5 1688.5q-13.5 15.5 -13.5 34.5t16.5 36.5t35.5 17.5t34.5 -17.5t15.5 -35.5q0 -51 -57 -51q-18 0 -31.5 15.5zM360 8l-65 10q-23 0 -47 -24q-46 0 -58 16h-5q-94 0 -109 35q0 23 47 23l45 -2q41 0 42 59t-5.5 144t-8 169t-11.5 327t-13 349l2 240q0 99 -6 119 l-70 -15q-22 0 -22 28.5t90 47t122 18.5q54 0 54 -33.5t-25 -33.5l-49 2q-35 0 -42 -33q-7 -27 -7 -159t25.5 -523t25.5 -588l-2 -106l74 6q53 0 53 -51z" />
<glyph unicode="&#x131;" horiz-adv-x="550" d="M424 16l-68 7q-16 0 -38 -11.5t-52.5 -11.5t-38.5 20l-34 -2q-44 0 -56 21q0 13 11.5 21.5t15.5 13.5h59l8 8l7 43l-15 448l10 478q0 139 -10 237q-20 6 -61 6l-49 -4q-39 0 -39 35q0 9 18.5 17t30.5 8q285 0 285 -62q0 -6 -5 -16l-47 -4q-16 12 -59 12l-10 -6 q6 -18 6 -109l-6 -487l14 -449l-2 -63q0 -48 6 -57l-2 -5q0 -20 45 -20l60 2q61 0 61 -29q0 -18 -13 -29.5t-32 -11.5z" />
<glyph unicode="&#x132;" horiz-adv-x="946" d="M807 305l-11 -168q0 -23 7 -37l-15 -32q-4 -73 -55 -148t-111 -119q-43 0 -43 39q2 19 35 40.5t39 27.5q90 90 90 313q0 106 -10 303t-14 347q-11 498 -33 618l-109 -19q-12 0 -20 9.5t-8 21.5q0 51 282 51q14 0 23.5 -9.5t9.5 -22.5q0 -31 -95 -31h-22l-2 -39 q0 -54 12.5 -162t12.5 -204.5t18.5 -368.5t18.5 -410zM686 -25q2 0 2 -2zM360 8l-65 10q-23 0 -47 -24q-46 0 -58 16h-5q-94 0 -109 35q0 23 47 23l45 -2q41 0 42 59t-5.5 144t-8 169t-11.5 327t-13 349l2 240q0 99 -6 119l-70 -15q-22 0 -22 28.5t90 47t122 18.5 q54 0 54 -33.5t-25 -33.5l-49 2q-35 0 -42 -33q-7 -27 -7 -159t25.5 -523t25.5 -588l-2 -106l74 6q53 0 53 -51z" />
<glyph unicode="&#x133;" horiz-adv-x="1124" d="M623 -205l-2 8q0 9 73.5 56.5t81.5 56.5q33 37 49.5 113t16.5 143l-19 1088l-12 22q-9 4 -50 10q-99 13 -99 43q0 8 17 16.5t50 8.5t175.5 -29t142.5 -56.5t-33 -27.5l-111 21q-18 0 -18 -41l20 -850v-225q-12 -27 -12 -77t-13 -101.5t-37 -103.5t-66 -87t-93 -35h-14z M424 16l-68 7q-16 0 -38 -11.5t-52.5 -11.5t-38.5 20l-34 -2q-44 0 -56 21q0 13 11.5 21.5t15.5 13.5h59l8 8l7 43l-15 448l10 478q0 139 -10 237q-20 6 -61 6l-49 -4q-39 0 -39 35q0 9 18.5 17t30.5 8q285 0 285 -62q0 -6 -5 -16l-47 -4q-16 12 -59 12l-10 -6q6 -18 6 -109 l-6 -487l14 -449l-2 -63q0 -48 6 -57l-2 -5q0 -20 45 -20l60 2q61 0 61 -29q0 -18 -13 -29.5t-32 -11.5z" />
<glyph unicode="&#x134;" horiz-adv-x="468" d="M310 1673l-27 17q-10 124 -59 307q-26 -66 -55 -156t-31 -110l-35 -47l-37 26q2 45 71.5 195.5t99.5 150.5t30 -41.5t9.5 -80t27 -86.5t24.5 -74l-2 -13l15 -30l-2 -11q8 -16 8 -22q0 -19 -37 -25zM330 305l-11 -168q0 -23 7 -37l-15 -32q-4 -73 -55 -148t-111 -119 q-43 0 -43 39q2 19 35 40.5t39 27.5q90 90 90 313q0 106 -10 303t-14 347q-11 498 -33 618l-109 -19q-12 0 -20 9.5t-8 21.5q0 51 282 51q14 0 23.5 -9.5t9.5 -22.5q0 -31 -95 -31h-22l-2 -39q0 -54 12.5 -162t12.5 -204.5t18.5 -368.5t18.5 -410zM209 -25q2 0 2 -2z" />
<glyph unicode="&#x135;" horiz-adv-x="573" d="M350 1478l-27 17q-10 124 -59 307q-26 -66 -55 -156t-31 -110l-35 -47l-37 26q2 45 71.5 195.5t99.5 150.5t30 -41.5t9.5 -80t27 -86.5t24.5 -74l-2 -13l15 -30l-2 -11q8 -16 8 -22q0 -19 -37 -25zM72 -205l-2 8q0 9 73.5 56.5t81.5 56.5q33 37 49.5 113t16.5 143 l-19 1088l-12 22q-9 4 -50 10q-99 13 -99 43q0 8 17 16.5t50 8.5t175.5 -29t142.5 -56.5t-33 -27.5l-111 21q-18 0 -18 -41l20 -850v-225q-12 -27 -12 -77t-13 -101.5t-37 -103.5t-66 -87t-93 -35h-14z" />
<glyph unicode="&#x136;" horiz-adv-x="690" d="M381 -303q-60 36 -60 90q0 28 24.5 46t53.5 18q46 0 68 -60l-4 -6q4 -8 4 -33.5t-25 -83.5t-65 -106t-74 -49l-33 16l4 18q107 86 107 150zM565 -47l-28 8q-40 237 -122 528.5t-149 419.5l-6 -4q-6 -24 -43 -87t-41 -99.5t-4 -143.5l10 -452q0 -129 -43 -129 q-37 0 -37 94.5t13.5 284t13.5 284.5l-8 736l-4 8l-15 96q0 43 35 43q18 0 25.5 -4t13.5 -28q10 -36 10 -205l-8 -439h2q41 87 109.5 257.5t77.5 191.5q111 284 145 284q35 0 35 -30q-5 -37 -26 -71t-26 -45t-34 -72.5t-50 -107t-47 -106.5q-57 -131 -61 -172l10 -18l-8 -6 q70 -176 161.5 -508t139.5 -469q-3 -39 -41 -39z" />
<glyph unicode="&#x137;" horiz-adv-x="677" d="M382 -293q-60 36 -60 90q0 28 24.5 46t53.5 18q46 0 68 -60l-4 -6q4 -8 4 -33.5t-25 -83.5t-65 -106t-74 -49l-33 16l4 18q107 86 107 150zM342 930l-4 -131q0 -93 70 -341q85 -298 144 -378q40 -53 40 -76q0 -41 -35 -41q-48 0 -115.5 184t-113.5 380.5t-49 267.5l-5 8 q-7 -15 -32.5 -66.5t-35.5 -73.5q-30 -71 -30 -145l-10 -147v-262l14 -117q0 -11 -10.5 -18t-29.5 -7t-28.5 8.5t-9.5 34.5v385l19 258l20 396v284q11 23 32.5 23t33.5 -12t12 -27q-18 -33 -18 -101t-4 -213t-4 -217q20 8 159.5 282.5t153.5 274.5q52 0 55 -34 q-128 -188 -219 -379z" />
<glyph unicode="&#x138;" horiz-adv-x="677" d="M342 930l-4 -131q0 -93 70 -341q85 -298 144 -378q40 -53 40 -76q0 -41 -35 -41q-48 0 -115.5 184t-113.5 380.5t-49 267.5l-5 8q-7 -15 -32.5 -66.5t-35.5 -73.5q-30 -71 -30 -145l-10 -147v-262l14 -117q0 -11 -10.5 -18t-29.5 -7t-28.5 8.5t-9.5 34.5v385l19 258 l20 396v284q11 23 32.5 23t33.5 -12t12 -27q-18 -33 -18 -101t-4 -213t-4 -217q20 8 159.5 282.5t153.5 274.5q52 0 55 -34q-128 -188 -219 -379z" />
<glyph unicode="&#x139;" horiz-adv-x="475" d="M198 1674q-37 0 -37 30q0 12 121.5 105.5t132.5 103.5q45 0 45 -32q0 -1 -6 -31q-103 -46 -256 -176zM293 0l-64 2q-11 0 -28 -12.5t-31 -12.5t-28.5 13t-14.5 30l12 93l-20 581l-21 856q0 21 27 21q39 0 39 -37q0 -473 10 -599.5t10 -156.5t-4 -80l6 -8 q-4 -54 -4 -109.5t10.5 -212.5t12.5 -223q-8 -12 -8 -41t9.5 -39t40.5 -10t42 13h76q28 -14 28 -32q0 -40 -28 -40q-7 0 -31 8q-10 -4 -41 -4z" />
<glyph unicode="&#x13a;" horiz-adv-x="497" d="M209 1479q-37 0 -37 30q0 12 121.5 105.5t132.5 103.5q45 0 45 -32q0 -1 -6 -31q-103 -46 -256 -176zM188 47l193 -6h6q11 0 21 -11.5t10 -23.5q0 -23 -33 -26q-53 2 -170 2l4 -2l-76 -7q-29 0 -34 47q4 20 4 68l12 1092l10 135q0 14 15 14l34 -8l-2 -162l2 -446 q-6 -168 -6 -172l4 -174l-6 -17l2 2l-2 -16q0 -17 6 -29l-6 -196v-13q0 -32 2 -41.5t10 -9.5z" />
<glyph unicode="&#x13b;" horiz-adv-x="475" d="M285 -279q-60 36 -60 90q0 28 24.5 46t53.5 18q46 0 68 -60l-4 -6q4 -8 4 -33.5t-25 -83.5t-65 -106t-74 -49l-33 16l4 18q107 86 107 150zM293 0l-64 2q-11 0 -28 -12.5t-31 -12.5t-28.5 13t-14.5 30l12 93l-20 581l-21 856q0 21 27 21q39 0 39 -37q0 -473 10 -599.5 t10 -156.5t-4 -80l6 -8q-4 -54 -4 -109.5t10.5 -212.5t12.5 -223q-8 -12 -8 -41t9.5 -39t40.5 -10t42 13h76q28 -14 28 -32q0 -40 -28 -40q-7 0 -31 8q-10 -4 -41 -4z" />
<glyph unicode="&#x13c;" horiz-adv-x="497" d="M289 -283q-60 36 -60 90q0 28 24.5 46t53.5 18q46 0 68 -60l-4 -6q4 -8 4 -33.5t-25 -83.5t-65 -106t-74 -49l-33 16l4 18q107 86 107 150zM188 47l193 -6h6q11 0 21 -11.5t10 -23.5q0 -23 -33 -26q-53 2 -170 2l4 -2l-76 -7q-29 0 -34 47q4 20 4 68l12 1092l10 135 q0 14 15 14l34 -8l-2 -162l2 -446q-6 -168 -6 -172l4 -174l-6 -17l2 2l-2 -16q0 -17 6 -29l-6 -196v-13q0 -32 2 -41.5t10 -9.5z" />
<glyph unicode="&#x13d;" horiz-adv-x="475" d="M501 1249l4 19q107 89 107 149q-25 14 -42 39t-17 52t24.5 45t52.5 18q46 0 68 -60l-4 -6q4 -8 4 -33t-25 -83t-65 -106.5t-74 -49.5zM293 0l-64 2q-11 0 -28 -12.5t-31 -12.5t-28.5 13t-14.5 30l12 93l-20 581l-21 856q0 21 27 21q39 0 39 -37q0 -473 10 -599.5 t10 -156.5t-4 -80l6 -8q-4 -54 -4 -109.5t10.5 -212.5t12.5 -223q-8 -12 -8 -41t9.5 -39t40.5 -10t42 13h76q28 -14 28 -32q0 -40 -28 -40q-7 0 -31 8q-10 -4 -41 -4z" />
<glyph unicode="&#x13e;" horiz-adv-x="497" d="M534 1055l4 19q107 89 107 149q-25 14 -42 39t-17 52t24.5 45t52.5 18q46 0 68 -60l-4 -6q4 -8 4 -33t-25 -83t-65 -106.5t-74 -49.5zM188 47l193 -6h6q11 0 21 -11.5t10 -23.5q0 -23 -33 -26q-53 2 -170 2l4 -2l-76 -7q-29 0 -34 47q4 20 4 68l12 1092l10 135 q0 14 15 14l34 -8l-2 -162l2 -446q-6 -168 -6 -172l4 -174l-6 -17l2 2l-2 -16q0 -17 6 -29l-6 -196v-13q0 -32 2 -41.5t10 -9.5z" />
<glyph unicode="&#x13f;" horiz-adv-x="475" d="M194.5 737.5q-13.5 15.5 -13.5 35t16.5 37t35.5 17.5t34.5 -17.5t15.5 -35.5q0 -52 -57 -52q-18 0 -31.5 15.5zM293 0l-64 2q-11 0 -28 -12.5t-31 -12.5t-28.5 13t-14.5 30l12 93l-20 581l-21 856q0 21 27 21q39 0 39 -37q0 -473 10 -599.5t10 -156.5t-4 -80l6 -8 q-4 -54 -4 -109.5t10.5 -212.5t12.5 -223q-8 -12 -8 -41t9.5 -39t40.5 -10t42 13h76q28 -14 28 -32q0 -40 -28 -40q-7 0 -31 8q-10 -4 -41 -4z" />
<glyph unicode="&#x140;" horiz-adv-x="825" d="M624.5 711.5q-13.5 15.5 -13.5 35t16.5 37t35.5 17.5t34.5 -17.5t15.5 -35.5q0 -52 -57 -52q-18 0 -31.5 15.5zM188 47l193 -6h6q11 0 21 -11.5t10 -23.5q0 -23 -33 -26q-53 2 -170 2l4 -2l-76 -7q-29 0 -34 47q4 20 4 68l12 1092l10 135q0 14 15 14l34 -8l-2 -162 l2 -446q-6 -168 -6 -172l4 -174l-6 -17l2 2l-2 -16q0 -17 6 -29l-6 -196v-13q0 -32 2 -41.5t10 -9.5z" />
<glyph unicode="&#x141;" horiz-adv-x="475" d="M293 0l-64 2q-11 0 -28 -12.5t-31 -12.5t-28.5 13t-14.5 30l12 93l-20 581l-21 856q0 21 27 21q39 0 39 -37q0 -473 10 -599.5t10 -156.5t-4 -80l6 -8q-4 -54 -4 -109.5t10.5 -212.5t12.5 -223q-8 -12 -8 -41t9.5 -39t40.5 -10t42 13h76q28 -14 28 -32q0 -40 -28 -40 q-7 0 -31 8q-10 -4 -41 -4zM436 739q0 -21 -133.5 -40t-183.5 -19t-64 9.5t-14 25.5q0 21 135 40t182 19q78 0 78 -35z" />
<glyph unicode="&#x142;" horiz-adv-x="497" d="M188 47l193 -6h6q11 0 21 -11.5t10 -23.5q0 -23 -33 -26q-53 2 -170 2l4 -2l-76 -7q-29 0 -34 47q4 20 4 68l12 1092l10 135q0 14 15 14l34 -8l-2 -162l2 -446q-6 -168 -6 -172l4 -174l-6 -17l2 2l-2 -16q0 -17 6 -29l-6 -196v-13q0 -32 2 -41.5t10 -9.5zM447 739 q0 -21 -133.5 -40t-183.5 -19t-64 9.5t-14 25.5q0 21 135 40t182 19q78 0 78 -35z" />
<glyph unicode="&#x143;" horiz-adv-x="772" d="M357 1698q-37 0 -37 30q0 12 121.5 105.5t132.5 103.5q45 0 45 -32q0 -1 -6 -31q-103 -46 -256 -176zM621 111l6 -74q0 -60 -52 -60q-36 0 -49 77q-7 36 -8 40q-200 631 -252 922q-2 9 -3 28q-2 41 -19 58l4 10q-13 76 -19.5 105.5t-14.5 66.5q-14 65 -36 117 q-6 -42 -6 -64t4 -34q-14 -48 -14 -142v-561q0 -98 14 -292t14 -292l-14 -16h-47l-6 16q4 16 4 82l-23 713v268l15 387l-2 43q0 26 13.5 34.5t35 8.5t37.5 -12.5t16 -39.5t9 -59t26 -71.5t26.5 -72t17.5 -104t19 -126.5t36 -148t57.5 -206t41.5 -148.5t24 -90.5 q32 -114 34 -161q14 -21 21.5 -81t33.5 -82q13 29 13 98l8 713l-6 317l6 78q0 22 -6 26l6 17q0 126 -8 168q8 28 51 28q33 0 33 -67q-13 -26 -13 -68l2 -69q0 -44 -8 -62l-6 -647q0 -19 4 -55l-4 -9v-258l4 -77q0 -122 -20 -168v-4z" />
<glyph unicode="&#x144;" horiz-adv-x="862" d="M401 1479q-37 0 -37 30q0 12 121.5 105.5t132.5 103.5q45 0 45 -32q0 -1 -6 -31q-103 -46 -256 -176zM682 1247l-4 51q0 43 29 43q20 0 32.5 -19t12.5 -40v-137l-11 -17q0 -160 -22 -619.5t-43 -502.5q-5 -1 -29.5 -7.5t-34.5 -6.5t-18 13.5t-12.5 35.5t-8.5 29l2 6 q-13 85 -53.5 194.5t-52.5 147.5q-7 9 -55 153q-184 571 -232 617q-16 -63 -16 -144l4 -161l-4 -99q0 -23 8 -143h-6q0 -341 14 -377v-184q8 -14 8 -36q0 -48 -38 -48q-43 0 -43 110l8 134l-13 589l13 363v36q0 27 1.5 36t3 21.5t4.5 19.5t7 16q8 18 21 29l6 -7l20 5 q23 -8 28 -32q0 -2 2.5 -11.5t2.5 -10.5q35 -146 147 -407t136 -335.5t43 -157.5q42 -184 92 -269l4 6q47 447 47 1116zM639 -2q2 0 2 -2z" />
<glyph unicode="&#x145;" horiz-adv-x="772" d="M445 -279q-60 36 -60 90q0 28 24.5 46t53.5 18q46 0 68 -60l-4 -6q4 -8 4 -33.5t-25 -83.5t-65 -106t-74 -49l-33 16l4 18q107 86 107 150zM621 111l6 -74q0 -60 -52 -60q-36 0 -49 77q-7 36 -8 40q-200 631 -252 922q-2 9 -3 28q-2 41 -19 58l4 10q-13 76 -19.5 105.5 t-14.5 66.5q-14 65 -36 117q-6 -42 -6 -64t4 -34q-14 -48 -14 -142v-561q0 -98 14 -292t14 -292l-14 -16h-47l-6 16q4 16 4 82l-23 713v268l15 387l-2 43q0 26 13.5 34.5t35 8.5t37.5 -12.5t16 -39.5t9 -59t26 -71.5t26.5 -72t17.5 -104t19 -126.5t36 -148t57.5 -206 t41.5 -148.5t24 -90.5q32 -114 34 -161q14 -21 21.5 -81t33.5 -82q13 29 13 98l8 713l-6 317l6 78q0 22 -6 26l6 17q0 126 -8 168q8 28 51 28q33 0 33 -67q-13 -26 -13 -68l2 -69q0 -44 -8 -62l-6 -647q0 -19 4 -55l-4 -9v-258l4 -77q0 -122 -20 -168v-4z" />
<glyph unicode="&#x146;" horiz-adv-x="862" d="M480 -264q-60 36 -60 90q0 28 24.5 46t53.5 18q46 0 68 -60l-4 -6q4 -8 4 -33.5t-25 -83.5t-65 -106t-74 -49l-33 16l4 18q107 86 107 150zM682 1247l-4 51q0 43 29 43q20 0 32.5 -19t12.5 -40v-137l-11 -17q0 -160 -22 -619.5t-43 -502.5q-5 -1 -29.5 -7.5t-34.5 -6.5 t-18 13.5t-12.5 35.5t-8.5 29l2 6q-13 85 -53.5 194.5t-52.5 147.5q-7 9 -55 153q-184 571 -232 617q-16 -63 -16 -144l4 -161l-4 -99q0 -23 8 -143h-6q0 -341 14 -377v-184q8 -14 8 -36q0 -48 -38 -48q-43 0 -43 110l8 134l-13 589l13 363v36q0 27 1.5 36t3 21.5t4.5 19.5 t7 16q8 18 21 29l6 -7l20 5q23 -8 28 -32q0 -2 2.5 -11.5t2.5 -10.5q35 -146 147 -407t136 -335.5t43 -157.5q42 -184 92 -269l4 6q47 447 47 1116zM639 -2q2 0 2 -2z" />
<glyph unicode="&#x147;" horiz-adv-x="772" d="M421 2065l27 16q37 -6 37 -24q0 -7 -8 -23l2 -10l-15 -31l2 -12q-7 -26 -24 -75q-37 -101 -37 -154.5t-30 -53.5t-99.5 150.5t-71.5 195.5l37 27l35 -47q3 -34 43.5 -147.5t42.5 -118.5q49 183 59 307zM621 111l6 -74q0 -60 -52 -60q-36 0 -49 77q-7 36 -8 40 q-200 631 -252 922q-2 9 -3 28q-2 41 -19 58l4 10q-13 76 -19.5 105.5t-14.5 66.5q-14 65 -36 117q-6 -42 -6 -64t4 -34q-14 -48 -14 -142v-561q0 -98 14 -292t14 -292l-14 -16h-47l-6 16q4 16 4 82l-23 713v268l15 387l-2 43q0 26 13.5 34.5t35 8.5t37.5 -12.5t16 -39.5 t9 -59t26 -71.5t26.5 -72t17.5 -104t19 -126.5t36 -148t57.5 -206t41.5 -148.5t24 -90.5q32 -114 34 -161q14 -21 21.5 -81t33.5 -82q13 29 13 98l8 713l-6 317l6 78q0 22 -6 26l6 17q0 126 -8 168q8 28 51 28q33 0 33 -67q-13 -26 -13 -68l2 -69q0 -44 -8 -62l-6 -647 q0 -19 4 -55l-4 -9v-258l4 -77q0 -122 -20 -168v-4z" />
<glyph unicode="&#x148;" horiz-adv-x="862" d="M465 1845l27 16q37 -6 37 -24q0 -7 -8 -23l2 -10l-15 -31l2 -12q-7 -26 -24 -75q-37 -101 -37 -154.5t-30 -53.5t-99.5 150.5t-71.5 195.5l37 27l35 -47q3 -34 43.5 -147.5t42.5 -118.5q49 183 59 307zM682 1247l-4 51q0 43 29 43q20 0 32.5 -19t12.5 -40v-137l-11 -17 q0 -160 -22 -619.5t-43 -502.5q-5 -1 -29.5 -7.5t-34.5 -6.5t-18 13.5t-12.5 35.5t-8.5 29l2 6q-13 85 -53.5 194.5t-52.5 147.5q-7 9 -55 153q-184 571 -232 617q-16 -63 -16 -144l4 -161l-4 -99q0 -23 8 -143h-6q0 -341 14 -377v-184q8 -14 8 -36q0 -48 -38 -48 q-43 0 -43 110l8 134l-13 589l13 363v36q0 27 1.5 36t3 21.5t4.5 19.5t7 16q8 18 21 29l6 -7l20 5q23 -8 28 -32q0 -2 2.5 -11.5t2.5 -10.5q35 -146 147 -407t136 -335.5t43 -157.5q42 -184 92 -269l4 6q47 447 47 1116zM639 -2q2 0 2 -2z" />
<glyph unicode="&#x14a;" horiz-adv-x="772" d="M627 37l-11 -168q0 -20 -10.5 -90.5t-57.5 -136.5t-106 -109q-43 0 -43 39q2 19 35 40.5t39 27.5q90 90 90 313v18q-12 17 -54.5 153t-74.5 239q-120 385 -168 653q-2 9 -3 28q-2 41 -19 58l4 10q-13 76 -19.5 105.5t-14.5 66.5q-14 65 -36 117q-6 -42 -6 -64t4 -34 q-14 -48 -14 -142v-561q0 -98 14 -292t14 -292l-14 -16h-47l-6 16q4 16 4 82l-23 713v268l15 387l-2 43q0 26 13.5 34.5t35 8.5t37.5 -12.5t16 -39.5t9 -59t26 -71.5t26.5 -72t17.5 -104t19 -126.5t36 -148t57.5 -206t42.5 -151t28.5 -127.5t28.5 -121.5l59 -198 q9 104 9 133l8 713l-6 317l6 78q0 22 -6 26l6 17v47q0 82 -8 121q8 28 51 28q33 0 33 -67q-13 -26 -13 -68l2 -69q0 -44 -8 -62l-6 -647q0 -19 4 -55l-4 -9v-258z" />
<glyph unicode="&#x14b;" horiz-adv-x="862" d="M393 -410l-2 9q0 6 19 11q75 19 116 54q74 63 84 270l-35 142q-24 94 -59 199t-47 143q-9 9 -32 80.5t-23 72.5q-184 571 -232 617q-16 -63 -16 -144l4 -161l-4 -99l4 -108l-2 -35q0 -341 14 -377v-184q8 -14 8 -36q0 -48 -38 -48q-43 0 -43 110l8 134l-13 589l13 363v12 q0 113 37 146l6 -7l20 5q23 -8 28 -32q0 -2 2.5 -11.5t2.5 -10.5q35 -146 147 -407t136 -335.5t43 -157.5q42 -184 92 -269l4 6q47 447 47 1116l-4 51q0 43 29 43q20 0 32.5 -19t12.5 -40v-137l-11 -17q0 -105 -32 -599.5t-33 -516.5v-65q0 -168 -74 -289 q-26 -43 -71.5 -72.5t-102.5 -29.5z" />
<glyph unicode="&#x14c;" d="M500 1687.5q-1 -14.5 -130 -14.5h-122.5t-66.5 1t-31.5 3t-22.5 6q-21 6 -21 23q2 17 131 17h116q118 0 133 -10.5t14 -25zM586 618l-19 -264l4 -8q-16 -69 -16 -124t-22 -113.5t-65.5 -105t-93.5 -46.5t-93 38t-71.5 97.5t-50 141t-33.5 160t-20 162.5 q-12 140 -12 242.5t9 233.5t10 169t2 67t5 69.5t10.5 71t19.5 62.5t32 53q42 47 117.5 47t124.5 -41q7 -11 36.5 -49t44 -72.5t32.5 -169.5q49 -350 49 -621zM303 1518q-151 0 -151 -607v-80q0 -142 21.5 -305.5t45 -265.5t66 -174t94.5 -72q70 0 102 142.5t38 253.5 q7 152 7 198v49q0 38 -0.5 64.5t-1.5 87t-4 107.5t-8 114t-14 119.5t-20.5 112t-28 102.5t-37.5 80q-43 74 -109 74z" />
<glyph unicode="&#x14d;" horiz-adv-x="673" d="M498 1492.5q-1 -14.5 -130 -14.5h-122.5t-66.5 1t-31.5 3t-22.5 6q-21 6 -21 23q2 17 131 17h116q118 0 133 -10.5t14 -25zM559 791l4 -244q0 -461 -148 -561q-36 -25 -81 -25q-240 0 -240 754q0 291 40 505q30 156 91 156q14 0 26.5 -11t34 -18.5t59 -14.5t53.5 -10 q41 -7 79 -79q86 -146 86 -442zM158 717l4 -162q0 -195 44 -371q16 -66 47.5 -115t72 -49t71 30t48.5 83.5t30 109t17 124.5q8 110 8 196l-23 484l-8 16l4 10q0 89 -50 155t-122 66h-86q-17 0 -30 -182.5t-17 -202.5z" />
<glyph unicode="&#x14e;" d="M438 1883.5q10 -8.5 10 -19.5t-11 -33l5 -15q-5 -10 -16 -35.5t-16 -35.5t-17 -27.5t-24 -24.5q-34 -20 -75 -20t-71.5 19t-46.5 51q-31 62 -31 139l22 18q14 -1 19 -32q20 -108 53 -132l22 -16h51q27 0 48.5 37.5t21.5 66.5l-2 29q0 39 37 39q11 0 21 -8.5zM586 618 l-19 -264l4 -8q-16 -69 -16 -124t-22 -113.5t-65.5 -105t-93.5 -46.5t-93 38t-71.5 97.5t-50 141t-33.5 160t-20 162.5q-12 140 -12 242.5t9 233.5t10 169t2 67t5 69.5t10.5 71t19.5 62.5t32 53q42 47 117.5 47t124.5 -41q7 -11 36.5 -49t44 -72.5t32.5 -169.5 q49 -350 49 -621zM303 1518q-151 0 -151 -607v-80q0 -142 21.5 -305.5t45 -265.5t66 -174t94.5 -72q70 0 102 142.5t38 253.5q7 152 7 198v49q0 38 -0.5 64.5t-1.5 87t-4 107.5t-8 114t-14 119.5t-20.5 112t-28 102.5t-37.5 80q-43 74 -109 74z" />
<glyph unicode="&#x14f;" horiz-adv-x="673" d="M436 1689.5q10 -8.5 10 -19.5t-11 -33l5 -15q-5 -10 -16 -35.5t-16 -35.5t-17 -27.5t-24 -24.5q-34 -20 -75 -20t-71.5 19t-46.5 51q-31 62 -31 139l22 18q14 -1 19 -32q20 -108 53 -132l22 -16h51q27 0 48.5 37.5t21.5 66.5l-2 29q0 39 37 39q11 0 21 -8.5zM559 791 l4 -244q0 -461 -148 -561q-36 -25 -81 -25q-240 0 -240 754q0 291 40 505q30 156 91 156q14 0 26.5 -11t34 -18.5t59 -14.5t53.5 -10q41 -7 79 -79q86 -146 86 -442zM158 717l4 -162q0 -195 44 -371q16 -66 47.5 -115t72 -49t71 30t48.5 83.5t30 109t17 124.5q8 110 8 196 l-23 484l-8 16l4 10q0 89 -50 155t-122 66h-86q-17 0 -30 -182.5t-17 -202.5z" />
<glyph unicode="&#x150;" d="M143 1684q5 22 172 152t186 130q4 0 13.5 -10.5t9.5 -21.5t-7.5 -15.5t-56.5 -41.5t-94 -71t-61.5 -42.5t-67 -45.5t-84.5 -45zM508 1702q-38 -23 -47.5 -23t-9.5 15.5t103 91.5t179 120.5t86 44.5t24 -17t17 -33l-106 -60q-69 -27 -138.5 -71.5t-107.5 -67.5zM586 618 l-19 -264l4 -8q-16 -69 -16 -124t-22 -113.5t-65.5 -105t-93.5 -46.5t-93 38t-71.5 97.5t-50 141t-33.5 160t-20 162.5q-12 140 -12 242.5t9 233.5t10 169t2 67t5 69.5t10.5 71t19.5 62.5t32 53q42 47 117.5 47t124.5 -41q7 -11 36.5 -49t44 -72.5t32.5 -169.5 q49 -350 49 -621zM303 1518q-151 0 -151 -607v-80q0 -142 21.5 -305.5t45 -265.5t66 -174t94.5 -72q70 0 102 142.5t38 253.5q7 152 7 198v49q0 38 -0.5 64.5t-1.5 87t-4 107.5t-8 114t-14 119.5t-20.5 112t-28 102.5t-37.5 80q-43 74 -109 74z" />
<glyph unicode="&#x151;" horiz-adv-x="673" d="M141 1489q5 22 172 152t186 130q4 0 13.5 -10.5t9.5 -21.5t-7.5 -15.5t-56.5 -41.5t-94 -71t-61.5 -42.5t-67 -45.5t-84.5 -45zM506 1507q-38 -23 -47.5 -23t-9.5 15.5t103 91.5t179 120.5t86 44.5t24 -17t17 -33l-106 -60q-69 -27 -138.5 -71.5t-107.5 -67.5zM559 791 l4 -244q0 -461 -148 -561q-36 -25 -81 -25q-240 0 -240 754q0 291 40 505q30 156 91 156q14 0 26.5 -11t34 -18.5t59 -14.5t53.5 -10q41 -7 79 -79q86 -146 86 -442zM158 717l4 -162q0 -195 44 -371q16 -66 47.5 -115t72 -49t71 30t48.5 83.5t30 109t17 124.5q8 110 8 196 l-23 484l-8 16l4 10q0 89 -50 155t-122 66h-86q-17 0 -30 -182.5t-17 -202.5z" />
<glyph unicode="&#x152;" horiz-adv-x="1163" d="M1073 -14l-311 -6q-46 0 -49 30l12 33q-21 -3 -69.5 -18t-75.5 -15q-231 0 -356 157q-120 149 -120 378l-10 420q0 294 110 475q69 112 187 112q223 0 295 -79l-6 22l31 43l80 -12h151l45 4q31 -21 31 -37q0 -23 -37 -23l-242 9q0 -76 14.5 -227.5t14.5 -227.5l-4 -106 q0 -50 10 -84l80 -3l53 5q30 0 49 -25q0 -19 -6.5 -26t-25.5 -7l-93 6q-59 0 -59 -18l14 -731q144 8 158 8q141 0 141 -39zM143 967l2 -146q0 -48 -2 -73l4 -7q0 -102 18 -249q35 -285 103 -295q115 -125 262 -125q130 0 180 38q23 18 23 44q0 167 -14 499.5t-14 499.5 l-13 248q-72 96 -266 96q-123 0 -186 -97q-61 -95 -76 -186q-21 -137 -21 -247z" />
<glyph unicode="&#x153;" horiz-adv-x="1165" d="M500 16l2 52l-6 8q7 22 10 41q-57 -156 -172 -156q-240 0 -240 754q0 291 40 505q30 156 91 156q14 0 26.5 -11t34 -18.5t59 -14.5t53.5 -10q41 -7 79 -79q16 -27 33 -69q-4 78 -4 118q0 58 59 58q23 0 33 -13q7 -2 60 -8q125 -14 128 -51q0 -16 -38 -39q-113 37 -166 39 l-11 -12q2 -29 2 -88l-8 -318q0 -57 29 -57l70 4q77 0 79 -37q0 -21 -10.5 -37t-37.5 -16t-40 16l-67 10h-8l-11 -16q4 -53 4 -162l-4 -291q0 -204 28 -226q19 -15 67 -15l75 4q60 0 60 -27q0 -37 -88 -37h-170q-38 0 -41 43zM158 717l4 -162q0 -195 44 -371 q16 -66 47.5 -115t72 -49t71 30t48.5 83.5t30 109t17 124.5q8 110 8 196l-23 484l-8 16l4 10q0 89 -50 155t-122 66h-86q-17 0 -30 -182.5t-17 -202.5z" />
<glyph unicode="&#x154;" horiz-adv-x="591" d="M243 1674q-37 0 -37 30q0 12 121.5 105.5t132.5 103.5q45 0 45 -32q0 -1 -6 -31q-103 -46 -256 -176zM121 1501l-4 37q0 18 41 18q84 0 128.5 -47t59 -101t22.5 -82q17 -61 17 -95q0 -103 -57 -248q-37 -92 -37 -102q0 -100 80 -403.5t131 -430.5q0 -67 -27 -67 q-21 0 -34.5 18.5t-16.5 21.5q-6 80 -52.5 222.5t-57 190t-37.5 193.5t-48 224l-16 12l-39 -16v-768l4 -51q0 -41 -37 -41q-15 0 -25 9.5t-10 24.5l7 11l8 1243v227zM178 1491l-10 -447q0 -88 6 -131h4q15 0 53.5 42t53 67t23.5 83t9 96.5t-5.5 80.5t-17.5 91t-38 81.5 t-61 32.5v6z" />
<glyph unicode="&#x155;" horiz-adv-x="550" d="M245 1479q-37 0 -37 30q0 12 121.5 105.5t132.5 103.5q45 0 45 -32q0 -1 -6 -31q-103 -46 -256 -176zM102 1288q0 78 45 78q100 0 165 -50.5t65 -148.5v-149q0 -79 -80 -226q-27 -49 -27 -53.5t77.5 -324t81.5 -329.5t20 -42t16 -55t-23 -23l-30 10q-48 54 -105 400 q-55 334 -94 334h-8q-45 0 -45 -29q0 -112 13 -372.5t22 -291.5l-15 -34h-30l-15 16q-33 887 -33 1290zM160 1260l8 -496l4 -4q39 0 70 40.5t47 98.5q33 120 33 182t-4 93.5t-17 66.5q-27 72 -117 72q-12 0 -18 -19t-6 -34z" />
<glyph unicode="&#x156;" horiz-adv-x="591" d="M330 -276q-60 36 -60 90q0 28 24.5 46t53.5 18q46 0 68 -60l-4 -6q4 -8 4 -33.5t-25 -83.5t-65 -106t-74 -49l-33 16l4 18q107 86 107 150zM121 1501l-4 37q0 18 41 18q84 0 128.5 -47t59 -101t22.5 -82q17 -61 17 -95q0 -103 -57 -248q-37 -92 -37 -102 q0 -100 80 -403.5t131 -430.5q0 -67 -27 -67q-21 0 -34.5 18.5t-16.5 21.5q-6 80 -52.5 222.5t-57 190t-37.5 193.5t-48 224l-16 12l-39 -16v-768l4 -51q0 -41 -37 -41q-15 0 -25 9.5t-10 24.5l7 11l8 1243v227zM178 1491l-10 -447q0 -88 6 -131h4q15 0 53.5 42t53 67 t23.5 83t9 96.5t-5.5 80.5t-17.5 91t-38 81.5t-61 32.5v6z" />
<glyph unicode="&#x157;" horiz-adv-x="550" d="M325 -291q-60 36 -60 90q0 28 24.5 46t53.5 18q46 0 68 -60l-4 -6q4 -8 4 -33.5t-25 -83.5t-65 -106t-74 -49l-33 16l4 18q107 86 107 150zM102 1288q0 78 45 78q100 0 165 -50.5t65 -148.5v-149q0 -79 -80 -226q-27 -49 -27 -53.5t77.5 -324t81.5 -329.5t20 -42t16 -55 t-23 -23l-30 10q-48 54 -105 400q-55 334 -94 334h-8q-45 0 -45 -29q0 -112 13 -372.5t22 -291.5l-15 -34h-30l-15 16q-33 887 -33 1290zM160 1260l8 -496l4 -4q39 0 70 40.5t47 98.5q33 120 33 182t-4 93.5t-17 66.5q-27 72 -117 72q-12 0 -18 -19t-6 -34z" />
<glyph unicode="&#x158;" horiz-adv-x="591" d="M307 2040l27 16q37 -6 37 -24q0 -7 -8 -23l2 -10l-15 -31l2 -12q-7 -26 -24 -75q-37 -101 -37 -154.5t-30 -53.5t-99.5 150.5t-71.5 195.5l37 27l35 -47q3 -34 43.5 -147.5t42.5 -118.5q49 183 59 307zM121 1501l-4 37q0 18 41 18q84 0 128.5 -47t59 -101t22.5 -82 q17 -61 17 -95q0 -103 -57 -248q-37 -92 -37 -102q0 -100 80 -403.5t131 -430.5q0 -67 -27 -67q-21 0 -34.5 18.5t-16.5 21.5q-6 80 -52.5 222.5t-57 190t-37.5 193.5t-48 224l-16 12l-39 -16v-768l4 -51q0 -41 -37 -41q-15 0 -25 9.5t-10 24.5l7 11l8 1243v227zM178 1491 l-10 -447q0 -88 6 -131h4q15 0 53.5 42t53 67t23.5 83t9 96.5t-5.5 80.5t-17.5 91t-38 81.5t-61 32.5v6z" />
<glyph unicode="&#x159;" horiz-adv-x="550" d="M308 1845l27 16q37 -6 37 -24q0 -7 -8 -23l2 -10l-15 -31l2 -12q-7 -26 -24 -75q-37 -101 -37 -154.5t-30 -53.5t-99.5 150.5t-71.5 195.5l37 27l35 -47q3 -34 43.5 -147.5t42.5 -118.5q49 183 59 307zM102 1288q0 78 45 78q100 0 165 -50.5t65 -148.5v-149 q0 -79 -80 -226q-27 -49 -27 -53.5t77.5 -324t81.5 -329.5t20 -42t16 -55t-23 -23l-30 10q-48 54 -105 400q-55 334 -94 334h-8q-45 0 -45 -29q0 -112 13 -372.5t22 -291.5l-15 -34h-30l-15 16q-33 887 -33 1290zM160 1260l8 -496l4 -4q39 0 70 40.5t47 98.5q33 120 33 182 t-4 93.5t-17 66.5q-27 72 -117 72q-12 0 -18 -19t-6 -34z" />
<glyph unicode="&#x15a;" horiz-adv-x="569" d="M219 1676q-37 0 -37 30q0 12 121.5 105.5t132.5 103.5q45 0 45 -32q0 -1 -6 -31q-103 -46 -256 -176zM395 692l-2 -8q0 -1 47 -158q31 -122 31 -188t-15.5 -129t-45 -121t-81 -95.5t-99 -37.5t-67.5 2q-59 6 -83 49q0 25 21.5 25t58 -15.5t69.5 -15.5t70.5 38t57.5 94 q40 114 40 213.5t-30 202.5t-73.5 188t-86.5 170q-103 202 -103 382q0 149 90 238q49 47 115 47q21 0 54 -16.5t40 -34.5l-12 -23q-46 0 -67 21q-49 0 -84 -37q-66 -68 -66 -178q0 -81 13 -134.5t20 -81.5t25 -71t26.5 -64t33 -69t32 -62t37 -67.5t34.5 -63.5z" />
<glyph unicode="&#x15b;" horiz-adv-x="489" d="M191 1481q-37 0 -37 30q0 12 121.5 105.5t132.5 103.5q45 0 45 -32q0 -1 -6 -31q-103 -46 -256 -176zM303 1305l-43 12q-32 0 -56 -25.5t-36 -63.5q-25 -74 -25 -116t2 -60t7.5 -42t7.5 -34t11.5 -41.5t10.5 -35.5l15 -37q20 -36 52 -90.5t48 -82.5t37 -73.5t30 -82.5 q25 -95 25 -170.5t-6 -121t-22.5 -93.5t-40.5 -84q-55 -84 -154 -84l-10 -5q-60 11 -66 50l10 16l74 -14q47 0 81 36.5t51 92.5q30 104 30 192.5t-25.5 167t-61.5 143.5l-72 130q-87 157 -87 309q0 78 28 149q51 131 134 131q23 0 50.5 -17.5t27.5 -39.5q0 -16 -27 -16z M317 1313v-2h2q0 2 -2 2z" />
<glyph unicode="&#x15c;" horiz-adv-x="569" d="M321 1675l-27 17q-10 124 -59 307q-26 -66 -55 -156t-31 -110l-35 -47l-37 26q2 45 71.5 195.5t99.5 150.5t30 -41.5t9.5 -80t27 -86.5t24.5 -74l-2 -13l15 -30l-2 -11q8 -16 8 -22q0 -19 -37 -25zM395 692l-2 -8q0 -1 47 -158q31 -122 31 -188t-15.5 -129t-45 -121 t-81 -95.5t-99 -37.5t-67.5 2q-59 6 -83 49q0 25 21.5 25t58 -15.5t69.5 -15.5t70.5 38t57.5 94q40 114 40 213.5t-30 202.5t-73.5 188t-86.5 170q-103 202 -103 382q0 149 90 238q49 47 115 47q21 0 54 -16.5t40 -34.5l-12 -23q-46 0 -67 21q-49 0 -84 -37 q-66 -68 -66 -178q0 -81 13 -134.5t20 -81.5t25 -71t26.5 -64t33 -69t32 -62t37 -67.5t34.5 -63.5z" />
<glyph unicode="&#x15d;" horiz-adv-x="489" d="M293 1480l-27 17q-10 124 -59 307q-26 -66 -55 -156t-31 -110l-35 -47l-37 26q2 45 71.5 195.5t99.5 150.5t30 -41.5t9.5 -80t27 -86.5t24.5 -74l-2 -13l15 -30l-2 -11q8 -16 8 -22q0 -19 -37 -25zM303 1305l-43 12q-32 0 -56 -25.5t-36 -63.5q-25 -74 -25 -116t2 -60 t7.5 -42t7.5 -34t11.5 -41.5t10.5 -35.5l15 -37q20 -36 52 -90.5t48 -82.5t37 -73.5t30 -82.5q25 -95 25 -170.5t-6 -121t-22.5 -93.5t-40.5 -84q-55 -84 -154 -84l-10 -5q-60 11 -66 50l10 16l74 -14q47 0 81 36.5t51 92.5q30 104 30 192.5t-25.5 167t-61.5 143.5l-72 130 q-87 157 -87 309q0 78 28 149q51 131 134 131q23 0 50.5 -17.5t27.5 -39.5q0 -16 -27 -16zM317 1313v-2h2q0 2 -2 2z" />
<glyph unicode="&#x15e;" horiz-adv-x="569" d="M364 -211l-55 -7q-31 0 -56 41q17 39 17 117v23l59 8q-8 -47 -8 -103q149 -10 149 -206q0 -48 -46.5 -105t-108.5 -57q-29 0 -58.5 14.5t-29.5 38t22 23.5q13 0 33 -10.5t39 -10.5t41 29t22 55l-6 29q0 6 9 11.5t10 6.5q0 53 -8 71.5t-25 31.5zM395 692l-2 -8 q0 -1 47 -158q31 -122 31 -188t-15.5 -129t-45 -121t-81 -95.5t-99 -37.5t-67.5 2q-59 6 -83 49q0 25 21.5 25t58 -15.5t69.5 -15.5t70.5 38t57.5 94q40 114 40 213.5t-30 202.5t-73.5 188t-86.5 170q-103 202 -103 382q0 149 90 238q49 47 115 47q21 0 54 -16.5t40 -34.5 l-12 -23q-46 0 -67 21q-49 0 -84 -37q-66 -68 -66 -178q0 -81 13 -134.5t20 -81.5t25 -71t26.5 -64t33 -69t32 -62t37 -67.5t34.5 -63.5z" />
<glyph unicode="&#x15f;" horiz-adv-x="489" d="M328 -191l-55 -7q-31 0 -56 41q17 39 17 117v23l59 8q-8 -47 -8 -103q149 -10 149 -206q0 -48 -46.5 -105t-108.5 -57q-29 0 -58.5 14.5t-29.5 38t22 23.5q13 0 33 -10.5t39 -10.5t41 29t22 55l-6 29q0 6 9 11.5t10 6.5q0 53 -8 71.5t-25 31.5zM303 1305l-43 12 q-32 0 -56 -25.5t-36 -63.5q-25 -74 -25 -116t2 -60t7.5 -42t7.5 -34t11.5 -41.5t10.5 -35.5l15 -37q20 -36 52 -90.5t48 -82.5t37 -73.5t30 -82.5q25 -95 25 -170.5t-6 -121t-22.5 -93.5t-40.5 -84q-55 -84 -154 -84l-10 -5q-60 11 -66 50l10 16l74 -14q47 0 81 36.5 t51 92.5q30 104 30 192.5t-25.5 167t-61.5 143.5l-72 130q-87 157 -87 309q0 78 28 149q51 131 134 131q23 0 50.5 -17.5t27.5 -39.5q0 -16 -27 -16zM317 1313v-2h2q0 2 -2 2z" />
<glyph unicode="&#x160;" horiz-adv-x="569" d="M283 2042l27 16q37 -6 37 -24q0 -7 -8 -23l2 -10l-15 -31l2 -12q-7 -26 -24 -75q-37 -101 -37 -154.5t-30 -53.5t-99.5 150.5t-71.5 195.5l37 27l35 -47q3 -34 43.5 -147.5t42.5 -118.5q49 183 59 307zM395 692l-2 -8q0 -1 47 -158q31 -122 31 -188t-15.5 -129t-45 -121 t-81 -95.5t-99 -37.5t-67.5 2q-59 6 -83 49q0 25 21.5 25t58 -15.5t69.5 -15.5t70.5 38t57.5 94q40 114 40 213.5t-30 202.5t-73.5 188t-86.5 170q-103 202 -103 382q0 149 90 238q49 47 115 47q21 0 54 -16.5t40 -34.5l-12 -23q-46 0 -67 21q-49 0 -84 -37 q-66 -68 -66 -178q0 -81 13 -134.5t20 -81.5t25 -71t26.5 -64t33 -69t32 -62t37 -67.5t34.5 -63.5z" />
<glyph unicode="&#x161;" horiz-adv-x="489" d="M254 1847l27 16q37 -6 37 -24q0 -7 -8 -23l2 -10l-15 -31l2 -12q-7 -26 -24 -75q-37 -101 -37 -154.5t-30 -53.5t-99.5 150.5t-71.5 195.5l37 27l35 -47q3 -34 43.5 -147.5t42.5 -118.5q49 183 59 307zM303 1305l-43 12q-32 0 -56 -25.5t-36 -63.5q-25 -74 -25 -116 t2 -60t7.5 -42t7.5 -34t11.5 -41.5t10.5 -35.5l15 -37q20 -36 52 -90.5t48 -82.5t37 -73.5t30 -82.5q25 -95 25 -170.5t-6 -121t-22.5 -93.5t-40.5 -84q-55 -84 -154 -84l-10 -5q-60 11 -66 50l10 16l74 -14q47 0 81 36.5t51 92.5q30 104 30 192.5t-25.5 167t-61.5 143.5 l-72 130q-87 157 -87 309q0 78 28 149q51 131 134 131q23 0 50.5 -17.5t27.5 -39.5q0 -16 -27 -16zM317 1313v-2h2q0 2 -2 2z" />
<glyph unicode="&#x162;" horiz-adv-x="542" d="M405 -178l-55 -7q-31 0 -56 41q17 39 17 117v23l59 8q-8 -47 -8 -103q149 -10 149 -206q0 -48 -46.5 -105t-108.5 -57q-29 0 -58.5 14.5t-29.5 38t22 23.5q13 0 33 -10.5t39 -10.5t41 29t22 55l-6 29q0 6 9 11.5t10 6.5q0 53 -8 71.5t-25 31.5zM342 545l10 -477 q0 -80 -35 -80q-21 0 -32 28.5t-11 53.5l17 336q0 108 -14.5 326.5t-14.5 328.5l2 192q0 211 -35 211l-116 -12q-15 0 -29 9.5t-14 25.5q0 21 136 40t216 19q15 0 29 -10.5t14 -24.5q0 -30 -39 -30l-76 6q-35 0 -43 -21q15 -129 15 -266l-3 -248q0 -242 29 -348 q-6 -30 -6 -59z" />
<glyph unicode="&#x163;" horiz-adv-x="544" d="M398 -154l-55 -7q-31 0 -56 41q17 39 17 117v23l59 8q-8 -47 -8 -103q149 -10 149 -206q0 -48 -46.5 -105t-108.5 -57q-29 0 -58.5 14.5t-29.5 38t22 23.5q13 0 33 -10.5t39 -10.5t41 29t22 55l-6 29q0 6 9 11.5t10 6.5q0 53 -8 71.5t-25 31.5zM418 1284l-111 14l-10 -12 l4 -8q-4 -8 -4 -117t34 -509.5t34 -600.5q0 -15 -12 -27t-27 -12l-23 17l-4 149l4 72q0 28 -8 49q0 174 -24.5 507t-26.5 492q-161 0 -172 39q9 23 39 23l278 -19l37 2q37 0 37 -26q0 -14 -15 -23.5t-30 -9.5z" />
<glyph unicode="&#x164;" horiz-adv-x="542" d="M325 2040l27 16q37 -6 37 -24q0 -7 -8 -23l2 -10l-15 -31l2 -12q-7 -26 -24 -75q-37 -101 -37 -154.5t-30 -53.5t-99.5 150.5t-71.5 195.5l37 27l35 -47q3 -34 43.5 -147.5t42.5 -118.5q49 183 59 307zM342 545l10 -477q0 -80 -35 -80q-21 0 -32 28.5t-11 53.5l17 336 q0 108 -14.5 326.5t-14.5 328.5l2 192q0 211 -35 211l-116 -12q-15 0 -29 9.5t-14 25.5q0 21 136 40t216 19q15 0 29 -10.5t14 -24.5q0 -30 -39 -30l-76 6q-35 0 -43 -21q15 -129 15 -266l-3 -248q0 -242 29 -348q-6 -30 -6 -59z" />
<glyph unicode="&#x165;" horiz-adv-x="544" d="M626 1055l4 19q107 89 107 149q-25 14 -42 39t-17 52t24.5 45t52.5 18q46 0 68 -60l-4 -6q4 -8 4 -33t-25 -83t-65 -106.5t-74 -49.5zM418 1284l-111 14l-10 -12l4 -8q-4 -8 -4 -117t34 -509.5t34 -600.5q0 -15 -12 -27t-27 -12l-23 17l-4 149l4 72q0 28 -8 49 q0 174 -24.5 507t-26.5 492q-161 0 -172 39q9 23 39 23l278 -19l37 2q37 0 37 -26q0 -14 -15 -23.5t-30 -9.5z" />
<glyph unicode="&#x166;" horiz-adv-x="542" d="M342 545l10 -477q0 -80 -35 -80q-21 0 -32 28.5t-11 53.5l17 336q0 95 -12 287q-69 -7 -103 -7q-63 0 -63 29q0 18 162 35q-13 193 -13 311l2 192q0 211 -35 211l-116 -12q-15 0 -29 9.5t-14 25.5q0 21 136 40t216 19q15 0 29 -10.5t14 -24.5q0 -30 -39 -30l-76 6 q-35 0 -43 -21q15 -129 15 -266l-3 -248q0 -130 5 -198q90 8 120 8q50 0 50 -22t-164 -41q6 -52 18 -95q-6 -30 -6 -59z" />
<glyph unicode="&#x167;" horiz-adv-x="544" d="M418 1284l-111 14l-10 -12l4 -8q-4 -8 -4 -117t34 -509.5t34 -600.5q0 -15 -12 -27t-27 -12l-23 17l-4 149l4 72q0 28 -8 49q0 174 -24.5 507t-26.5 492q-161 0 -172 39q9 23 39 23l278 -19l37 2q37 0 37 -26q0 -14 -15 -23.5t-30 -9.5zM508 739q0 -21 -133.5 -40 t-183.5 -19t-64 9.5t-14 25.5q0 21 135 40t182 19q78 0 78 -35z" />
<glyph unicode="&#x168;" horiz-adv-x="743" d="M494 1802l-12 39q6 12 25.5 12t31 -22t11.5 -56.5t-33 -67t-73 -32.5t-77 21.5t-56 41t-52 58.5l-14 6h-37q-3 -12 -21 -25t-18 -25.5t10 -47.5l-22 -31q-13 0 -26 11t-13 24q0 63 32 104t93 41q66 -34 81 -45q15 -30 40 -55t44 -25t25 2l14 -4q5 14 20 23q27 16 27 53z M627 426l2 -129q0 -173 -45 -255q-19 -34 -55 -57.5t-93 -23.5t-105 30.5t-74 76.5t-45.5 107t-27.5 115q-23 142 -45 183q0 163 -20.5 487.5t-20.5 487.5l-14 43q0 14 10.5 27.5t24.5 13.5q51 0 51 -150l18 -692q8 -10 10 -49q10 -142 19 -182q-4 -24 -4 -52t19.5 -94 t51 -130t78.5 -110t84 -46t55 8t28 17.5t16.5 31.5t8.5 33.5t4 41t1.5 36t-0.5 18.5l6 68v233l-14 123l-12 367v26l-9 12q9 58 9 117l-19 348q0 16 14.5 24.5t30.5 8.5l35 -33l-6 -16l6 -16l-14 -123l20 -369l10 -356l7 -2q-2 -14 -2 -43l6 -144l6 -6z" />
<glyph unicode="&#x169;" horiz-adv-x="651" d="M469 1620l-12 39q6 12 25.5 12t31 -22t11.5 -56.5t-33 -67t-73 -32.5t-77 21.5t-56 41t-52 58.5l-14 6h-37q-3 -12 -21 -25t-18 -25.5t10 -47.5l-22 -31q-13 0 -26 11t-13 24q0 63 32 104t93 41q66 -34 81 -45q15 -30 40 -55t44 -25t25 2l14 -4q5 14 20 23q27 16 27 53z M520 920l2 -41q-4 -52 -5.5 -140t-3 -167t-5.5 -171t-16 -165q-28 -174 -91 -232q-68 -64 -159 -13q-39 22 -65.5 55t-42.5 212.5t-19 378.5q-9 598 -19 682l13 29q47 -6 47 -113l6 -543l22 -434q0 -233 154 -233q95 0 120 429q2 29 9.5 277t7.5 598l-4 37q0 23 29.5 23 t35 -13.5t5.5 -121t-13 -158.5q2 -4 2 -13z" />
<glyph unicode="&#x16a;" horiz-adv-x="743" d="M532 1687.5q-1 -14.5 -130 -14.5h-122.5t-66.5 1t-31.5 3t-22.5 6q-21 6 -21 23q2 17 131 17h116q118 0 133 -10.5t14 -25zM627 426l2 -129q0 -173 -45 -255q-19 -34 -55 -57.5t-93 -23.5t-105 30.5t-74 76.5t-45.5 107t-27.5 115q-23 142 -45 183q0 163 -20.5 487.5 t-20.5 487.5l-14 43q0 14 10.5 27.5t24.5 13.5q51 0 51 -150l18 -692q8 -10 10 -49q10 -142 19 -182q-4 -24 -4 -52t19.5 -94t51 -130t78.5 -110t84 -46t55 8t28 17.5t16.5 31.5t8.5 33.5t4 41t1.5 36t-0.5 18.5l6 68v233l-14 123l-12 367v26l-9 12q9 58 9 117l-19 348 q0 16 14.5 24.5t30.5 8.5l35 -33l-6 -16l6 -16l-14 -123l20 -369l10 -356l7 -2q-2 -14 -2 -43l6 -144l6 -6z" />
<glyph unicode="&#x16b;" horiz-adv-x="651" d="M508 1504.5q-1 -14.5 -130 -14.5h-122.5t-66.5 1t-31.5 3t-22.5 6q-21 6 -21 23q2 17 131 17h116q118 0 133 -10.5t14 -25zM520 920l2 -41q-4 -52 -5.5 -140t-3 -167t-5.5 -171t-16 -165q-28 -174 -91 -232q-68 -64 -159 -13q-39 22 -65.5 55t-42.5 212.5t-19 378.5 q-9 598 -19 682l13 29q47 -6 47 -113l6 -543l22 -434q0 -233 154 -233q95 0 120 429q2 29 9.5 277t7.5 598l-4 37q0 23 29.5 23t35 -13.5t5.5 -121t-13 -158.5q2 -4 2 -13z" />
<glyph unicode="&#x16c;" horiz-adv-x="743" d="M470 1883.5q10 -8.5 10 -19.5t-11 -33l5 -15q-5 -10 -16 -35.5t-16 -35.5t-17 -27.5t-24 -24.5q-34 -20 -75 -20t-71.5 19t-46.5 51q-31 62 -31 139l22 18q14 -1 19 -32q20 -108 53 -132l22 -16h51q27 0 48.5 37.5t21.5 66.5l-2 29q0 39 37 39q11 0 21 -8.5zM627 426 l2 -129q0 -173 -45 -255q-19 -34 -55 -57.5t-93 -23.5t-105 30.5t-74 76.5t-45.5 107t-27.5 115q-23 142 -45 183q0 163 -20.5 487.5t-20.5 487.5l-14 43q0 14 10.5 27.5t24.5 13.5q51 0 51 -150l18 -692q8 -10 10 -49q10 -142 19 -182q-4 -24 -4 -52t19.5 -94t51 -130 t78.5 -110t84 -46t55 8t28 17.5t16.5 31.5t8.5 33.5t4 41t1.5 36t-0.5 18.5l6 68v233l-14 123l-12 367v26l-9 12q9 58 9 117l-19 348q0 16 14.5 24.5t30.5 8.5l35 -33l-6 -16l6 -16l-14 -123l20 -369l10 -356l7 -2q-2 -14 -2 -43l6 -144l6 -6z" />
<glyph unicode="&#x16d;" horiz-adv-x="651" d="M446 1701.5q10 -8.5 10 -19.5t-11 -33l5 -15q-5 -10 -16 -35.5t-16 -35.5t-17 -27.5t-24 -24.5q-34 -20 -75 -20t-71.5 19t-46.5 51q-31 62 -31 139l22 18q14 -1 19 -32q20 -108 53 -132l22 -16h51q27 0 48.5 37.5t21.5 66.5l-2 29q0 39 37 39q11 0 21 -8.5zM520 920 l2 -41q-4 -52 -5.5 -140t-3 -167t-5.5 -171t-16 -165q-28 -174 -91 -232q-68 -64 -159 -13q-39 22 -65.5 55t-42.5 212.5t-19 378.5q-9 598 -19 682l13 29q47 -6 47 -113l6 -543l22 -434q0 -233 154 -233q95 0 120 429q2 29 9.5 277t7.5 598l-4 37q0 23 29.5 23t35 -13.5 t5.5 -121t-13 -158.5q2 -4 2 -13z" />
<glyph unicode="&#x16e;" horiz-adv-x="743" d="M246 1706.5q-30 33.5 -30 77t37 84t79 40.5t78.5 -39.5t36.5 -88t-36.5 -78t-85.5 -29.5t-79 33.5zM286.5 1844q-23.5 -25 -23.5 -47t2.5 -37.5t13.5 -31.5t32.5 -16t52 17t30.5 47t-14.5 61.5t-42 31.5t-51 -25zM627 426l2 -129q0 -173 -45 -255q-19 -34 -55 -57.5 t-93 -23.5t-105 30.5t-74 76.5t-45.5 107t-27.5 115q-23 142 -45 183q0 163 -20.5 487.5t-20.5 487.5l-14 43q0 14 10.5 27.5t24.5 13.5q51 0 51 -150l18 -692q8 -10 10 -49q10 -142 19 -182q-4 -24 -4 -52t19.5 -94t51 -130t78.5 -110t84 -46t55 8t28 17.5t16.5 31.5 t8.5 33.5t4 41t1.5 36t-0.5 18.5l6 68v233l-14 123l-12 367v26l-9 12q9 58 9 117l-19 348q0 16 14.5 24.5t30.5 8.5l35 -33l-6 -16l6 -16l-14 -123l20 -369l10 -356l7 -2q-2 -14 -2 -43l6 -144l6 -6z" />
<glyph unicode="&#x16f;" horiz-adv-x="651" d="M222 1524.5q-30 33.5 -30 77t37 84t79 40.5t78.5 -39.5t36.5 -88t-36.5 -78t-85.5 -29.5t-79 33.5zM262.5 1662q-23.5 -25 -23.5 -47t2.5 -37.5t13.5 -31.5t32.5 -16t52 17t30.5 47t-14.5 61.5t-42 31.5t-51 -25zM520 920l2 -41q-4 -52 -5.5 -140t-3 -167t-5.5 -171 t-16 -165q-28 -174 -91 -232q-68 -64 -159 -13q-39 22 -65.5 55t-42.5 212.5t-19 378.5q-9 598 -19 682l13 29q47 -6 47 -113l6 -543l22 -434q0 -233 154 -233q95 0 120 429q2 29 9.5 277t7.5 598l-4 37q0 23 29.5 23t35 -13.5t5.5 -121t-13 -158.5q2 -4 2 -13z" />
<glyph unicode="&#x170;" horiz-adv-x="743" d="M176 1684q5 22 172 152t186 130q4 0 13.5 -10.5t9.5 -21.5t-7.5 -15.5t-56.5 -41.5t-94 -71t-61.5 -42.5t-67 -45.5t-84.5 -45zM541 1702q-38 -23 -47.5 -23t-9.5 15.5t103 91.5t179 120.5t86 44.5t24 -17t17 -33l-106 -60q-69 -27 -138.5 -71.5t-107.5 -67.5zM627 426 l2 -129q0 -173 -45 -255q-19 -34 -55 -57.5t-93 -23.5t-105 30.5t-74 76.5t-45.5 107t-27.5 115q-23 142 -45 183q0 163 -20.5 487.5t-20.5 487.5l-14 43q0 14 10.5 27.5t24.5 13.5q51 0 51 -150l18 -692q8 -10 10 -49q10 -142 19 -182q-4 -24 -4 -52t19.5 -94t51 -130 t78.5 -110t84 -46t55 8t28 17.5t16.5 31.5t8.5 33.5t4 41t1.5 36t-0.5 18.5l6 68v233l-14 123l-12 367v26l-9 12q9 58 9 117l-19 348q0 16 14.5 24.5t30.5 8.5l35 -33l-6 -16l6 -16l-14 -123l20 -369l10 -356l7 -2q-2 -14 -2 -43l6 -144l6 -6z" />
<glyph unicode="&#x171;" horiz-adv-x="651" d="M152 1502q5 22 172 152t186 130q4 0 13.5 -10.5t9.5 -21.5t-7.5 -15.5t-56.5 -41.5t-94 -71t-61.5 -42.5t-67 -45.5t-84.5 -45zM517 1520q-38 -23 -47.5 -23t-9.5 15.5t103 91.5t179 120.5t86 44.5t24 -17t17 -33l-106 -60q-69 -27 -138.5 -71.5t-107.5 -67.5zM520 920 l2 -41q-4 -52 -5.5 -140t-3 -167t-5.5 -171t-16 -165q-28 -174 -91 -232q-68 -64 -159 -13q-39 22 -65.5 55t-42.5 212.5t-19 378.5q-9 598 -19 682l13 29q47 -6 47 -113l6 -543l22 -434q0 -233 154 -233q95 0 120 429q2 29 9.5 277t7.5 598l-4 37q0 23 29.5 23t35 -13.5 t5.5 -121t-13 -158.5q2 -4 2 -13z" />
<glyph unicode="&#x172;" horiz-adv-x="743" d="M401 -439l66 21q22 0 22 -23.5t-29.5 -38t-58.5 -14.5q-62 0 -108.5 57t-46.5 105.5t14.5 98t35.5 86.5q44 76 77 109l14 15l59 -8q4 2 2 -2t-14 -21q-96 -131 -96 -211q0 -19 -4 -47l-2 -43q0 -26 22 -55t47 -29zM627 426l2 -129q0 -173 -45 -255q-19 -34 -55 -57.5 t-93 -23.5t-105 30.5t-74 76.5t-45.5 107t-27.5 115q-23 142 -45 183q0 163 -20.5 487.5t-20.5 487.5l-14 43q0 14 10.5 27.5t24.5 13.5q51 0 51 -150l18 -692q8 -10 10 -49q10 -142 19 -182q-4 -24 -4 -52t19.5 -94t51 -130t78.5 -110t84 -46t55 8t28 17.5t16.5 31.5 t8.5 33.5t4 41t1.5 36t-0.5 18.5l6 68v233l-14 123l-12 367v26l-9 12q9 58 9 117l-19 348q0 16 14.5 24.5t30.5 8.5l35 -33l-6 -16l6 -16l-14 -123l20 -369l10 -356l7 -2q-2 -14 -2 -43l6 -144l6 -6z" />
<glyph unicode="&#x173;" horiz-adv-x="651" d="M399 -431l66 21q22 0 22 -23.5t-29.5 -38t-58.5 -14.5q-62 0 -108.5 57t-46.5 105.5t14.5 98t35.5 86.5q44 76 77 109l14 15l59 -8q4 2 2 -2t-14 -21q-96 -131 -96 -211q0 -19 -4 -47l-2 -43q0 -26 22 -55t47 -29zM520 920l2 -41q-4 -52 -5.5 -140t-3 -167t-5.5 -171 t-16 -165q-28 -174 -91 -232q-68 -64 -159 -13q-39 22 -65.5 55t-42.5 212.5t-19 378.5q-9 598 -19 682l13 29q47 -6 47 -113l6 -543l22 -434q0 -233 154 -233q95 0 120 429q2 29 9.5 277t7.5 598l-4 37q0 23 29.5 23t35 -13.5t5.5 -121t-13 -158.5q2 -4 2 -13z" />
<glyph unicode="&#x174;" horiz-adv-x="950" d="M567 1693l-27 17q-10 124 -59 307q-26 -66 -55 -156t-31 -110l-35 -47l-37 26q2 45 71.5 195.5t99.5 150.5t30 -41.5t9.5 -80t27 -86.5t24.5 -74l-2 -13l15 -30l-2 -11q8 -16 8 -22q0 -19 -37 -25zM440 1053l-2 -4q-7 -34 -8 -102.5t-18 -148t-40.5 -380.5t-23.5 -412 q0 -7 -12 -20t-25.5 -13t-24.5 13.5t-15.5 39t-6.5 44.5q-2 33 -3 78t-7.5 92t-17.5 105.5t-16.5 97t-37.5 311.5q-85 723 -108 759q15 27 39.5 27t39.5 -37.5t22.5 -98.5t11.5 -117t6.5 -113t10 -136t47 -350t52.5 -379h4q0 97 15.5 222.5t18.5 157.5t12.5 78.5t11.5 73 t8.5 151.5t10.5 163t10.5 83.5t6.5 70.5l-2 37q0 26 29 40q61 0 61 -36l-10 -27q0 -228 85 -544t85 -533l6 -4q6 24 11.5 123t32 306t31.5 292t26.5 264t21.5 276l-2 39q0 49 53 49q13 0 26 -9.5t13 -26.5t-22 -35q2 -4 2 -13q0 -13 -8 -45q-14 -119 -40.5 -451.5t-67 -571 t-40.5 -386.5v-30q0 -24 -7 -37t-30 -13q-48 0 -74 315q-8 95 -63.5 364t-71.5 397zM655 236q-4 0 -4 -3zM334 1161v-4v4z" />
<glyph unicode="&#x175;" horiz-adv-x="847" d="M507 1482l-27 17q-10 124 -59 307q-26 -66 -55 -156t-31 -110l-35 -47l-37 26q2 45 71.5 195.5t99.5 150.5t30 -41.5t9.5 -80t27 -86.5t24.5 -74l-2 -13l15 -30l-2 -11q8 -16 8 -22q0 -19 -37 -25zM592 -68q-35 0 -35 91q-4 54 -22 154t-22 131t-20 225q-40 485 -75 520 q-21 -231 -21 -283t-8.5 -137.5t-29.5 -222t-23.5 -155t-6.5 -58t-9.5 -75t-13.5 -76.5q-16 -89 -42 -89q-31 0 -47.5 91.5t-26.5 261.5t-14 204.5t-22 156t-21.5 171t-7 125.5t-6.5 123q-8 133 -41 221q9 16 27.5 16t27.5 -12.5t12.5 -34t4.5 -40.5q2 -38 4.5 -82.5 t45 -392.5t46.5 -534q6 -15 10.5 -55.5t11.5 -54.5h2q23 150 28.5 196t15.5 118t14 112t10 101q9 93 13.5 224t16 210t11.5 106l37 16q13 0 24 -7.5t11 -17.5t-5 -20q94 -318 114 -737q7 -160 36 -236q27 75 43 357.5t16 393.5t13.5 217t13.5 143.5t-8 50.5q0 32 41 32 q17 0 22.5 -4t5.5 -38t-10 -70l4 -13q-18 -81 -18 -145t4 -70l-12 -41l6 -14q-6 -12 -6 -19.5t6 -43.5l-6 -9q0 -74 -16.5 -322.5t-21.5 -286.5t-15.5 -81t-10.5 -67q0 -224 -55 -224zM596 178v-2h2q0 2 -2 2z" />
<glyph unicode="&#x176;" horiz-adv-x="505" d="M344 1673l-27 17q-10 124 -59 307q-26 -66 -55 -156t-31 -110l-35 -47l-37 26q2 45 71.5 195.5t99.5 150.5t30 -41.5t9.5 -80t27 -86.5t24.5 -74l-2 -13l15 -30l-2 -11q8 -16 8 -22q0 -19 -37 -25zM289 -25q-29 0 -29 50l10 395l-14 166q0 33 -12.5 96t-12.5 87t-5.5 53 t-15.5 70t-14.5 63.5t-23.5 122.5q-41 209 -69.5 304.5t-28.5 121.5q0 42 41 42l24 -16q5 -83 53.5 -323t75.5 -277q32 94 44 235.5t20 214.5q18 160 57 160q31 0 31 -22q0 -16 -8 -44.5t-11.5 -50.5t-23 -131t-28.5 -164q-27 -163 -27 -299l6 -67l-13 -31v-16l15 -246 q0 -277 -4 -414l6 -6l2 -14q0 -23 -11.5 -41.5t-33.5 -18.5z" />
<glyph unicode="&#x177;" horiz-adv-x="561" d="M371 1478l-27 17q-10 124 -59 307q-26 -66 -55 -156t-31 -110l-35 -47l-37 26q2 45 71.5 195.5t99.5 150.5t30 -41.5t9.5 -80t27 -86.5t24.5 -74l-2 -13l15 -30l-2 -11q8 -16 8 -22q0 -19 -37 -25zM350 442l2 -325q0 -148 -43 -148q-7 0 -17 8t-13 15q20 50 20 358 q0 60 -7.5 171t-8.5 145l-13 26l6 25q-26 60 -96 259q-102 285 -104 331l28 22q20 -3 60 -130.5t78.5 -255.5t54.5 -132l8 37l-4 10q15 18 39.5 145.5t52.5 242t54 114.5t26 -22t-22 -99.5t-41 -141.5t-28.5 -99t-21.5 -88q-24 -100 -24 -187q10 -25 10 -35l-12 -59z" />
<glyph unicode="&#x178;" horiz-adv-x="505" d="M434.5 1695.5q-12.5 14.5 -12.5 32t15.5 33.5t33.5 16t32 -16.5t14 -32.5q0 -47 -54 -47q-16 0 -28.5 14.5zM52 1708q0 67 -41 67q-18 0 -33.5 -16.5t-15.5 -34t11 -34.5t28.5 -17t34 9t16.5 26zM289 -25q-29 0 -29 50l10 395l-14 166q0 33 -12.5 96t-12.5 87t-5.5 53 t-15.5 70t-14.5 63.5t-23.5 122.5q-41 209 -69.5 304.5t-28.5 121.5q0 42 41 42l24 -16q5 -83 53.5 -323t75.5 -277q32 94 44 235.5t20 214.5q18 160 57 160q31 0 31 -22q0 -16 -8 -44.5t-11.5 -50.5t-23 -131t-28.5 -164q-27 -163 -27 -299l6 -67l-13 -31v-16l15 -246 q0 -277 -4 -414l6 -6l2 -14q0 -23 -11.5 -41.5t-33.5 -18.5z" />
<glyph unicode="&#x179;" horiz-adv-x="471" d="M197 1674q-37 0 -37 30q0 12 121.5 105.5t132.5 103.5q45 0 45 -32q0 -1 -6 -31q-103 -46 -256 -176zM352 -10l-243 -8q-21 0 -31 26q44 77 65 177t34 222t26 181q65 490 89 647q30 206 32 264l-138 -10q-92 0 -92 41l15 16q16 -4 49 -4l192 21q33 0 33 -37 q-22 -49 -29.5 -155t-15.5 -162t-57 -434t-82 -580q-3 -22 -25 -74t-22 -82l133 10q86 0 86 -41z" />
<glyph unicode="&#x17a;" horiz-adv-x="538" d="M234 1479q-37 0 -37 30q0 12 121.5 105.5t132.5 103.5q45 0 45 -32q0 -1 -6 -31q-103 -46 -256 -176zM309 12l-121 6q-23 0 -44.5 -11t-28.5 -11q-31 0 -31 31q0 35 24 121q59 214 83 331t38 173t59 196q99 311 99 455l-192 -13q-12 0 -20.5 10.5t-8.5 22.5q0 33 227 33 q51 0 51 -33q0 -70 -50 -224.5t-50 -183.5q-11 -56 -62 -227q-128 -426 -130 -625q20 -4 59 -4l86 7q59 0 59 -27t-47 -27z" />
<glyph unicode="&#x17b;" horiz-adv-x="471" d="M157.5 1688.5q-13.5 15.5 -13.5 34.5t16.5 36.5t35.5 17.5t34.5 -17.5t15.5 -35.5q0 -51 -57 -51q-18 0 -31.5 15.5zM352 -10l-243 -8q-21 0 -31 26q44 77 65 177t34 222t26 181q65 490 89 647q30 206 32 264l-138 -10q-92 0 -92 41l15 16q16 -4 49 -4l192 21 q33 0 33 -37q-22 -49 -29.5 -155t-15.5 -162t-57 -434t-82 -580q-3 -22 -25 -74t-22 -82l133 10q86 0 86 -41z" />
<glyph unicode="&#x17c;" horiz-adv-x="538" d="M195.5 1494.5q-13.5 15.5 -13.5 34.5t16.5 36.5t35.5 17.5t34.5 -17.5t15.5 -35.5q0 -51 -57 -51q-18 0 -31.5 15.5zM309 12l-121 6q-23 0 -44.5 -11t-28.5 -11q-31 0 -31 31q0 35 24 121q59 214 83 331t38 173t59 196q99 311 99 455l-192 -13q-12 0 -20.5 10.5 t-8.5 22.5q0 33 227 33q51 0 51 -33q0 -70 -50 -224.5t-50 -183.5q-11 -56 -62 -227q-128 -426 -130 -625q20 -4 59 -4l86 7q59 0 59 -27t-47 -27z" />
<glyph unicode="&#x17d;" horiz-adv-x="471" d="M260 2040l27 16q37 -6 37 -24q0 -7 -8 -23l2 -10l-15 -31l2 -12q-7 -26 -24 -75q-37 -101 -37 -154.5t-30 -53.5t-99.5 150.5t-71.5 195.5l37 27l35 -47q3 -34 43.5 -147.5t42.5 -118.5q49 183 59 307zM352 -10l-243 -8q-21 0 -31 26q44 77 65 177t34 222t26 181 q65 490 89 647q30 206 32 264l-138 -10q-92 0 -92 41l15 16q16 -4 49 -4l192 21q33 0 33 -37q-22 -49 -29.5 -155t-15.5 -162t-57 -434t-82 -580q-3 -22 -25 -74t-22 -82l133 10q86 0 86 -41z" />
<glyph unicode="&#x17e;" horiz-adv-x="538" d="M298 1845l27 16q37 -6 37 -24q0 -7 -8 -23l2 -10l-15 -31l2 -12q-7 -26 -24 -75q-37 -101 -37 -154.5t-30 -53.5t-99.5 150.5t-71.5 195.5l37 27l35 -47q3 -34 43.5 -147.5t42.5 -118.5q49 183 59 307zM309 12l-121 6q-23 0 -44.5 -11t-28.5 -11q-31 0 -31 31 q0 35 24 121q59 214 83 331t38 173t59 196q99 311 99 455l-192 -13q-12 0 -20.5 10.5t-8.5 22.5q0 33 227 33q51 0 51 -33q0 -70 -50 -224.5t-50 -183.5q-11 -56 -62 -227q-128 -426 -130 -625q20 -4 59 -4l86 7q59 0 59 -27t-47 -27z" />
<glyph unicode="&#x1c4;" horiz-adv-x="1173" d="M962 2040l27 16q37 -6 37 -24q0 -7 -8 -23l2 -10l-15 -31l2 -12q-7 -26 -24 -75q-37 -101 -37 -154.5t-30 -53.5t-99.5 150.5t-71.5 195.5l37 27l35 -47q3 -34 43.5 -147.5t42.5 -118.5q49 183 59 307zM1054 -10l-243 -8q-21 0 -31 26q44 77 65 177t34 222t26 181 q65 490 89 647q30 206 32 264l-138 -10q-92 0 -92 41l15 16q16 -4 49 -4l192 21q33 0 33 -37q-22 -49 -29.5 -155t-15.5 -162t-57 -434t-82 -580q-3 -22 -25 -74t-22 -82l133 10q86 0 86 -41zM156 299l2 82q0 120 -14 279t-17 198q-9 19 -10 256.5t-4.5 263.5t-17 62 t-13.5 57q0 49 154 49h10q78 0 168 -86t117.5 -155t36.5 -165.5t12.5 -176.5t13.5 -101l-4 -55l6 -10l-6 -17l6 -10q-12 -19 -12 -57t-4 -70t-8 -50t-13.5 -53.5t-28.5 -113.5q-56 -220 -186 -325t-153.5 -105t-48 10.5t-27.5 30.5q29 37 32 82zM162 1450l18 -340 q0 -132 15.5 -391.5t15.5 -351t-4 -201.5l4 -8v-58h10q77 41 136 117.5t91.5 160t53.5 182.5q33 162 33 314q0 599 -330 599q-41 0 -43 -23z" />
<glyph unicode="&#x1c5;" horiz-adv-x="1241" d="M1000 1845l27 16q37 -6 37 -24q0 -7 -8 -23l2 -10l-15 -31l2 -12q-7 -26 -24 -75q-37 -101 -37 -154.5t-30 -53.5t-99.5 150.5t-71.5 195.5l37 27l35 -47q3 -34 43.5 -147.5t42.5 -118.5q49 183 59 307zM1011 12l-121 6q-23 0 -44.5 -11t-28.5 -11q-31 0 -31 31 q0 35 24 121q59 214 83 331t38 173t59 196q99 311 99 455l-192 -13q-12 0 -20.5 10.5t-8.5 22.5q0 33 227 33q51 0 51 -33q0 -70 -50 -224.5t-50 -183.5q-11 -56 -62 -227q-128 -426 -130 -625q20 -4 59 -4l86 7q59 0 59 -27t-47 -27zM156 299l2 82q0 120 -14 279t-17 198 q-9 19 -10 256.5t-4.5 263.5t-17 62t-13.5 57q0 49 154 49h10q78 0 168 -86t117.5 -155t36.5 -165.5t12.5 -176.5t13.5 -101l-4 -55l6 -10l-6 -17l6 -10q-12 -19 -12 -57t-4 -70t-8 -50t-13.5 -53.5t-28.5 -113.5q-56 -220 -186 -325t-153.5 -105t-48 10.5t-27.5 30.5 q29 37 32 82zM162 1450l18 -340q0 -132 15.5 -391.5t15.5 -351t-4 -201.5l4 -8v-58h10q77 41 136 117.5t91.5 160t53.5 182.5q33 162 33 314q0 599 -330 599q-41 0 -43 -23z" />
<glyph unicode="&#x1c6;" horiz-adv-x="1191" d="M951 1845l27 16q37 -6 37 -24q0 -7 -8 -23l2 -10l-15 -31l2 -12q-7 -26 -24 -75q-37 -101 -37 -154.5t-30 -53.5t-99.5 150.5t-71.5 195.5l37 27l35 -47q3 -34 43.5 -147.5t42.5 -118.5q49 183 59 307zM962 12l-121 6q-23 0 -44.5 -11t-28.5 -11q-31 0 -31 31 q0 35 24 121q59 214 83 331t38 173t59 196q99 311 99 455l-192 -13q-12 0 -20.5 10.5t-8.5 22.5q0 33 227 33q51 0 51 -33q0 -70 -50 -224.5t-50 -183.5q-11 -56 -62 -227q-128 -426 -130 -625q20 -4 59 -4l86 7q59 0 59 -27t-47 -27zM537 717q0 -81 10 -99 q-13 -67 -23.5 -181t-25 -174t-36.5 -103q-54 -102 -179 -170h-142q-18 0 -18 55q-8 159 -8 356l4 484q0 213 -8 385q-17 14 -17 35t17 36t31 15t31.5 -16.5t26.5 -21t43 -10t56.5 -16.5t73.5 -59.5t69 -61.5l-2 -4q2 -13 30.5 -52.5t35.5 -57.5q33 -89 33 -244zM477 592 l-2 74l-10 206q-4 116 -71 246q-31 62 -82.5 103t-110.5 41q-23 0 -23 -409.5t23 -733.5l-2 -39l8 -4l6 -27h63q12 17 30.5 31t25.5 20q145 131 145 492z" />
<glyph unicode="&#x1c7;" horiz-adv-x="944" d="M805 305l-11 -168q0 -23 7 -37l-15 -32q-4 -73 -55 -148t-111 -119q-43 0 -43 39q2 19 35 40.5t39 27.5q90 90 90 313q0 106 -10 303t-14 347q-11 498 -33 618l-109 -19q-12 0 -20 9.5t-8 21.5q0 51 282 51q14 0 23.5 -9.5t9.5 -22.5q0 -31 -95 -31h-22l-2 -39 q0 -54 12.5 -162t12.5 -204.5t18.5 -368.5t18.5 -410zM684 -25q2 0 2 -2zM293 0l-64 2q-11 0 -28 -12.5t-31 -12.5t-28.5 13t-14.5 30l12 93l-20 581l-21 856q0 21 27 21q39 0 39 -37q0 -473 10 -599.5t10 -156.5t-4 -80l6 -8q-4 -54 -4 -109.5t10.5 -212.5t12.5 -223 q-8 -12 -8 -41t9.5 -39t40.5 -10t42 13h76q28 -14 28 -32q0 -40 -28 -40q-7 0 -31 8q-10 -4 -41 -4z" />
<glyph unicode="&#x1c8;" horiz-adv-x="1048" d="M547 -205l-2 8q0 9 73.5 56.5t81.5 56.5q33 37 49.5 113t16.5 143l-19 1088l-12 22q-9 4 -50 10q-99 13 -99 43q0 8 17 16.5t50 8.5t175.5 -29t142.5 -56.5t-33 -27.5l-111 21q-18 0 -18 -41l20 -850v-225q-12 -27 -12 -77t-13 -101.5t-37 -103.5t-66 -87t-93 -35h-14z M293 0l-64 2q-11 0 -28 -12.5t-31 -12.5t-28.5 13t-14.5 30l12 93l-20 581l-21 856q0 21 27 21q39 0 39 -37q0 -473 10 -599.5t10 -156.5t-4 -80l6 -8q-4 -54 -4 -109.5t10.5 -212.5t12.5 -223q-8 -12 -8 -41t9.5 -39t40.5 -10t42 13h76q28 -14 28 -32q0 -40 -28 -40 q-7 0 -31 8q-10 -4 -41 -4z" />
<glyph unicode="&#x1c9;" horiz-adv-x="1071" d="M570 -205l-2 8q0 9 73.5 56.5t81.5 56.5q33 37 49.5 113t16.5 143l-19 1088l-12 22q-9 4 -50 10q-99 13 -99 43q0 8 17 16.5t50 8.5t175.5 -29t142.5 -56.5t-33 -27.5l-111 21q-18 0 -18 -41l20 -850v-225q-12 -27 -12 -77t-13 -101.5t-37 -103.5t-66 -87t-93 -35h-14z M188 47l193 -6h6q11 0 21 -11.5t10 -23.5q0 -23 -33 -26q-53 2 -170 2l4 -2l-76 -7q-29 0 -34 47q4 20 4 68l12 1092l10 135q0 14 15 14l34 -8l-2 -162l2 -446q-6 -168 -6 -172l4 -174l-6 -17l2 2l-2 -16q0 -17 6 -29l-6 -196v-13q0 -32 2 -41.5t10 -9.5z" />
<glyph unicode="&#x1ca;" horiz-adv-x="1241" d="M1102 305l-11 -168q0 -23 7 -37l-15 -32q-4 -73 -55 -148t-111 -119q-43 0 -43 39q2 19 35 40.5t39 27.5q90 90 90 313q0 106 -10 303t-14 347q-11 498 -33 618l-109 -19q-12 0 -20 9.5t-8 21.5q0 51 282 51q14 0 23.5 -9.5t9.5 -22.5q0 -31 -95 -31h-22l-2 -39 q0 -54 12.5 -162t12.5 -204.5t18.5 -368.5t18.5 -410zM981 -25q2 0 2 -2zM621 111l6 -74q0 -60 -52 -60q-36 0 -49 77q-7 36 -8 40q-200 631 -252 922q-2 9 -3 28q-2 41 -19 58l4 10q-13 76 -19.5 105.5t-14.5 66.5q-14 65 -36 117q-6 -42 -6 -64t4 -34q-14 -48 -14 -142 v-561q0 -98 14 -292t14 -292l-14 -16h-47l-6 16q4 16 4 82l-23 713v268l15 387l-2 43q0 26 13.5 34.5t35 8.5t37.5 -12.5t16 -39.5t9 -59t26 -71.5t26.5 -72t17.5 -104t19 -126.5t36 -148t57.5 -206t41.5 -148.5t24 -90.5q32 -114 34 -161q14 -21 21.5 -81t33.5 -82 q13 29 13 98l8 713l-6 317l6 78q0 22 -6 26l6 17q0 126 -8 168q8 28 51 28q33 0 33 -67q-13 -26 -13 -68l2 -69q0 -44 -8 -62l-6 -647q0 -19 4 -55l-4 -9v-258l4 -77q0 -122 -20 -168v-4z" />
<glyph unicode="&#x1cb;" horiz-adv-x="1345" d="M844 -205l-2 8q0 9 73.5 56.5t81.5 56.5q33 37 49.5 113t16.5 143l-19 1088l-12 22q-9 4 -50 10q-99 13 -99 43q0 8 17 16.5t50 8.5t175.5 -29t142.5 -56.5t-33 -27.5l-111 21q-18 0 -18 -41l20 -850v-225q-12 -27 -12 -77t-13 -101.5t-37 -103.5t-66 -87t-93 -35h-14z M621 111l6 -74q0 -60 -52 -60q-36 0 -49 77q-7 36 -8 40q-200 631 -252 922q-2 9 -3 28q-2 41 -19 58l4 10q-13 76 -19.5 105.5t-14.5 66.5q-14 65 -36 117q-6 -42 -6 -64t4 -34q-14 -48 -14 -142v-561q0 -98 14 -292t14 -292l-14 -16h-47l-6 16q4 16 4 82l-23 713v268 l15 387l-2 43q0 26 13.5 34.5t35 8.5t37.5 -12.5t16 -39.5t9 -59t26 -71.5t26.5 -72t17.5 -104t19 -126.5t36 -148t57.5 -206t41.5 -148.5t24 -90.5q32 -114 34 -161q14 -21 21.5 -81t33.5 -82q13 29 13 98l8 713l-6 317l6 78q0 22 -6 26l6 17q0 126 -8 168q8 28 51 28 q33 0 33 -67q-13 -26 -13 -68l2 -69q0 -44 -8 -62l-6 -647q0 -19 4 -55l-4 -9v-258l4 -77q0 -122 -20 -168v-4z" />
<glyph unicode="&#x1cc;" horiz-adv-x="1435" d="M934 -205l-2 8q0 9 73.5 56.5t81.5 56.5q33 37 49.5 113t16.5 143l-19 1088l-12 22q-9 4 -50 10q-99 13 -99 43q0 8 17 16.5t50 8.5t175.5 -29t142.5 -56.5t-33 -27.5l-111 21q-18 0 -18 -41l20 -850v-225q-12 -27 -12 -77t-13 -101.5t-37 -103.5t-66 -87t-93 -35h-14z M682 1247l-4 51q0 43 29 43q20 0 32.5 -19t12.5 -40v-137l-11 -17q0 -160 -22 -619.5t-43 -502.5q-5 -1 -29.5 -7.5t-34.5 -6.5t-18 13.5t-12.5 35.5t-8.5 29l2 6q-13 85 -53.5 194.5t-52.5 147.5q-7 9 -55 153q-184 571 -232 617q-16 -63 -16 -144l4 -161l-4 -99 q0 -23 8 -143h-6q0 -341 14 -377v-184q8 -14 8 -36q0 -48 -38 -48q-43 0 -43 110l8 134l-13 589l13 363v36q0 27 1.5 36t3 21.5t4.5 19.5t7 16q8 18 21 29l6 -7l20 5q23 -8 28 -32q0 -2 2.5 -11.5t2.5 -10.5q35 -146 147 -407t136 -335.5t43 -157.5q42 -184 92 -269l4 6 q47 447 47 1116zM639 -2q2 0 2 -2z" />
<glyph unicode="&#x1cd;" d="M480 2040l27 16q37 -6 37 -24q0 -7 -8 -23l2 -10l-15 -31l2 -12q-7 -26 -24 -75q-37 -101 -37 -154.5t-30 -53.5t-99.5 150.5t-71.5 195.5l37 27l35 -47q3 -34 43.5 -147.5t42.5 -118.5q49 183 59 307zM567 600l23 -534v-22q0 -24 -6 -30q-16 -14 -35 -14t-31 10t-12 25 q6 12 6 24l-6 41v203q0 27 -108 46.5t-160 19.5q-20 0 -36 -74.5t-31 -163.5t-30 -111q-48 0 -63 25q32 46 61.5 224t47.5 258.5t64.5 349.5t63 344.5t25.5 111.5t23 85q33 118 59 118q32 0 42.5 -14.5t18 -68t15 -136t13.5 -151.5q19 -216 23.5 -284t18.5 -98 q-4 -62 -4 -106.5t18 -77.5zM231 426q86 -29 207 -29q25 0 37 4l10 -4q19 0 19 19q0 428 -80 923q-1 6 -4.5 22t-3.5 25q-25 -71 -27 -90l6 -12q-7 -7 -23 -70.5t-44.5 -262t-41 -255t-26.5 -102.5q-29 -102 -29 -156v-12z" />
<glyph unicode="&#x1ce;" horiz-adv-x="667" d="M451 1845l27 16q37 -6 37 -24q0 -7 -8 -23l2 -10l-15 -31l2 -12q-7 -26 -24 -75q-37 -101 -37 -154.5t-30 -53.5t-99.5 150.5t-71.5 195.5l37 27l35 -47q3 -34 43.5 -147.5t42.5 -118.5q49 183 59 307zM367 305l-54 -2q-29 12 -64 12t-38 -2t-4 -7t-2 -7l-4 -41 q-4 -52 -19 -125q-28 -143 -59 -143q-13 0 -27 11t-14 24q26 77 54 233t35 194.5t26 155.5t25 154t32.5 160t32 161t12.5 103q17 160 27 178l28 -2q25 0 37 12q13 0 25 -8.5t12 -22.5q0 -98 25 -379t39.5 -363.5t33.5 -162t19 -121.5l-10 -28q0 -46 17 -135.5t17 -126 t-16 -45.5q-42 0 -51.5 12t-9.5 38.5t-3.5 65t-7 61.5t-12 72.5t-10.5 63.5q-39 10 -92 10zM223 406q0 -21 49 -35q75 -21 166 -21h21q-13 40 -13 92v47q0 127 -31.5 370t-33.5 362q-107 -529 -132.5 -653.5t-25.5 -161.5z" />
<glyph unicode="&#x1cf;" horiz-adv-x="477" d="M239 2040l27 16q37 -6 37 -24q0 -7 -8 -23l2 -10l-15 -31l2 -12q-7 -26 -24 -75q-37 -101 -37 -154.5t-30 -53.5t-99.5 150.5t-71.5 195.5l37 27l35 -47q3 -34 43.5 -147.5t42.5 -118.5q49 183 59 307zM360 8l-65 10q-23 0 -47 -24q-46 0 -58 16h-5q-94 0 -109 35 q0 23 47 23l45 -2q41 0 42 59t-5.5 144t-8 169t-11.5 327t-13 349l2 240q0 99 -6 119l-70 -15q-22 0 -22 28.5t90 47t122 18.5q54 0 54 -33.5t-25 -33.5l-49 2q-35 0 -42 -33q-7 -27 -7 -159t25.5 -523t25.5 -588l-2 -106l74 6q53 0 53 -51z" />
<glyph unicode="&#x1d0;" horiz-adv-x="550" d="M306 1845l27 16q37 -6 37 -24q0 -7 -8 -23l2 -10l-15 -31l2 -12q-7 -26 -24 -75q-37 -101 -37 -154.5t-30 -53.5t-99.5 150.5t-71.5 195.5l37 27l35 -47q3 -34 43.5 -147.5t42.5 -118.5q49 183 59 307zM424 16l-68 7q-16 0 -38 -11.5t-52.5 -11.5t-38.5 20l-34 -2 q-44 0 -56 21q0 13 11.5 21.5t15.5 13.5h59l8 8l7 43l-15 448l10 478q0 139 -10 237q-20 6 -61 6l-49 -4q-39 0 -39 35q0 9 18.5 17t30.5 8q285 0 285 -62q0 -6 -5 -16l-47 -4q-16 12 -59 12l-10 -6q6 -18 6 -109l-6 -487l14 -449l-2 -63q0 -48 6 -57l-2 -5q0 -20 45 -20 l60 2q61 0 61 -29q0 -18 -13 -29.5t-32 -11.5z" />
<glyph unicode="&#x1d1;" d="M367 2040l27 16q37 -6 37 -24q0 -7 -8 -23l2 -10l-15 -31l2 -12q-7 -26 -24 -75q-37 -101 -37 -154.5t-30 -53.5t-99.5 150.5t-71.5 195.5l37 27l35 -47q3 -34 43.5 -147.5t42.5 -118.5q49 183 59 307zM586 618l-19 -264l4 -8q-16 -69 -16 -124t-22 -113.5t-65.5 -105 t-93.5 -46.5t-93 38t-71.5 97.5t-50 141t-33.5 160t-20 162.5q-12 140 -12 242.5t9 233.5t10 169t2 67t5 69.5t10.5 71t19.5 62.5t32 53q42 47 117.5 47t124.5 -41q7 -11 36.5 -49t44 -72.5t32.5 -169.5q49 -350 49 -621zM303 1518q-151 0 -151 -607v-80q0 -142 21.5 -305.5 t45 -265.5t66 -174t94.5 -72q70 0 102 142.5t38 253.5q7 152 7 198v49q0 38 -0.5 64.5t-1.5 87t-4 107.5t-8 114t-14 119.5t-20.5 112t-28 102.5t-37.5 80q-43 74 -109 74z" />
<glyph unicode="&#x1d2;" horiz-adv-x="673" d="M365 1845l27 16q37 -6 37 -24q0 -7 -8 -23l2 -10l-15 -31l2 -12q-7 -26 -24 -75q-37 -101 -37 -154.5t-30 -53.5t-99.5 150.5t-71.5 195.5l37 27l35 -47q3 -34 43.5 -147.5t42.5 -118.5q49 183 59 307zM559 791l4 -244q0 -461 -148 -561q-36 -25 -81 -25q-240 0 -240 754 q0 291 40 505q30 156 91 156q14 0 26.5 -11t34 -18.5t59 -14.5t53.5 -10q41 -7 79 -79q86 -146 86 -442zM158 717l4 -162q0 -195 44 -371q16 -66 47.5 -115t72 -49t71 30t48.5 83.5t30 109t17 124.5q8 110 8 196l-23 484l-8 16l4 10q0 89 -50 155t-122 66h-86 q-17 0 -30 -182.5t-17 -202.5z" />
<glyph unicode="&#x1d3;" horiz-adv-x="743" d="M399 2040l27 16q37 -6 37 -24q0 -7 -8 -23l2 -10l-15 -31l2 -12q-7 -26 -24 -75q-37 -101 -37 -154.5t-30 -53.5t-99.5 150.5t-71.5 195.5l37 27l35 -47q3 -34 43.5 -147.5t42.5 -118.5q49 183 59 307zM627 426l2 -129q0 -173 -45 -255q-19 -34 -55 -57.5t-93 -23.5 t-105 30.5t-74 76.5t-45.5 107t-27.5 115q-23 142 -45 183q0 163 -20.5 487.5t-20.5 487.5l-14 43q0 14 10.5 27.5t24.5 13.5q51 0 51 -150l18 -692q8 -10 10 -49q10 -142 19 -182q-4 -24 -4 -52t19.5 -94t51 -130t78.5 -110t84 -46t55 8t28 17.5t16.5 31.5t8.5 33.5t4 41 t1.5 36t-0.5 18.5l6 68v233l-14 123l-12 367v26l-9 12q9 58 9 117l-19 348q0 16 14.5 24.5t30.5 8.5l35 -33l-6 -16l6 -16l-14 -123l20 -369l10 -356l7 -2q-2 -14 -2 -43l6 -144l6 -6z" />
<glyph unicode="&#x1d4;" horiz-adv-x="651" d="M375 1858l27 16q37 -6 37 -24q0 -7 -8 -23l2 -10l-15 -31l2 -12q-7 -26 -24 -75q-37 -101 -37 -154.5t-30 -53.5t-99.5 150.5t-71.5 195.5l37 27l35 -47q3 -34 43.5 -147.5t42.5 -118.5q49 183 59 307zM520 920l2 -41q-4 -52 -5.5 -140t-3 -167t-5.5 -171t-16 -165 q-28 -174 -91 -232q-68 -64 -159 -13q-39 22 -65.5 55t-42.5 212.5t-19 378.5q-9 598 -19 682l13 29q47 -6 47 -113l6 -543l22 -434q0 -233 154 -233q95 0 120 429q2 29 9.5 277t7.5 598l-4 37q0 23 29.5 23t35 -13.5t5.5 -121t-13 -158.5q2 -4 2 -13z" />
<glyph unicode="&#x1f0;" horiz-adv-x="573" d="M311 1845l27 16q37 -6 37 -24q0 -7 -8 -23l2 -10l-15 -31l2 -12q-7 -26 -24 -75q-37 -101 -37 -154.5t-30 -53.5t-99.5 150.5t-71.5 195.5l37 27l35 -47q3 -34 43.5 -147.5t42.5 -118.5q49 183 59 307zM72 -205l-2 8q0 9 73.5 56.5t81.5 56.5q33 37 49.5 113t16.5 143 l-19 1088l-12 22q-9 4 -50 10q-99 13 -99 43q0 8 17 16.5t50 8.5t175.5 -29t142.5 -56.5t-33 -27.5l-111 21q-18 0 -18 -41l20 -850v-225q-12 -27 -12 -77t-13 -101.5t-37 -103.5t-66 -87t-93 -35h-14z" />
<glyph unicode="&#x1f1;" horiz-adv-x="1173" d="M1054 -10l-243 -8q-21 0 -31 26q44 77 65 177t34 222t26 181q65 490 89 647q30 206 32 264l-138 -10q-92 0 -92 41l15 16q16 -4 49 -4l192 21q33 0 33 -37q-22 -49 -29.5 -155t-15.5 -162t-57 -434t-82 -580q-3 -22 -25 -74t-22 -82l133 10q86 0 86 -41zM156 299l2 82 q0 120 -14 279t-17 198q-9 19 -10 256.5t-4.5 263.5t-17 62t-13.5 57q0 49 154 49h10q78 0 168 -86t117.5 -155t36.5 -165.5t12.5 -176.5t13.5 -101l-4 -55l6 -10l-6 -17l6 -10q-12 -19 -12 -57t-4 -70t-8 -50t-13.5 -53.5t-28.5 -113.5q-56 -220 -186 -325t-153.5 -105 t-48 10.5t-27.5 30.5q29 37 32 82zM162 1450l18 -340q0 -132 15.5 -391.5t15.5 -351t-4 -201.5l4 -8v-58h10q77 41 136 117.5t91.5 160t53.5 182.5q33 162 33 314q0 599 -330 599q-41 0 -43 -23z" />
<glyph unicode="&#x1f2;" horiz-adv-x="1241" d="M1011 12l-121 6q-23 0 -44.5 -11t-28.5 -11q-31 0 -31 31q0 35 24 121q59 214 83 331t38 173t59 196q99 311 99 455l-192 -13q-12 0 -20.5 10.5t-8.5 22.5q0 33 227 33q51 0 51 -33q0 -70 -50 -224.5t-50 -183.5q-11 -56 -62 -227q-128 -426 -130 -625q20 -4 59 -4l86 7 q59 0 59 -27t-47 -27zM156 299l2 82q0 120 -14 279t-17 198q-9 19 -10 256.5t-4.5 263.5t-17 62t-13.5 57q0 49 154 49h10q78 0 168 -86t117.5 -155t36.5 -165.5t12.5 -176.5t13.5 -101l-4 -55l6 -10l-6 -17l6 -10q-12 -19 -12 -57t-4 -70t-8 -50t-13.5 -53.5t-28.5 -113.5 q-56 -220 -186 -325t-153.5 -105t-48 10.5t-27.5 30.5q29 37 32 82zM162 1450l18 -340q0 -132 15.5 -391.5t15.5 -351t-4 -201.5l4 -8v-58h10q77 41 136 117.5t91.5 160t53.5 182.5q33 162 33 314q0 599 -330 599q-41 0 -43 -23z" />
<glyph unicode="&#x1f3;" horiz-adv-x="1191" d="M962 12l-121 6q-23 0 -44.5 -11t-28.5 -11q-31 0 -31 31q0 35 24 121q59 214 83 331t38 173t59 196q99 311 99 455l-192 -13q-12 0 -20.5 10.5t-8.5 22.5q0 33 227 33q51 0 51 -33q0 -70 -50 -224.5t-50 -183.5q-11 -56 -62 -227q-128 -426 -130 -625q20 -4 59 -4l86 7 q59 0 59 -27t-47 -27zM537 717q0 -81 10 -99q-13 -67 -23.5 -181t-25 -174t-36.5 -103q-54 -102 -179 -170h-142q-18 0 -18 55q-8 159 -8 356l4 484q0 213 -8 385q-17 14 -17 35t17 36t31 15t31.5 -16.5t26.5 -21t43 -10t56.5 -16.5t73.5 -59.5t69 -61.5l-2 -4 q2 -13 30.5 -52.5t35.5 -57.5q33 -89 33 -244zM477 592l-2 74l-10 206q-4 116 -71 246q-31 62 -82.5 103t-110.5 41q-23 0 -23 -409.5t23 -733.5l-2 -39l8 -4l6 -27h63q12 17 30.5 31t25.5 20q145 131 145 492z" />
<glyph unicode="&#x1f4;" horiz-adv-x="774" d="M339 1674q-37 0 -37 30q0 12 121.5 105.5t132.5 103.5q45 0 45 -32q0 -1 -6 -31q-103 -46 -256 -176zM571 463q64 0 64 -86q0 -61 20.5 -182.5t20.5 -182.5q0 -32 -27 -32q-49 0 -49 45q0 1 1 5t1 5q-20 -6 -52 -29t-48 -28t-48.5 -7t-47.5 -12h4q-135 30 -202 94 q-54 51 -76 173q-38 203 -38 651q0 176 10 250t21.5 130.5t28 98t41.5 84.5t56 70q70 61 169 61q61 0 61 -35q0 -25 -30 -25l-58 11q-157 0 -203 -287q-26 -156 -26 -408q-6 -162 -6 -224.5t1 -97t4.5 -86.5t12 -93.5t20.5 -89.5t32.5 -83.5t47.5 -65.5q56 -62 157 -62 t167 102q0 153 -18.5 208.5t-34.5 55.5l-82 -8q-47 0 -47 35q0 19 60.5 32t92.5 13z" />
<glyph unicode="&#x1f5;" horiz-adv-x="688" d="M306 1479q-37 0 -37 30q0 12 121.5 105.5t132.5 103.5q45 0 45 -32q0 -1 -6 -31q-103 -46 -256 -176zM563 406l8 -314q-106 -106 -209 -106q-136 0 -178.5 56t-67 260t-24.5 290.5t10 190.5t16 198.5t21 158.5q49 216 232 216q63 0 63 -29q0 -14 -13.5 -22.5t-27.5 -8.5 l-39 4q-69 0 -108 -88q-42 -98 -52.5 -181t-15.5 -132t-7 -112q-3 -95 -3 -177t6 -131q16 -25 21 -81.5t8.5 -113.5t16 -113t53.5 -91t112 -35q123 0 123 327v150q-21 21 -72 21l-39 -2q-49 0 -49 24q0 35 49 35q189 0 189 -41z" />
<glyph unicode="&#x218;" horiz-adv-x="569" d="M395 692l-2 -8q0 -1 47 -158q31 -122 31 -188t-15.5 -129t-45 -121t-81 -95.5t-99 -37.5t-67.5 2q-59 6 -83 49q0 25 21.5 25t58 -15.5t69.5 -15.5t70.5 38t57.5 94q40 114 40 213.5t-30 202.5t-73.5 188t-86.5 170q-103 202 -103 382q0 149 90 238q49 47 115 47 q21 0 54 -16.5t40 -34.5l-12 -23q-46 0 -67 21q-49 0 -84 -37q-66 -68 -66 -178q0 -81 13 -134.5t20 -81.5t25 -71t26.5 -64t33 -69t32 -62t37 -67.5t34.5 -63.5zM186 -424l4 18q107 86 107 150q-25 14 -42 39t-17 52t24.5 45t52.5 18q46 0 68 -60l-4 -6q4 -8 4 -33.5 t-25 -83.5t-65 -106t-74 -49z" />
<glyph unicode="&#x219;" horiz-adv-x="489" d="M303 1305l-43 12q-32 0 -56 -25.5t-36 -63.5q-25 -74 -25 -116t2 -60t7.5 -42t7.5 -34t11.5 -41.5t10.5 -35.5l15 -37q20 -36 52 -90.5t48 -82.5t37 -73.5t30 -82.5q25 -95 25 -170.5t-6 -121t-22.5 -93.5t-40.5 -84q-55 -84 -154 -84l-10 -5q-60 11 -66 50l10 16l74 -14 q47 0 81 36.5t51 92.5q30 104 30 192.5t-25.5 167t-61.5 143.5l-72 130q-87 157 -87 309q0 78 28 149q51 131 134 131q23 0 50.5 -17.5t27.5 -39.5q0 -16 -27 -16zM317 1313v-2h2q0 2 -2 2zM145 -424l5 18q4 4 26 23.5t30.5 29t23.5 27.5q26 33 26 70q-25 14 -42 39t-17 52 t24.5 45t52.5 18q46 0 68 -60l-4 -6q4 -8 4 -33.5t-25 -83.5t-65 -106t-74 -49z" />
<glyph unicode="&#x21a;" horiz-adv-x="542" d="M342 545l10 -477q0 -80 -35 -80q-21 0 -32 28.5t-11 53.5l17 336q0 108 -14.5 326.5t-14.5 328.5l2 192q0 211 -35 211l-116 -12q-15 0 -29 9.5t-14 25.5q0 21 136 40t216 19q15 0 29 -10.5t14 -24.5q0 -30 -39 -30l-76 6q-35 0 -43 -21q15 -129 15 -266l-3 -248 q0 -242 29 -348q-6 -30 -6 -59zM283 -256q-60 36 -60 90q0 28 24.5 46t53.5 18q46 0 68 -60l-4 -6q4 -8 4 -33.5t-25 -83.5t-65 -106t-74 -49l-33 16l4 18q107 86 107 150z" />
<glyph unicode="&#x21b;" horiz-adv-x="544" d="M418 1284l-111 14l-10 -12l4 -8q-4 -8 -4 -117t34 -509.5t34 -600.5q0 -15 -12 -27t-27 -12l-23 17l-4 149l4 72q0 28 -8 49q0 174 -24.5 507t-26.5 492q-161 0 -172 39q9 23 39 23l278 -19l37 2q37 0 37 -26q0 -14 -15 -23.5t-30 -9.5zM285 -256q-60 36 -60 90 q0 28 24.5 46t53.5 18q46 0 68 -60l-4 -6q4 -8 4 -33.5t-25 -83.5t-65 -106t-74 -49l-33 16l4 18q107 86 107 150z" />
<glyph unicode="&#x237;" horiz-adv-x="573" d="M72 -205l-2 8q0 9 73.5 56.5t81.5 56.5q33 37 49.5 113t16.5 143l-19 1088l-12 22q-9 4 -50 10q-99 13 -99 43q0 8 17 16.5t50 8.5t175.5 -29t142.5 -56.5t-33 -27.5l-111 21q-18 0 -18 -41l20 -850v-225q-12 -27 -12 -77t-13 -101.5t-37 -103.5t-66 -87t-93 -35h-14z " />
<glyph unicode="&#x2c6;" horiz-adv-x="479" d="M342 950l-27 17q-10 124 -59 307q-26 -66 -55 -156t-31 -110l-35 -47l-37 26q2 45 71.5 195.5t99.5 150.5t30 -41.5t9.5 -80t27 -86.5t24.5 -74l-2 -13l15 -30l-2 -11q8 -16 8 -22q0 -19 -37 -25z" />
<glyph unicode="&#x2c7;" horiz-adv-x="473" d="M309 1317l27 16q37 -6 37 -24q0 -7 -8 -23l2 -10l-15 -31l2 -12q-7 -26 -24 -75q-37 -101 -37 -154.5t-30 -53.5t-99.5 150.5t-71.5 195.5l37 27l35 -47q3 -34 43.5 -147.5t42.5 -118.5q49 183 59 307z" />
<glyph unicode="&#x2d8;" horiz-adv-x="518" d="M402 1101.5q10 -8.5 10 -19.5t-11 -33l5 -15q-5 -10 -16 -35.5t-16 -35.5t-17 -27.5t-24 -24.5q-34 -20 -75 -20t-71.5 19t-46.5 51q-31 62 -31 139l22 18q14 -1 19 -32q20 -108 53 -132l22 -16h51q27 0 48.5 37.5t21.5 66.5l-2 29q0 39 37 39q11 0 21 -8.5z" />
<glyph unicode="&#x2d9;" horiz-adv-x="1705" d="M126.5 1168.5q-13.5 15.5 -13.5 34.5t16.5 36.5t35.5 17.5t34.5 -17.5t15.5 -35.5q0 -51 -57 -51q-18 0 -31.5 15.5z" />
<glyph unicode="&#x2da;" horiz-adv-x="395" d="M110 1090.5q-30 33.5 -30 77t37 84t79 40.5t78.5 -39.5t36.5 -88t-36.5 -78t-85.5 -29.5t-79 33.5zM150.5 1228q-23.5 -25 -23.5 -47t2.5 -37.5t13.5 -31.5t32.5 -16t52 17t30.5 47t-14.5 61.5t-42 31.5t-51 -25z" />
<glyph unicode="&#x2db;" horiz-adv-x="468" d="M268 -424l66 21q22 0 22 -23.5t-29.5 -38t-58.5 -14.5q-62 0 -108.5 57t-46.5 105.5t14.5 98t35.5 86.5q44 76 77 109l14 15l59 -8q4 2 2 -2t-14 -21q-96 -131 -96 -211q0 -19 -4 -47l-2 -43q0 -26 22 -55t47 -29z" />
<glyph unicode="&#x2dc;" horiz-adv-x="653" d="M487 1149l-12 39q6 12 25.5 12t31 -22t11.5 -56.5t-33 -67t-73 -32.5t-77 21.5t-56 41t-52 58.5l-14 6h-37q-3 -12 -21 -25t-18 -25.5t10 -47.5l-22 -31q-13 0 -26 11t-13 24q0 63 32 104t93 41q66 -34 81 -45q15 -30 40 -55t44 -25t25 2l14 -4q5 14 20 23q27 16 27 53z " />
<glyph unicode="&#x2dd;" horiz-adv-x="1222" d="M142 50q5 22 172 152t186 130q4 0 13.5 -10.5t9.5 -21.5t-7.5 -15.5t-56.5 -41.5t-94 -71t-61.5 -42.5t-67 -45.5t-84.5 -45zM507 68q-38 -23 -47.5 -23t-9.5 15.5t103 91.5t179 120.5t86 44.5t24 -17t17 -33l-106 -60q-69 -27 -138.5 -71.5t-107.5 -67.5z" />
<glyph unicode="&#x307;" horiz-adv-x="1705" d="M126.5 1168.5q-13.5 15.5 -13.5 34.5t16.5 36.5t35.5 17.5t34.5 -17.5t15.5 -35.5q0 -51 -57 -51q-18 0 -31.5 15.5z" />
<glyph unicode="&#x30f;" horiz-adv-x="1222" d="M961 50q-5 22 -164.5 149t-177.5 127q-4 0 -13 -10.5t-9 -21.5t7 -15t52 -40q118 -94 140 -109q20 -9 71 -46t85 -45zM601 66.5q35 -21.5 44 -21.5t9 15.5t-96.5 89t-140.5 101.5q-105 60 -115.5 60t-24.5 -17t-17 -33l107 -60q81 -34 140 -73.5t94 -61z" />
<glyph unicode="&#x311;" horiz-adv-x="1705" />
<glyph unicode="&#x326;" horiz-adv-x="290" d="M158 -256q-60 36 -60 90q0 28 24.5 46t53.5 18q46 0 68 -60l-4 -6q4 -8 4 -33.5t-25 -83.5t-65 -106t-74 -49l-33 16l4 18q107 86 107 150z" />
<glyph unicode="&#x2013;" horiz-adv-x="620" d="M631 727h-62q0 -6 -215 -6h-301q-17 0 -30 9.5t-13 25.5q0 6 283 6h293q15 0 30 -10.5t15 -24.5z" />
<glyph unicode="&#x2014;" horiz-adv-x="620" d="M918 727h-62q0 -6 -215 -6h-588q-17 0 -30 9.5t-13 25.5q0 6 570 6h292q15 0 30.5 -10.5t15.5 -24.5z" />
<glyph unicode="&#x2018;" horiz-adv-x="395" d="M186 1370q60 -36 60 -90q0 -28 -24.5 -45.5t-53.5 -17.5q-47 0 -68 59l4 6q-4 8 -4 33.5t25 83.5t65 106t74 49l33 -16l-4 -18q-107 -86 -107 -150z" />
<glyph unicode="&#x2019;" horiz-adv-x="397" d="M207 1401q-60 36 -60 90q0 28 24.5 45.5t53.5 17.5q47 0 68 -59l-4 -6q4 -8 4 -33.5t-25 -83.5t-65 -106t-74 -49l-33 16l4 18q107 86 107 150z" />
<glyph unicode="&#x201a;" horiz-adv-x="407" d="M100 -162l4 19q107 89 107 149q-25 14 -42 39t-17 52t24.5 45t52.5 18q46 0 68 -60l-4 -6q4 -8 4 -33t-25 -83t-65 -106.5t-74 -49.5z" />
<glyph unicode="&#x201c;" horiz-adv-x="608" d="M186 1370q60 -36 60 -90q0 -28 -24.5 -45.5t-53.5 -17.5q-47 0 -68 59l4 6q-4 8 -4 33.5t25 83.5t65 106t74 49l33 -16l-4 -18q-107 -86 -107 -150zM399 1370q60 -36 60 -90q0 -28 -24.5 -45.5t-53.5 -17.5q-47 0 -68 59l4 6q-4 8 -4 33.5t25 83.5t65 106t74 49l33 -16 l-4 -18q-107 -86 -107 -150z" />
<glyph unicode="&#x201d;" horiz-adv-x="643" d="M207 1401q-60 36 -60 90q0 28 24.5 45.5t53.5 17.5q47 0 68 -59l-4 -6q4 -8 4 -33.5t-25 -83.5t-65 -106t-74 -49l-33 16l4 18q107 86 107 150zM453 1401q-60 36 -60 90q0 28 24.5 45.5t53.5 17.5q47 0 68 -59l-4 -6q4 -8 4 -33.5t-25 -83.5t-65 -106t-74 -49l-33 16 l4 18q107 86 107 150z" />
<glyph unicode="&#x201e;" horiz-adv-x="636" d="M125 -174l-25 16q10 23 40 49.5t52.5 53.5t22.5 61q-25 14 -42 39t-17 52t24.5 45t53.5 18t48 -23.5t19 -59.5t-24.5 -95.5t-67 -107.5t-84.5 -48zM330 -162l4 19q5 5 26 23.5t30 28.5t24 27q26 32 26 70q-25 14 -42 39t-17 52t24.5 45t53.5 18t48 -23.5t19 -58 t-23 -94.5t-63 -110.5t-78 -51.5z" />
<glyph unicode="&#x2022;" horiz-adv-x="868" d="M337 612q-36 41 -36 89t31.5 102.5t94.5 54.5t104.5 -33.5t41.5 -71.5t-6 -63.5t-21 -53.5q-32 -65 -120 -65q-53 0 -89 41z" />
<glyph unicode="&#x2026;" horiz-adv-x="983" d="M126.5 7.5q-13.5 15.5 -13.5 34.5t16.5 36.5t35.5 17.5t34.5 -17.5t15.5 -35.5q0 -51 -57 -51q-18 0 -31.5 15.5zM453.5 7.5q-13.5 15.5 -13.5 34.5t17 36.5t36 17.5t34.5 -17.5t15.5 -35.5q0 -51 -58 -51q-18 0 -31.5 15.5zM781.5 7.5q-13.5 15.5 -13.5 34.5t16.5 36.5 t35.5 17.5t34.5 -17.5t15.5 -35.5q0 -51 -57 -51q-18 0 -31.5 15.5z" />
<glyph unicode="&#x2039;" horiz-adv-x="569" d="M461 0l-27 4h-4q-32 47 -69 131t-48 107l-102 213q-5 11 -21.5 43.5t-23.5 50.5q-6 18 -44 68.5t-38 78t48 141.5t105.5 243.5t64.5 151t16.5 55.5t17.5 59q23 71 49 75l27 -20q-18 -119 -140 -362q-116 -233 -116 -339q0 -17 141 -304.5t174 -342.5l18 -14 q-2 -11 -10.5 -25t-17.5 -14z" />
<glyph unicode="&#x203a;" horiz-adv-x="569" d="M139 4l-30 -4q-9 0 -18 14t-11 25l18 14q36 65 176 347.5t140 299.5q0 106 -116 339q-122 243 -140 362l26 20q28 -6 50 -75q7 -24 16.5 -58.5t16.5 -56t65 -150.5q153 -344 153 -378t-37.5 -85t-44.5 -69.5t-24 -51t-21 -42.5l-176 -365q-37 -77 -43 -86z" />
<glyph unicode="&#x2044;" horiz-adv-x="559" d="M479 1505q0 -17 -20 -99.5t-33 -142t-219 -964.5l-41 -178q-2 -7 -6 -28.5t-7.5 -34.5t-9.5 -30q-12 -32 -37 -34q-20 13 -20 47t10.5 90t33 142t93.5 401t131.5 545.5t63 241.5t6 22t7.5 23q9 26 18 26q30 0 30 -27z" />
<glyph unicode="&#x2074;" horiz-adv-x="526" d="M455 567q0 -30 -57 -25q-22 2 -40 -8t-18 -51t5.5 -178t12.5 -153q-2 -8 -2 -38.5t9 -45.5l-7 -25l7 -14v-29l-33 -25l-31 13v73l-2 5q8 33 8 73l-14 209l4 92q0 80 -21 90l-120 -12q-27 0 -39 9.5t-17 13.5v6q0 10 11 65l-19 41l19 101l20 401v326l-8 51q0 27 30.5 27 t30.5 -29l-8 -164q0 -36 6 -70l-4 -6q4 -36 4 -57l-24 -516l14 -60l-14 -55q0 -39 19.5 -39t55 6t48.5 13q0 74 -8 270.5t-15.5 251.5t-7.5 76q0 32 39 32l18 -22l12 -289q0 -60 6 -185t15 -134l76 8q39 0 39 -23z" />
<glyph unicode="&#x20ac;" horiz-adv-x="606" d="M100 1036l2 328q12 20 22.5 68.5t21.5 68.5q23 41 102 41q20 0 56 -20.5t55.5 -39t33 -44t22.5 -43.5t15.5 -52.5t9.5 -49.5q7 -47 10.5 -81.5t11.5 -94.5t9.5 -72t9 -66.5t9 -72t7 -66t7.5 -72.5t5.5 -66.5t4.5 -71.5q4 -69 4 -125t-2 -96.5t-7.5 -104t-19 -115 t-33.5 -99.5q-44 -104 -134 -104q-19 0 -66 26q-97 60 -150 762l9 8l-2 146q-13 17 -13 108zM156 946l20 -180q0 -733 164 -733q58 0 88 109q28 106 33 192q8 138 8 229t-16 260.5t-47 247.5v88q-22 56 -24 116t-9.5 94.5t-21.5 59.5q-31 56 -134 68q-48 -39 -59 -69 t-11 -99z" />
<glyph unicode="&#x2122;" horiz-adv-x="1075" d="M322 1362l14 -492q0 -82 -6 -161q8 -24 8 -30t-15 -17t-28 -15l-29 15q2 8 2 26l-2 51v11q6 6 6 61.5t-6 67.5q4 54 4 82l-8 229l6 213q0 88 -10 98l-113 -8q-57 0 -57 20v7l14 24q24 2 92 8q132 13 209 13l56 -4l24 -25q0 -35 -75 -35l-74 2l-6 -8q-6 -67 -6 -133z M874 1192l7 127q0 14 -4 20q-2 -9 -14 -70q-28 -144 -52 -161q-12 -24 -12 -68l-6 -6l2 -4q-1 -3 -11 -52q-23 -114 -54.5 -114t-43 38.5t-15 91.5t-12.5 69q-8 65 -38 183t-39 169q-15 -199 -15 -431t11 -251v-8q0 -69 -22 -79q-11 -5 -30 -5q-24 0 -24 49l12 217 q0 426 18 639q4 4 13 16q19 27 34 27t37 -22q-2 -6 -2 -43t44 -173.5t48 -158.5t8 -54q8 -80 19 -85q57 137 85.5 247.5t42.5 168t17.5 75t6 26.5t8.5 21.5t16 18.5t23 6t23 -8t10 -21l-23 -434l14 -367q0 -145 -53 -145q-16 0 -23.5 4.5t-7.5 20.5l13 235zM733 1040h2h-2z " />
<glyph unicode="&#x2212;" horiz-adv-x="620" d="M610 739q0 -7 -169.5 -12.5t-284.5 -5.5q-15 0 -29 9.5t-14 25.5q0 7 174.5 12.5t277.5 5.5q15 0 30 -10.5t15 -24.5z" />
<glyph unicode="&#xe000;" horiz-adv-x="1355" d="M0 1355h1355v-1355h-1355v1355z" />
<glyph horiz-adv-x="1251" d="M975 106q0 -34 -33 -34q-26 0 -144 152q-44 56 -99 103.5t-95 47.5h-12q-62 -52 -132 -105.5t-100 -83.5q-73 -71 -101 -71t-28 26q0 11 6.5 25t14.5 50q12 47 58 174.5t46 129.5l-52 62q-43 44 -98 92t-67 59t-45 29q-76 43 -76 78q0 30 39 30q2 0 41 -6 q117 -16 181 -16l190 -8l94 235q10 15 26 59.5t34 72.5t37.5 28t37 -17t17.5 -30q0 -69 53 -293l10 -47q85 -6 203 -6l190 6q54 0 54 -41q0 -11 -46 -39.5t-59 -40.5t-60 -61q-101 -105 -179 -144v-12q0 -40 19 -97t22 -69q6 -1 29.5 -108.5t23.5 -129.5z" />
</font>
</defs>
</svg>
